<?xml version="1.0" encoding="utf-8"?>
<!-- Generator: Adobe Illustrator 28.3.0, SVG Export Plug-In . SVG Version: 6.00 Build 0)  -->
<svg version="1.1" id="Layer_1" xmlns="http://www.w3.org/2000/svg" xmlns:xlink="http://www.w3.org/1999/xlink" x="0px" y="0px"
	 viewBox="0 0 428.23 428.23" style="enable-background:new 0 0 428.23 428.23;" xml:space="preserve">
<style type="text/css">
	.st0{fill:#FF6B36;}
	.st1{fill:#FFFFFF;}
</style>
<g>
	<g>
		<polygon class="st0" points="0.49,-0.94 428.72,-0.94 428.72,373.76 375.19,427.29 0.49,427.29 		"/>
	</g>
	<g>
		<rect x="29.49" y="33.5" class="st1" width="244.04" height="359.14"/>
	</g>
	<g>
		<path class="st0" d="M373.33,24.19h-95.41c-15.03,48.7-24.3,115.35-24.3,188.88c0,74.88,9.61,142.63,25.13,191.54h94.58V24.19z"/>
	</g>
	<g>
		<path class="st1" d="M397.28,295.28h-21.7c-29.86,0-54.07-15.45-54.07-23.17c0-8.08,22.98-22.41,51.78-23.14
			c0.76-0.02,1.52-0.03,2.29-0.03h21.7L397.28,295.28z"/>
	</g>
	<g>
		<path class="st1" d="M349.8,353.69h-15.83c-21.79,0-39.45-11.27-39.45-16.91c0-5.9,16.77-16.35,37.78-16.89
			c0.55-0.01,1.11-0.02,1.67-0.02h15.83V353.69z"/>
	</g>
	<g>
		<rect x="54.89" y="29.51" class="st0" width="17" height="371.12"/>
	</g>
	<g>
		<path class="st0" d="M153.5,398.07h-17c0-18.44,8.23-28.27,14.84-36.17c6.08-7.26,10.88-12.99,10.88-25.26s-4.8-18-10.88-25.25
			c-6.61-7.9-14.84-17.72-14.84-36.17c0-18.44,8.23-28.27,14.84-36.17c6.08-7.26,10.88-12.99,10.88-25.26
			c0-12.27-4.8-18-10.88-25.26c-6.61-7.9-14.84-17.72-14.84-36.17c0-18.45,8.23-28.27,14.84-36.17
			c6.08-7.26,10.88-12.99,10.88-25.26c0-12.27-4.8-18-10.88-25.26c-6.61-7.9-14.84-17.73-14.84-36.17h17c0,12.27,4.8,18,10.88,25.26
			c6.61,7.9,14.84,17.73,14.84,36.17c0,18.45-8.23,28.27-14.84,36.17c-6.08,7.26-10.88,12.99-10.88,25.26
			c0,12.27,4.8,18,10.88,25.26c6.61,7.9,14.84,17.72,14.84,36.17s-8.23,28.27-14.84,36.17c-6.08,7.26-10.88,12.99-10.88,25.26
			c0,12.27,4.8,18,10.87,25.25c6.61,7.9,14.84,17.72,14.84,36.17c0,18.44-8.23,28.27-14.84,36.17
			C158.3,380.07,153.5,385.8,153.5,398.07z"/>
	</g>
	<g>
		<path class="st0" d="M112.28,398.07h-17c0-17.25,4.24-26.31,7.99-34.32c3.43-7.32,6.39-13.64,6.39-27.11s-2.96-19.79-6.39-27.11
			c-3.75-8-7.99-17.07-7.99-34.31c0-17.25,4.24-26.31,7.99-34.32c3.43-7.32,6.39-13.64,6.39-27.11c0-13.47-2.96-19.79-6.39-27.11
			c-3.75-8-7.99-17.07-7.99-34.32s4.24-26.32,7.99-34.32c3.43-7.32,6.39-13.65,6.39-27.11s-2.96-19.79-6.39-27.11
			c-3.75-8-7.99-17.07-7.99-34.32h17c0,13.47,2.96,19.79,6.39,27.11c3.75,8,7.99,17.07,7.99,34.32s-4.24,26.32-7.99,34.32
			c-3.43,7.32-6.39,13.65-6.39,27.11c0,13.47,2.96,19.79,6.39,27.11c3.75,8,7.99,17.07,7.99,34.32c0,17.25-4.24,26.31-7.99,34.32
			c-3.43,7.32-6.39,13.64-6.39,27.11c0,13.46,2.96,19.79,6.39,27.11c3.75,8,7.99,17.07,7.99,34.31c0,17.25-4.24,26.31-7.99,34.32
			C115.24,378.28,112.28,384.6,112.28,398.07z"/>
	</g>
	<g>
		<path class="st0" d="M321.4,210.31h-41.84c-57.59,0-104.27-29.79-104.27-44.69c0-15.59,44.32-43.22,99.86-44.63
			c1.46-0.04,2.93-0.06,4.41-0.06h41.84L321.4,210.31z"/>
		<path class="st1" d="M328.4,217.31h-48.84c-36.02,0-63.6-10.95-76.83-17.48c-8.08-3.99-34.44-18.23-34.44-34.21
			c0-5.22,3.21-18.98,32.96-33.89c21.5-10.78,47.68-17.08,73.71-17.74c1.52-0.04,3.05-0.06,4.59-0.06h48.84V217.31z M279.55,127.94
			c-1.42,0-2.83,0.02-4.24,0.05c-32.41,0.82-56.39,10.54-67.8,16.26c-18.88,9.46-25.24,18.64-25.24,21.38
			c0,2.27,6.31,11.62,26.64,21.65c12.14,5.99,37.45,16.04,70.63,16.04h34.84v-75.37H279.55z"/>
	</g>
	<g>
		<g>
			<path class="st1" d="M364.46,151.92H330.8c-3.32,0-6.02-2.69-6.02-6.02s2.7-6.02,6.02-6.02h33.66c3.32,0,6.02,2.69,6.02,6.02
				S367.79,151.92,364.46,151.92z"/>
		</g>
		<g>
			<path class="st1" d="M393.32,185.17H330.8c-3.32,0-6.02-2.69-6.02-6.02s2.7-6.02,6.02-6.02h62.52c3.32,0,6.02,2.69,6.02,6.02
				S396.64,185.17,393.32,185.17z"/>
		</g>
	</g>
	<g>
		<polygon class="st0" points="180.44,263.6 179.46,278.23 195.07,291.89 205.8,275.3 206.77,247.99 		"/>
		<path class="st0" d="M195.07,297.61c-1.38,0-2.72-0.5-3.77-1.42l-15.61-13.66c-1.34-1.17-2.06-2.91-1.94-4.69l0.98-14.63
			c0.13-1.88,1.17-3.58,2.79-4.54l26.34-15.61c1.8-1.07,4.04-1.07,5.84,0s2.87,3.03,2.8,5.12l-0.98,27.31
			c-0.04,1.03-0.35,2.04-0.91,2.9l-10.73,16.58c-0.9,1.39-2.37,2.33-4.01,2.56C195.6,297.59,195.33,297.61,195.07,297.61z
			 M185.36,275.79l8.5,7.44l6.28-9.71l0.54-15.27l-14.74,8.73L185.36,275.79z"/>
	</g>
	<g>
		<polygon class="st0" points="217.48,311.15 235.41,328.92 230.12,345 213.56,332.13 		"/>
		<path class="st0" d="M230.12,349.42c-0.97,0-1.93-0.32-2.71-0.93l-16.56-12.87c-1.31-1.02-1.94-2.68-1.63-4.3l3.93-20.99
			c0.3-1.61,1.47-2.92,3.03-3.41c1.56-0.49,3.27-0.07,4.43,1.08l17.92,17.77c1.19,1.18,1.61,2.93,1.09,4.52l-5.29,16.08
			c-0.45,1.37-1.53,2.43-2.91,2.85C230.99,349.36,230.55,349.42,230.12,349.42z M218.4,330.3l9.48,7.37l2.47-7.53l-10.06-9.97
			L218.4,330.3z"/>
	</g>
	<g>
		<polygon class="st0" points="204.4,88.37 223.36,71.41 235.33,92.36 		"/>
		<path class="st0" d="M235.33,96.78c-0.19,0-0.38-0.01-0.57-0.04l-30.93-3.99c-1.72-0.22-3.14-1.42-3.66-3.07
			c-0.51-1.65-0.01-3.45,1.27-4.6l18.96-16.96c0.99-0.89,2.34-1.28,3.66-1.07c1.32,0.21,2.47,1.01,3.13,2.17l11.97,20.95
			c0.83,1.46,0.77,3.26-0.17,4.65C238.17,96.05,236.79,96.78,235.33,96.78z M214.55,85.22l12.53,1.62l-4.85-8.49L214.55,85.22z"/>
	</g>
</g>
</svg>
