<?xml version="1.0" encoding="utf-8"?>
<!-- Generator: Adobe Illustrator 28.3.0, SVG Export Plug-In . SVG Version: 6.00 Build 0)  -->
<svg version="1.1" id="Layer_1" xmlns="http://www.w3.org/2000/svg" xmlns:xlink="http://www.w3.org/1999/xlink" x="0px" y="0px"
	 viewBox="0 0 428.23 428.23" style="enable-background:new 0 0 428.23 428.23;" xml:space="preserve">
<style type="text/css">
	.st0{fill:#FF6B36;}
	.st1{fill:#FFFFFF;}
</style>
<g>
	<g>
		<polygon class="st0" points="0.49,-0.94 428.72,-0.94 428.72,373.76 375.19,427.29 0.49,427.29 		"/>
	</g>
	<g>
		<path class="st1" d="M214.6,389.99c-97.5,0-176.81-79.32-176.81-176.81S117.11,36.36,214.6,36.36s176.81,79.32,176.81,176.81
			S312.1,389.99,214.6,389.99z M214.6,72.36c-77.64,0-140.81,63.17-140.81,140.81s63.17,140.81,140.81,140.81
			s140.81-63.17,140.81-140.81S292.25,72.36,214.6,72.36z"/>
	</g>
	<g>
		<g>
			<g>
				<path class="st1" d="M128.39,323.06c-10.56,0-19.62-7.42-22.04-18.04c-1.4-6.13-0.1-12.01,3.98-17.96
					c2.89-4.22,5.76-8.47,8.63-12.71c4.68-6.92,9.52-14.08,14.41-21.06c3.69-5.28,3.89-9.32,0.67-13.95
					c-3.84-5.52-3.39-12.04,1.13-16.6c7.23-7.3,14.63-14.6,21.8-21.66c2.72-2.68,5.44-5.36,8.14-8.04l3.89-3.85l71.16,71.16
					c0,0-19.9,19.73-26.2,25.98l-1.62,1.6c-1.61,1.58-3.12,3.08-4.6,4.63c-3.08,3.23-6.53,4.86-10.27,4.86
					c-2.77,0-5.57-0.93-8.31-2.76c-2.04-1.36-3.96-2.02-5.85-2.02c-2.07,0-4.21,0.78-6.55,2.38l-5.88,4.03
					c-9.67,6.63-19.66,13.48-29.64,20.05C137.32,321.7,132.88,323.06,128.39,323.06z"/>
			</g>
			<g>
				<path class="st0" d="M168.98,196.95c21.16,21.16,42.03,42.04,63.39,63.39c-7.25,7.18-14.76,14.64-22.28,22.1
					c-2.12,2.11-4.27,4.18-6.33,6.35c-2,2.1-4.08,3.16-6.29,3.16c-1.67,0-3.42-0.61-5.27-1.84c-2.98-1.98-5.94-2.94-8.9-2.94
					c-3.23,0-6.45,1.15-9.66,3.34c-11.78,8.06-23.52,16.18-35.44,24.03c-3.14,2.07-6.53,3.03-9.81,3.03
					c-7.67,0-14.74-5.24-16.68-13.76c-1.15-5.04,0.3-9.47,3.15-13.63c7.69-11.23,15.21-22.57,23.01-33.73
					c4.7-6.72,5.54-13.26,0.68-20.24c-2.22-3.2-2.29-6.75,0.52-9.59C149,216.6,159.07,206.75,168.98,196.95 M169.02,181.43
					l-7.78,7.7c-2.71,2.68-5.42,5.36-8.15,8.04c-7.17,7.07-14.58,14.38-21.83,21.7c-6.38,6.44-7.08,15.93-1.74,23.61
					c1.45,2.09,2.19,3.57-0.67,7.66c-4.91,7.02-9.76,14.19-14.45,21.13c-2.82,4.17-5.73,8.48-8.62,12.69
					c-4.92,7.18-6.53,14.68-4.8,22.29c2.99,13.14,14.26,22.32,27.4,22.32c5.57,0,11.05-1.67,15.86-4.84
					c10.02-6.59,20.03-13.46,29.71-20.1c1.96-1.35,3.93-2.69,5.89-4.04c0.95-0.65,2.31-1.42,3.44-1.42c0.77,0,1.71,0.37,2.8,1.1
					c3.67,2.44,7.49,3.68,11.36,3.68c3.65,0,9.08-1.14,14.25-6.57c1.42-1.49,2.91-2.96,4.49-4.51c0.55-0.54,1.09-1.08,1.63-1.62
					c6.02-5.97,12.03-11.94,17.91-17.77l4.36-4.32l7.84-7.78l-7.81-7.81l-63.39-63.39L169.02,181.43L169.02,181.43z"/>
			</g>
		</g>
	</g>
	<g>
		
			<rect x="201.03" y="41.09" transform="matrix(0.7071 -0.7071 0.7071 0.7071 -79.9579 214.5742)" class="st1" width="36" height="325.44"/>
	</g>
	<g>
		<g>
			<path class="st1" d="M105.62,386.88c-7.61,0-20.48-5.21-20.48-24.76c0-9.61,4.53-17.93,8.33-23.22c2.18-3.04,4.3-5.34,5.7-6.74
				c2.7-2.71,4.19-3.84,6.45-3.84c2.05,0,3.58,0.89,6.52,3.83c1.39,1.38,3.51,3.68,5.71,6.77c3.76,5.27,8.25,13.57,8.25,23.2
				C126.1,381.71,112.71,386.88,105.62,386.88z"/>
		</g>
		<g>
			<path class="st0" d="M105.62,333.83c0.71,0,14.98,12.67,14.98,28.29c0,15.63-9.99,19.26-14.98,19.26
				c-5.47,0-14.98-3.63-14.98-19.26C90.64,346.5,105.12,333.83,105.62,333.83 M105.62,322.83c-4.9,0-7.92,3.02-10.34,5.46
				c-1.54,1.54-3.87,4.08-6.27,7.41c-6.13,8.52-9.37,17.66-9.37,26.43c0,20.79,13.47,30.26,25.98,30.26
				c12.91,0,25.98-10.39,25.98-30.26c0-11.09-5.04-20.48-9.27-26.4c-2.42-3.39-4.77-5.93-6.31-7.47
				C113.15,325.4,110.2,322.83,105.62,322.83L105.62,322.83z"/>
		</g>
	</g>
	<g>
		<path class="st1" d="M284.72,73.57l72.2,72.2c9.15,9.15,9.15,23.99,0,33.14l-61.97,61.97L189.61,135.53l61.97-61.97
			C260.73,64.41,275.57,64.41,284.72,73.57z"/>
		<path class="st0" d="M294.96,248.65L181.83,135.53l65.86-65.86c5.46-5.46,12.73-8.47,20.46-8.47s15,3.01,20.46,8.47l72.2,72.2
			c11.28,11.28,11.28,29.64,0,40.92L294.96,248.65z M197.39,135.53l97.57,97.57l58.08-58.08c6.99-6.99,6.99-18.37,0-25.36
			l-72.2-72.2c-3.39-3.39-7.89-5.25-12.68-5.25c-4.79,0-9.29,1.87-12.68,5.25L197.39,135.53z"/>
	</g>
	<g>
		
			<rect x="180.95" y="192.94" transform="matrix(0.7071 -0.7071 0.7071 0.7071 -118.5042 203.542)" class="st0" width="11" height="103.75"/>
	</g>
	<g>
		<path class="st0" d="M266.94,189.53l-69.54-69.54l48.22-48.22l69.54,69.54L266.94,189.53z M212.95,119.99l53.99,53.99l32.67-32.67
			l-53.99-53.99L212.95,119.99z"/>
	</g>
</g>
</svg>
