<?xml version="1.0" encoding="utf-8"?>
<!-- Generator: Adobe Illustrator 28.3.0, SVG Export Plug-In . SVG Version: 6.00 Build 0)  -->
<svg version="1.1" id="Layer_1" xmlns="http://www.w3.org/2000/svg" xmlns:xlink="http://www.w3.org/1999/xlink" x="0px" y="0px"
	 viewBox="0 0 428.23 428.23" style="enable-background:new 0 0 428.23 428.23;" xml:space="preserve">
<style type="text/css">
	.st0{fill:#FF6B36;}
	.st1{fill:#FFFFFF;}
</style>
<g>
	<g>
		<polygon class="st0" points="0.49,-0.94 428.72,-0.94 428.72,373.76 375.19,427.29 0.49,427.29 		"/>
	</g>
	<g>
		<path class="st1" d="M155.6,331.68c-3.87,16.16-18.41,28.19-35.76,28.19c-2.07,0-4.12-0.18-6.09-0.51l-13.06,19.51h71.22
			l13.09-48.83c-4.35,3.47-9.86,5.56-15.86,5.56c-4.98,0-9.62-1.43-13.54-3.9L155.6,331.68z M264.07,260.08
			c2.29-2.2,4.39-4.58,6.31-7.11l110.5,74.34v-71.62l-99.38-26.83c0.67-3.08,1.11-6.26,1.3-9.5l52.62,3.66
			c-2.38-3.23-3.79-7.21-3.79-11.53c0-10.72,8.69-19.4,19.4-19.4c10.72,0,19.4,8.69,19.4,19.4c0,5.28-2.12,10.07-5.55,13.57
			l15.98,1.11v-59.42l-101.96,27.12c-1.11-2.93-2.44-5.76-3.96-8.45l105.92-52.11V46.33h-2.36l-28.26,28.26
			c9.56,2.81,16.54,11.64,16.54,22.11c0,12.72-10.32,23.04-23.04,23.04c-10.47,0-19.3-6.98-22.11-16.54l-45.85,45.85
			c2.32,3.45,3.67,7.61,3.67,12.08c0,7.22-3.53,13.61-8.95,17.55c-8.26-10.98-20.12-19.1-33.82-22.64
			c2.3-9.52,10.86-16.59,21.09-16.59c2.67,0,5.22,0.49,7.59,1.36l63.55-94.46H257.3L228,154.45c-2.22-0.24-4.47-0.37-6.74-0.37
			c-0.26,0-0.51,0.01-0.78,0.01l7.3-107.75h-59.42l5.71,21.4c17.38,1.49,31.03,16.06,31.03,33.82c0,11.54-5.76,21.72-14.54,27.85
			l7.78,29.08c-2.27,0.91-4.48,1.95-6.61,3.12l-13.18-26.92c-2.38,0.53-4.86,0.82-7.4,0.82c-18.76,0-33.95-15.21-33.95-33.95
			c0-10.54,4.79-19.94,12.32-26.18L135.3,46.34H48.33v2.36l126.49,126.49c-1.5,1.71-2.9,3.51-4.19,5.37L48.33,98.29v71.62
			l28.35,7.63c-0.09-0.8-0.12-1.61-0.12-2.43c0-12.72,10.32-23.04,23.04-23.04s23.04,10.32,23.04,23.04c0,5.09-1.65,9.79-4.45,13.6
			l43.34,11.67c-0.57,2.22-1.01,4.48-1.33,6.78l-111.88-7.75v59.42l112.71-29.92c0.5,2.27,1.12,4.5,1.85,6.68l-114.56,55.9v87.36
			h2.36l37.35-37.26c-3.18-5.45-5.01-11.77-5.01-18.52c0-20.31,16.47-36.78,36.78-36.78c6.79,0,13.14,1.85,18.61,5.06l35.84-35.75
			c1.63,1.92,3.38,3.75,5.25,5.46l-16.25,24.27c1.89-0.44,3.84-0.69,5.86-0.69c10.78,0,19.99,6.7,23.7,16.15l7.29-27.18
			c2.62,0.95,5.31,1.73,8.09,2.33L201,378.83h59.42l-27.11-102.69c3.04-0.6,5.99-1.43,8.85-2.46l27.71,56.78
			c4.05-6.63,11.35-11.07,19.69-11.07c12.72,0,23.04,10.32,23.04,23.04c0,12.72-10.32,23.04-23.04,23.04c-0.91,0-1.8-0.06-2.68-0.16
			l6.6,13.52h87.36v-1.96L264.02,260.04L264.07,260.08z"/>
	</g>
</g>
</svg>
