<?xml version="1.0" encoding="UTF-8"?>
<svg id="Glyph" xmlns="http://www.w3.org/2000/svg" version="1.1" viewBox="0 0 48 48">
  <rect x="28" y="13" width="5" height="2" fill="#000" stroke-width="0"/>
  <rect x="35" y="13" width="5" height="2" fill="#000" stroke-width="0"/>
  <path d="M40,17h-12v16h12v-16ZM35,30c0,.55273-.44775,1-1,1s-1-.44727-1-1v-10c0-.55273.44775-1,1-1s1,.44727,1,1v10Z" fill="#000" stroke-width="0"/>
  <path d="M34.64648,5.2373c-.37305-.31641-.91992-.31641-1.29297,0-.43646.36957-3.56903,3.08759-4.82739,5.7627h10.94775c-1.25836-2.67511-4.39093-5.39313-4.82739-5.7627Z" fill="#000" stroke-width="0"/>
  <polygon points="39.28076 37 39.78076 35 28.21924 35 28.71924 37 39.28076 37" fill="#000" stroke-width="0"/>
  <rect x="25" y="39" width="18" height="4" rx="1" ry="1" fill="#000" stroke-width="0"/>
  <rect x="8" y="13" width="5" height="2" fill="#000" stroke-width="0"/>
  <rect x="15" y="13" width="5" height="2" fill="#000" stroke-width="0"/>
  <path d="M20,17h-12v16h12v-16ZM15,30c0,.55273-.44775,1-1,1s-1-.44727-1-1v-10c0-.55273.44775-1,1-1s1,.44727,1,1v10Z" fill="#000" stroke-width="0"/>
  <path d="M14.64648,5.2373c-.37305-.31641-.91992-.31641-1.29297,0-.43646.36957-3.56903,3.08759-4.82739,5.7627h10.94775c-1.25836-2.67511-4.39093-5.39313-4.82739-5.7627Z" fill="#000" stroke-width="0"/>
  <polygon points="19.28076 37 19.78076 35 8.21924 35 8.71924 37 19.28076 37" fill="#000" stroke-width="0"/>
  <rect x="5" y="39" width="18" height="4" rx="1" ry="1" fill="#000" stroke-width="0"/>
</svg>