<?xml version="1.0" encoding="utf-8"?>
<!-- Generator: Adobe Illustrator 28.3.0, SVG Export Plug-In . SVG Version: 6.00 Build 0)  -->
<svg version="1.1" id="Layer_1" xmlns="http://www.w3.org/2000/svg" xmlns:xlink="http://www.w3.org/1999/xlink" x="0px" y="0px"
	 viewBox="0 0 428.23 428.23" style="enable-background:new 0 0 428.23 428.23;" xml:space="preserve">
<style type="text/css">
	.st0{fill:#FF6B36;}
	.st1{fill:#FFFFFF;}
</style>
<g>
	<g>
		<polygon class="st0" points="0.49,-0.94 428.72,-0.94 428.72,373.76 375.19,427.29 0.49,427.29 		"/>
	</g>
	<g>
		<g>
			<path class="st1" d="M151.72,375.78c-2.97-1.71-3.89-4.25-3.87-7.65c0.12-19.36,0.06-38.72,0.06-58.65
				c19.03,10.3,37.91,10.42,57.01,0.03c0.06,1.39,0.15,2.38,0.15,3.38c0.01,18.41-0.06,36.83,0.07,55.24
				c0.02,3.41-0.9,5.95-3.87,7.65c-1.06,0-2.12,0-3.18,0c-6.51-4.3-13.06-8.54-19.5-12.93c-1.56-1.06-2.63-1.06-4.19,0
				c-6.44,4.39-12.99,8.63-19.5,12.93C153.84,375.78,152.78,375.78,151.72,375.78z"/>
		</g>
		<g>
			<path class="st1" d="M128.86,336.4c-15.38,0-30.29,0-45.2,0c-3.92,0-7.83,0.07-11.75-0.03c-5.66-0.14-9.5-3.99-9.72-9.61
				c-0.03-0.85-0.01-1.69-0.01-2.54c0-74.41,0-148.82,0-223.23c0-9.02,3.25-12.3,12.15-12.3c61.81,0,123.63,0,185.44,0
				c8.69,0,12,3.35,12.01,12.13c0,74.51,0,149.03,0,223.54c0,8.71-3.34,12.03-12.1,12.03c-10.58,0-21.17,0-31.75,0
				c-1.14,0-2.28,0-3.78,0c0-1.38,0-2.51,0-3.64c0-12.6-0.08-25.19,0.07-37.79c0.03-2.09,0.63-4.4,1.66-6.22
				c12.51-22.37,9.77-48.16-7.28-67.13c-24.88-27.68-70.71-23.76-90.21,7.93c-11.87,19.29-12.07,39.08-1.33,59.06
				c1.04,1.94,1.71,4.33,1.74,6.52c0.16,12.49,0.08,24.98,0.08,37.47C128.86,333.73,128.86,334.87,128.86,336.4z M166.89,145.85
				c17.99,0,35.99,0,53.98,0c0.74,0,1.48,0.01,2.22,0c6.24-0.07,10.49-3.88,10.54-9.44c0.05-5.67-4.26-9.55-10.69-9.61
				c-0.64-0.01-1.27,0-1.91,0c-36.09,0-72.19,0-108.28,0c-1.16,0-2.34-0.06-3.49,0.05c-4.05,0.4-6.94,2.45-8.36,6.3
				c-2.38,6.47,2.36,12.67,9.78,12.69C129.42,145.88,148.15,145.85,166.89,145.85z M166.97,183.96c9.74,0,19.48,0,29.21,0
				c9.31,0,18.63,0.08,27.94-0.05c5.47-0.07,9.51-4.26,9.51-9.48c0-5.22-4.04-9.26-9.51-9.51c-0.95-0.04-1.9-0.02-2.86-0.02
				c-36.2,0-72.4,0-108.6,0c-1.16,0-2.34-0.06-3.49,0.06c-3.92,0.4-6.75,2.4-8.21,6.07c-2.54,6.42,2.15,12.88,9.47,12.9
				C129.29,184,148.13,183.96,166.97,183.96z"/>
		</g>
		<g>
			<path class="st1" d="M290.97,298.18c0-12.78,0-25.23,0-38c9.22,0,18.29-0.03,27.36,0.02c3.12,0.02,5.9-0.75,8.01-3.11
				c2.62-2.93,3.37-6.36,1.82-10.02c-1.64-3.89-4.75-5.88-8.96-5.92c-8.15-0.07-16.3-0.02-24.45-0.03c-1.16,0-2.31,0-3.7,0
				c0-6.32,0-12.49,0-19.05c2.49,0,4.99,0,7.5,0c6.67,0,13.34,0.04,20-0.01c6.16-0.05,10.42-4.05,10.35-9.62
				c-0.06-5.45-4.26-9.36-10.25-9.4c-8.15-0.06-16.3-0.01-24.45-0.02c-1.03,0-2.06,0-3.23,0c0-6.41,0-12.51,0-18.91
				c1.01-0.05,2.03-0.14,3.04-0.14c8.15-0.01,16.3,0.03,24.45-0.02c6.2-0.03,10.45-3.96,10.44-9.53c-0.01-5.57-4.26-9.47-10.47-9.5
				c-9.08-0.04-18.16-0.01-27.43-0.01c0-6.34,0-12.44,0-18.82c0.69-0.07,1.48-0.22,2.28-0.22c5.61-0.02,11.22-0.01,16.83-0.01
				c14.22,0,18.73-2.27,18.79-9.45c0.06-7.29-4.51-9.6-18.95-9.6c-6.23,0-12.46,0-18.91,0c0-6.35,0-12.52,0-19.05
				c6.56,0,13.09,0,19.62,0c2.86,0,5.72,0.06,8.57-0.02c5.65-0.17,9.76-4.31,9.68-9.65c-0.08-5.21-4.14-9.28-9.65-9.34
				c-9.31-0.1-18.62-0.03-28.43-0.03c0-2.5,0-4.88,0-7.26c-0.01-8.34-3.43-11.8-11.69-11.81c-39.16,0-78.32,0-117.48,0
				c-1.26,0-2.51,0-3.98,0c0-3.94-0.37-7.74,0.1-11.44c0.54-4.26,4.29-7.21,8.62-7.56c1.16-0.09,2.33-0.05,3.49-0.05
				c61.6,0,123.2,0,184.8,0c9.17,0,12.37,3.21,12.37,12.4c0,74.62,0,149.24,0,223.86c0,6.11-2.27,9.69-7.02,11.02
				c-1,0.28-2.08,0.41-3.12,0.41c-21.38,0.02-42.76,0.02-64.14,0.01C292.24,298.28,291.73,298.22,290.97,298.18z"/>
		</g>
		<g>
			<path class="st1" d="M176.5,298.28c-20.99,0-38.14-17.18-38.1-38.18c0.04-20.99,17.26-38.1,38.25-38.02
				c20.86,0.08,37.9,17.15,37.94,38.02C214.64,281.09,197.49,298.28,176.5,298.28z M195.53,260.24c0.04-10.35-8.6-19.05-18.97-19.09
				c-10.35-0.04-19.05,8.6-19.09,18.97c-0.04,10.35,8.6,19.05,18.97,19.09C186.79,279.25,195.48,270.61,195.53,260.24z"/>
		</g>
	</g>
</g>
</svg>
