<?xml version="1.0" encoding="UTF-8"?>
<svg xmlns="http://www.w3.org/2000/svg" version="1.1" viewBox="0 0 48 48">
  <!-- Generator: Adobe Illustrator 28.7.1, SVG Export Plug-In . SVG Version: 1.2.0 Build 142)  -->
  <g>
    <g id="Glyph">
      <g>
        <path d="M24,11c-6.06543,0-11,4.93457-11,11s4.93457,11,11,11,11-4.93457,11-11-4.93457-11-11-11ZM31.20752,20.82812l-6.58643,6.58594c-.56641.56641-1.31982.87891-2.12109.87891s-1.55469-.3125-2.12158-.87891l-3.58545-3.58594c-1.16895-1.16992-1.16895-3.07227-.00049-4.24219,1.13525-1.13281,3.10986-1.13281,4.24316,0l1.46436,1.46387,4.46484-4.46387c1.13281-1.13281,3.10889-1.13281,4.24268,0,1.16846,1.16992,1.16846,3.07227,0,4.24219Z"/>
        <path d="M28.37939,18l-5.17236,5.1709c-.39062.39062-1.02344.39062-1.41406,0l-2.17187-2.17089c-.38707-.38689-1.02753-.38554-1.41407,0-.38916.38965-.38916,1.02441.00049,1.41406l3.58545,3.58594c.37793.37891,1.03662.37891,1.41406,0l6.58594-6.58594c.38916-.38965.38916-1.02441-.00049-1.41406-.37695-.37891-1.03613-.37891-1.41309,0Z"/>
        <path d="M40,10.83789c-2.75684,0-5-2.16992-5-4.83789,0-.55273-.44775-1-1-1H14c-.55225,0-1,.44727-1,1,0,2.66797-2.24316,4.83789-5,4.83789-.55225,0-1,.44727-1,1v14.59473c0,9.14746,15.92285,16.18848,16.60059,16.48438.12744.05566.26318.08301.39941.08301s.27197-.02734.39941-.08301c.67773-.2959,16.60059-7.33691,16.60059-16.48438v-14.59473c0-.55273-.44775-1-1-1ZM24,35c-7.16846,0-13-5.83203-13-13s5.83154-13,13-13,13,5.83203,13,13-5.83154,13-13,13Z"/>
      </g>
    </g>
  </g>
</svg>