<?xml version="1.0" encoding="UTF-8"?>
<svg xmlns="http://www.w3.org/2000/svg" version="1.1" viewBox="0 0 48 48">
  <!-- Generator: Adobe Illustrator 28.7.1, SVG Export Plug-In . SVG Version: 1.2.0 Build 142)  -->
  <g>
    <g id="Glyph">
      <g>
        <path d="M11.979,6.84302c.39062-.39062.39062-1.02344,0-1.41406s-1.02344-.39062-1.41406,0c-7.40771,7.4082-7.40771,19.46191,0,26.87012.19531.19531.45117.29297.70703.29297s.51172-.09766.70703-.29297c.39062-.39062.39062-1.02344,0-1.41406-6.62793-6.62842-6.62793-17.41357,0-24.04199Z"/>
        <path d="M14.80762,9.67163c.39062-.39062.39062-1.02344,0-1.41406s-1.02344-.39062-1.41406,0c-5.84863,5.84814-5.84863,15.36475,0,21.21289.19531.19531.45117.29297.70703.29297s.51172-.09766.70703-.29297c.39062-.39062.39062-1.02344,0-1.41406-5.06836-5.06885-5.06836-13.31592,0-18.38477Z"/>
        <path d="M16.22168,26.64233c.19531.19531.45117.29297.70703.29297s.51172-.09766.70703-.29297c.39062-.39014.39062-1.02344,0-1.41406-3.50879-3.50928-3.50879-9.21924,0-12.72852.39062-.39062.39062-1.02393,0-1.41406-.39062-.39062-1.02344-.39062-1.41406,0-4.28857,4.28906-4.28857,11.26758,0,15.55664Z"/>
        <path d="M37.43506,5.42896c-.39062-.39062-1.02344-.39062-1.41406,0s-.39062,1.02344,0,1.41406c6.62793,6.62842,6.62793,17.41357,0,24.04199-.39062.39062-.39062,1.02344,0,1.41406.19531.19531.45117.29297.70703.29297s.51172-.09766.70703-.29297c7.40771-7.4082,7.40771-19.46191,0-26.87012Z"/>
        <path d="M34.60645,8.25757c-.39062-.39062-1.02344-.39062-1.41406,0s-.39062,1.02344,0,1.41406c5.06836,5.06885,5.06836,13.31592,0,18.38477-.39062.39062-.39062,1.02344,0,1.41406.19531.19531.45117.29297.70703.29297s.51172-.09766.70703-.29297c5.84863-5.84814,5.84863-15.36475,0-21.21289Z"/>
        <path d="M30.36426,25.22827c-.39062.39062-.39062,1.02393,0,1.41406.19531.19531.45117.29297.70703.29297s.51172-.09766.70703-.29297c4.28857-4.28906,4.28857-11.26758,0-15.55664-.39062-.39062-1.02344-.39062-1.41406,0-.39062.39014-.39062,1.02344,0,1.41406,3.50879,3.50928,3.50879,9.21924,0,12.72852Z"/>
        <circle cx="24" cy="18.86401" r="1"/>
        <path d="M24,25.86401c3.85986,0,7-3.14014,7-7s-3.14014-7-7-7-7,3.14014-7,7,3.14014,7,7,7ZM24,15.86401c1.6543,0,3,1.3457,3,3s-1.3457,3-3,3-3-1.3457-3-3,1.3457-3,3-3Z"/>
        <path d="M21,27.34399v9.52002h6v-9.52002c-.94.34003-1.95001.52002-3,.52002s-2.06-.17999-3-.52002Z"/>
        <path d="M29,38.86401h-10c-1.65686,0-3,1.34314-3,3,0,.54999.45001,1,1,1h14c.54999,0,1-.45001,1-1,0-1.65686-1.34314-3-3-3Z"/>
      </g>
    </g>
  </g>
</svg>