<?xml version="1.0" encoding="utf-8"?>
<!-- Generator: Adobe Illustrator 28.3.0, SVG Export Plug-In . SVG Version: 6.00 Build 0)  -->
<svg version="1.1" id="Layer_1" xmlns="http://www.w3.org/2000/svg" xmlns:xlink="http://www.w3.org/1999/xlink" x="0px" y="0px"
	 viewBox="0 0 428.23 428.23" style="enable-background:new 0 0 428.23 428.23;" xml:space="preserve">
<style type="text/css">
	.st0{fill:#FF6B36;}
	.st1{fill:#FFFFFF;}
</style>
<g>
	<g>
		<polygon class="st0" points="0.49,-0.94 428.72,-0.94 428.72,373.76 375.19,427.29 0.49,427.29 		"/>
	</g>
	<g>
		<g>
			<path class="st1" d="M296.89,155.35c0.1,20.31-14.79,36.25-34.01,36.44c-19.01,0.18-35-15.66-35.14-34.83
				c-0.15-19.22,16.25-36.59,34.55-36.61C281.92,120.33,296.8,135.38,296.89,155.35z"/>
		</g>
		<g>
			<path class="st1" d="M51.26,329.26c0.1-18.94,16.22-34.43,35.7-34.33c19.04,0.1,34.95,16.42,34.61,35.5
				c-0.35,19.63-15.87,35.02-35.17,34.84C67.37,365.1,51.15,348.48,51.26,329.26z"/>
		</g>
		<g>
			<path class="st1" d="M51.47,242.39c0.04-18.91,16.01-34.45,35.43-34.51c19.71-0.05,34.94,15.4,34.98,35.5
				c0.04,18.95-15.56,34.23-34.81,34.12C67.23,277.37,51.43,261.8,51.47,242.39z"/>
		</g>
		<g>
			<path class="st1" d="M174.66,294.93c18.68,0.07,34.71,16.2,34.52,34.73c-0.21,19.73-15.38,35.2-34.68,35.36
				c-17.96,0.15-36.19-17.37-36.18-34.8C138.32,310.73,154.66,294.86,174.66,294.93z"/>
		</g>
		<g>
			<path class="st1" d="M261.37,294.93c18.7-0.07,34.93,15.66,35.25,34.17c0.34,19.47-15.67,35.9-35,35.93
				c-18.32,0.03-35.18-16.44-35.32-34.49C226.16,310.88,241.8,295,261.37,294.93z"/>
		</g>
		<g>
			<path class="st1" d="M121.08,156.53c-0.11,18.7-16.08,34.11-35.12,33.89c-19.35-0.23-34.55-15.81-34.48-35.35
				c0.07-18.38,16.03-34.95,33.71-34.98C105.32,120.05,121.19,136.17,121.08,156.53z"/>
		</g>
		<g>
			<path class="st1" d="M208.62,242.88c2.22,18.3-17.14,36.98-34.17,35.95c-19.77-1.19-34.77-15.31-34.75-35.09
				c0.02-18.82,16.06-35.4,34.05-35.2C194.23,208.78,208.69,223.01,208.62,242.88z"/>
		</g>
		<g>
			<path class="st1" d="M296.06,242.1c-0.03,19.71-16,36.98-34.7,35.9c-21.52-1.24-32.68-14.15-35.23-35.86
				c-1.64-14,17.44-35.23,35.32-34.18C281.5,209.15,296.09,222.48,296.06,242.1z"/>
		</g>
		<g>
			<path class="st1" d="M173.25,121.52c19.94,0.07,34.88,14.62,34.79,33.89c-0.09,18.63-16.19,35.02-34.42,35.02
				c-19.42,0-34.64-15.57-34.5-35.3C139.26,135.64,153.67,121.45,173.25,121.52z"/>
		</g>
		<g>
			<path class="st1" d="M313.41,77.8c7.99-13.73,23.83-19.68,39.47-15.22c15.19,4.33,25.8,19.68,25.02,36.21
				c-0.69,14.68-11.89,28.04-26.61,30.9C350.32,104.24,337.96,86.75,313.41,77.8z"/>
		</g>
		<g>
			<path class="st1" d="M351.01,217.01c0.01-18.96-7.85-33.56-21.96-44.02c5.75-7.53,11.24-14.9,17.01-22.05
				c0.86-1.06,3.1-1.69,4.56-1.48c13.99,1.95,26.93,17.73,27.31,33.04C378.34,199.11,367.34,213.74,351.01,217.01z"/>
		</g>
		<g>
			<path class="st1" d="M350.6,304.47c0.24-19.16-7.98-33.78-22.18-44.54c6.57-7.9,12.79-15.37,19.37-23.28
				c15.92,1.69,29.05,15.66,29.94,32.86C378.58,285.78,367.52,300.41,350.6,304.47z"/>
		</g>
		<g>
			<path class="st1" d="M274.54,103.4c10.22-10.34,24.39-13.41,37.12-8.39c11.95,4.71,21.84,18.41,22.17,30.72
				c0.4,14.81-6.22,26.06-19.51,32.03C314.41,130.09,299.82,113.07,274.54,103.4z"/>
		</g>
		<g>
			<path class="st1" d="M291.23,287.03c5.11-5.72,9.68-11.05,14.53-16.11c0.97-1.02,3.17-1.72,4.51-1.39
				c11.51,2.79,22.71,17.25,23.65,30.14c1.06,14.61-6.51,28.31-19.27,33.87C314.32,314.05,307.23,297.96,291.23,287.03z"/>
		</g>
		<g>
			<path class="st1" d="M291.19,199.62c6.72-4.96,12.98-9.57,21.23-15.65c10.98,3.57,21.04,16.02,21.41,31.13
				c0.35,14.31-7.04,26.29-19.7,31.13C314.87,226.55,306.78,211.23,291.19,199.62z"/>
		</g>
		<g>
			<path class="st1" d="M139.29,75.77c6.28-9.39,16.41-14.92,29.03-14.67c11.96,0.23,21.88,5.22,27.8,14.89
				c-10.1,7.49-19.65,14.59-28.42,21.1C159.23,90.74,149.73,83.61,139.29,75.77z"/>
		</g>
		<g>
			<path class="st1" d="M283.79,75.88c-10.29,7.5-19.74,14.39-28.35,20.66c-8.74-6.35-18.18-13.2-28.42-20.63
				c5.12-8.74,14.49-13.87,25.81-14.72C266.08,60.2,276.77,65.65,283.79,75.88z"/>
		</g>
		<g>
			<path class="st1" d="M187.85,103.75c12.61-16.06,41.61-13.66,51.07,3.91c-7,5.99-13.87,11.88-20.81,17.82
				c-4.06-3.83-8.47-8.87-13.75-12.71C199.31,109.09,193.36,106.68,187.85,103.75z"/>
		</g>
		<g>
			<path class="st1" d="M98.84,104.38c16.32-16.61,38.97-15.01,52.6,2.25c-6.98,6.13-13.95,12.25-21.31,18.71
				C122.71,115.58,112.67,107.78,98.84,104.38z"/>
		</g>
		<g>
			<path class="st1" d="M118.57,199.57c3.75-3.96,8.28-8.74,12.13-12.79c4.11,3.58,9.3,8.1,13.44,11.71
				c-4.99,4.62-9.81,9.08-14.25,13.18C126.8,208.36,122.2,203.44,118.57,199.57z"/>
		</g>
		<g>
			<path class="st1" d="M231.02,286.16c-5.14,4.98-10.01,9.69-15.03,14.56c-3.55-3.37-8.26-7.84-12.38-11.75
				c5.1-4.4,10.38-8.95,15.79-13.62C222.02,277.78,226.78,282.21,231.02,286.16z"/>
		</g>
		<g>
			<path class="st1" d="M130.38,274.57c3.75,3.51,8.68,8.12,12.55,11.74c-3.95,3.65-8.9,8.22-13.26,12.24
				c-3.16-3.24-7.88-8.08-11.37-11.66C122.42,282.7,127.15,277.87,130.38,274.57z"/>
		</g>
		<g>
			<path class="st1" d="M216.74,212.31c-3.66-2.68-8.68-6.36-13.22-9.69c5.53-4.73,10.85-9.27,16.16-13.81
				c-0.72-0.79-1.44-1.57-2.16-2.36c4.67,4.31,9.33,8.61,14.2,13.1C227.08,203.5,222.26,207.61,216.74,212.31z"/>
		</g>
	</g>
</g>
</svg>
