<?xml version="1.0" encoding="utf-8"?>
<!-- Generator: Adobe Illustrator 28.3.0, SVG Export Plug-In . SVG Version: 6.00 Build 0)  -->
<svg version="1.1" id="Layer_1" xmlns="http://www.w3.org/2000/svg" xmlns:xlink="http://www.w3.org/1999/xlink" x="0px" y="0px"
	 viewBox="0 0 428.23 428.23" style="enable-background:new 0 0 428.23 428.23;" xml:space="preserve">
<style type="text/css">
	.st0{fill:#FF6B36;}
	.st1{fill:#FFFFFF;}
</style>
<g>
	<g>
		<polygon class="st0" points="0.49,-0.94 428.72,-0.94 428.72,373.76 375.19,427.29 0.49,427.29 		"/>
	</g>
	<g>
		<g>
			<path class="st1" d="M72.36,370.14c0.41-0.56,0.74-1.19,1.23-1.67c19.06-19.08,38.13-38.15,57.2-57.21
				c0.35-0.35,0.75-0.67,1.66-1.47c0,3.61,0,6.7,0,9.79c0,1.53-0.05,3.07,0.02,4.6c0.23,5.26,4.18,9.17,9.2,9.15
				c5.02-0.01,9.05-3.93,9.13-9.2c0.12-7.97,0.04-15.93,0.04-23.9c0-1.1,0-2.21,0-3.48c6.12,0,12.01,0,18.39,0c0,0.88,0,1.85,0,2.81
				c0,7.66-0.01,15.32,0,22.98c0.01,6.54,3.57,10.74,9.11,10.79c5.64,0.05,9.27-4.21,9.27-10.93c0.01-8.47,0-16.93,0-25.61
				c6.12,0,12.08,0,18.39,0c0,5.71,0,11.39,0,17.08c0,3.27-0.05,6.54,0.01,9.81c0.11,5.67,4.05,9.74,9.31,9.67
				c5.13-0.07,9.01-4.08,9.05-9.6c0.07-8.88,0.02-17.77,0.02-26.91c6.05,0,12.01,0,18.26,0c0.04,0.88,0.13,1.86,0.13,2.84
				c0.01,7.87-0.02,15.73,0.02,23.6c0.03,5.96,3.85,10.09,9.2,10.08c5.36-0.01,9.14-4.13,9.17-10.11
				c0.04-8.76,0.01-17.53,0.01-26.47c6.12,0,12.01,0,18.39,0c0,0.88,0,1.84,0,2.81c0,7.76-0.02,15.53,0.01,23.29
				c0.02,6.28,3.65,10.43,9.11,10.49c5.55,0.05,9.26-4.18,9.28-10.62c0.02-8.57,0-17.14,0-25.92c6.12,0,12.08,0,18.39,0
				c0,5.7,0,11.39,0,17.07c0,3.27-0.05,6.54,0.01,9.81c0.1,5.67,4.05,9.74,9.3,9.67c5.13-0.07,9.01-4.08,9.05-9.6
				c0.07-8.88,0.02-17.77,0.02-26.97c0.94-0.07,1.81-0.18,2.68-0.18c7.25-0.01,14.52,0.23,21.75-0.09
				c5.71-0.25,9.91,1.51,12.36,6.82c0,20.03,0,40.06,0,60.09c-2.25,2.25-4.5,4.5-6.74,6.74
				C267.33,370.14,169.84,370.14,72.36,370.14z"/>
		</g>
		<g>
			<path class="st1" d="M131.09,221.76c0,6.28,0,12.16,0,18.39c-6.42,0-12.72,0-19.02,0c-2.76,0-5.52-0.06-8.28,0.02
				c-5.43,0.16-9.42,4.19-9.34,9.32c0.08,5.01,4.02,8.96,9.32,9.01c8.99,0.1,17.97,0.03,27.2,0.03c0,6.08,0,12.04,0,18.4
				c-2.56,0-5.17,0-7.79,0c-6.23,0-12.47-0.03-18.7,0.01c-5.95,0.04-10.07,3.89-10.04,9.25c0.04,5.35,4.16,9.08,10.16,9.13
				c4.25,0.03,8.5,0.01,12.51,0.01C97.3,315.17,77.5,334.97,57.77,354.7c-0.02-0.42-0.12-1.29-0.12-2.15
				c-0.01-95.12-0.01-190.24,0-285.36c0-7.56,3.45-10.97,11.1-10.97c17.16-0.01,34.33-0.01,51.49,0c7.56,0,10.97,3.45,10.98,11.1
				c0.01,8.45,0,16.91,0,25.69c-7.59,0-14.92,0-22.24,0c-1.84,0-3.68-0.06-5.52,0.03c-5.09,0.25-8.93,4.13-9.01,9.03
				c-0.08,5.02,3.82,9.19,9.04,9.28c8.48,0.14,16.96,0.05,25.44,0.05c0.61,0,1.21,0,2.05,0c0,6.09,0,12.05,0,18.39
				c-1.87,0-3.78,0-5.68,0c-6.85,0-13.69-0.02-20.54,0.01c-6.19,0.03-10.37,3.81-10.32,9.28c0.05,5.35,4.18,9.07,10.19,9.1
				c7.76,0.04,15.53,0.01,23.29,0.01c1,0,2,0,3.13,0c0,6.18,0,12.06,0,18.25c-0.96,0.05-1.94,0.13-2.92,0.13
				c-7.87,0.01-15.73-0.02-23.6,0.02c-5.97,0.03-10.1,3.84-10.09,9.19c0,5.35,4.13,9.15,10.1,9.18c8.77,0.04,17.53,0.01,26.48,0.01
				c0,6.12,0,12,0,18.39c-0.87,0-1.84,0-2.8,0c-7.46,0-14.92,0-22.38,0c-7.12,0-11.35,3.39-11.4,9.12
				c-0.05,5.81,4.26,9.27,11.55,9.27C114.27,221.76,122.53,221.76,131.09,221.76z"/>
		</g>
		<g>
			<path class="st1" d="M242.08,273.22c-1.11-0.49-2.04-0.86-2.92-1.3c-27.29-13.64-54.54-27.35-81.88-40.89
				c-5.02-2.49-7.13-6.06-7.11-11.64c0.12-35.35,0.06-70.71,0.06-106.06c0-0.99,0-1.97,0-3.33c1.28,0.55,2.2,0.9,3.09,1.33
				c28.79,13.81,57.58,27.64,86.38,41.43c1.56,0.75,2.56,1.42,2.56,3.5c-0.08,38.32-0.06,76.64-0.06,114.95
				C242.19,271.79,242.13,272.38,242.08,273.22z"/>
		</g>
		<g>
			<path class="st1" d="M260.59,273.28c0-1.31,0-2.3,0-3.29c0-37.6,0.02-75.21-0.06-112.81c0-2.35,0.61-3.56,2.8-4.61
				c28.55-13.6,57.05-27.32,85.57-41c1.07-0.52,2.18-0.96,3.52-1.54c0.05,1.22,0.13,2.1,0.13,2.98
				c0.01,35.66-0.03,71.32,0.04,106.98c0.01,5.07-2.01,8.48-6.55,10.74c-27.68,13.77-55.32,27.62-82.97,41.43
				C262.37,272.53,261.63,272.81,260.59,273.28z"/>
		</g>
		<g>
			<path class="st1" d="M159.91,93.87c10.15-4.26,20.01-8.4,29.86-12.54c18.43-7.74,36.89-15.41,55.26-23.29
				c4.35-1.87,8.2-1.92,12.59-0.06c27.31,11.62,54.7,23.04,82.06,34.53c0.94,0.39,1.85,0.83,3.11,1.4c-0.97,0.56-1.69,1.03-2.46,1.4
				c-28.51,13.69-56.99,27.41-85.58,40.93c-1.83,0.87-4.77,0.92-6.58,0.06c-28.68-13.56-57.25-27.34-85.85-41.07
				C161.6,94.89,160.92,94.45,159.91,93.87z"/>
		</g>
	</g>
</g>
</svg>
