<?xml version="1.0" encoding="utf-8"?>
<!-- Generator: Adobe Illustrator 28.3.0, SVG Export Plug-In . SVG Version: 6.00 Build 0)  -->
<svg version="1.1" id="Layer_1" xmlns="http://www.w3.org/2000/svg" xmlns:xlink="http://www.w3.org/1999/xlink" x="0px" y="0px"
	 viewBox="0 0 428.23 428.23" style="enable-background:new 0 0 428.23 428.23;" xml:space="preserve">
<style type="text/css">
	.st0{fill:#FF6B36;}
	.st1{fill:#FFFFFF;}
</style>
<g>
	<g>
		<polygon class="st0" points="0.49,-0.94 428.72,-0.94 428.72,373.76 375.19,427.29 0.49,427.29 		"/>
	</g>
	<g>
		<g>
			<path class="st1" d="M39.35,210.18c0.49-6.4,0.6-12.86,1.56-19.18c1.1-7.29,4.29-9.73,11.7-9.9c6.08-0.14,12.16-0.02,18.23-0.06
				c4.59-0.03,7.01-1.87,8.74-6.14c4.08-10.05,8.21-20.09,12.43-30.09c1.91-4.52,1.52-7.54-2.01-11.14
				c-4.09-4.17-8.28-8.26-12.36-12.44c-5.44-5.57-6.13-10.16-1.01-16.06c7.35-8.45,15.33-16.35,23.2-24.34
				c2.53-2.56,5.38-4.88,8.36-6.9c5.24-3.57,9.32-3.17,13.9,1.18c4.49,4.27,8.79,8.73,13.22,13.07c3.73,3.66,6.69,4,11.42,2
				c9.88-4.19,19.82-8.26,29.78-12.26c4.42-1.78,6.23-4.13,6.25-9c0.03-5.96-0.07-11.92,0.05-17.88
				c0.16-7.57,2.61-11.23,10.11-11.81c11.97-0.93,24.02-0.78,36.04-0.93c2.9-0.03,5.84,0.38,8.69,0.94c6.61,1.3,9.17,4.3,9.37,11.1
				c0.18,6.19,0.04,12.39,0.08,18.58c0.03,4.97,1.93,7.25,6.61,9.11c9.75,3.89,19.46,7.9,29.11,12.04c4.91,2.11,8,1.83,11.76-1.87
				c4-3.93,7.91-7.96,11.92-11.88c6.11-5.98,10.31-6.65,16.84-1.07c8.07,6.89,15.51,14.52,23.11,21.94c2.41,2.36,4.6,4.99,6.64,7.68
				c4.9,6.47,4.65,10.6-0.93,16.39c-4.05,4.21-8.25,8.28-12.34,12.45c-3.55,3.63-3.84,6.77-1.82,11.47
				c4.14,9.65,8.18,19.34,12.06,29.1c1.94,4.87,4.16,6.73,9.37,6.75c5.84,0.02,11.69-0.05,17.53,0.02
				c7.55,0.09,11.32,2.55,11.91,9.97c0.94,11.85,0.83,23.78,0.97,35.69c0.04,3.13-0.39,6.31-1,9.39c-1.29,6.47-4.24,8.99-10.87,9.19
				c-6.31,0.19-12.62,0.04-18.93,0.08c-4.62,0.04-6.99,1.84-8.75,6.13c-4.15,10.15-8.36,20.28-12.6,30.39
				c-1.72,4.11-1.27,7.29,1.91,10.57c4.16,4.27,8.45,8.41,12.61,12.69c5.41,5.55,6.32,10.08,1.16,15.73
				c-9.75,10.66-19.99,20.93-30.65,30.69c-5.79,5.3-10.26,4.37-15.99-1.22c-4.18-4.08-8.24-8.29-12.43-12.37
				c-3.51-3.42-6.66-3.71-11.18-1.78c-9.76,4.17-19.56,8.26-29.41,12.23c-4.93,1.99-6.59,4.09-6.61,9.45
				c-0.03,5.49,0.02,10.99-0.02,16.48c-0.07,8.93-3.01,12.72-11.88,13.2c-11.65,0.63-23.34,0.46-35.02,0.49
				c-2.67,0.01-5.37-0.37-7.99-0.9c-6.61-1.34-9.19-4.36-9.36-11.12c-0.16-6.19-0.03-12.39-0.06-18.58
				c-0.02-4.8-1.88-7.19-6.31-8.98c-9.95-4.02-19.88-8.11-29.75-12.31c-4.49-1.91-7.71-1.57-11.18,1.83
				c-4.43,4.33-8.71,8.82-13.2,13.08c-4.98,4.73-9.31,5.21-14.73,0.98c-11.74-9.17-22.22-19.68-31.42-31.39
				c-4.4-5.61-3.88-9.86,1.03-14.98c4.13-4.3,8.41-8.45,12.59-12.7c3.76-3.82,4.13-6.92,2.07-11.74
				c-4.17-9.76-8.22-19.58-12.18-29.43c-1.85-4.6-4.18-6.41-9.24-6.44c-5.49-0.03-10.99,0-16.48-0.03
				c-9.3-0.05-13.03-3.31-13.51-12.74c-0.38-7.45-0.08-14.94-0.08-22.41C40.04,210.2,39.7,210.19,39.35,210.18z M104.77,213.12
				c0.17,61.09,49.68,110.45,110.6,110.26c60.56-0.19,109.82-49.76,109.72-110.42c-0.1-60.84-49.79-110.07-110.94-109.9
				C154.14,103.22,104.61,153.06,104.77,213.12z"/>
		</g>
		<g>
			<path class="st1" d="M215.11,119.1c51.79-0.07,93.85,41.95,93.92,93.84c0.07,52.33-41.83,94.35-94.1,94.37
				c-51.92,0.01-94.1-41.97-94.11-93.66C120.82,161.02,162.55,119.17,215.11,119.1z M138.59,213.05
				c-0.18,41.71,34.06,76.25,75.83,76.49c42.01,0.23,76.69-33.99,76.84-75.83c0.15-42.11-34-76.71-75.82-76.84
				C173.2,136.73,138.78,170.86,138.59,213.05z"/>
		</g>
		<g>
			<path class="st1" d="M240.16,222.25c-9.58,0-19.16,0.02-28.74-0.01c-4.64-0.01-5.53-0.88-5.53-5.54
				c-0.02-19.27-0.06-38.55,0.01-57.82c0.03-7.92,6.65-12.67,13.03-9.44c3.94,1.99,5.07,5.53,5.06,9.65
				c-0.02,13.67,0.09,27.34-0.07,41c-0.04,3.2,0.91,4.18,4.14,4.15c13.78-0.16,27.57-0.1,41.35-0.04c5.85,0.02,9.72,3.18,10.16,8.04
				c0.53,5.8-3.45,9.91-9.97,9.98c-9.81,0.11-19.62,0.03-29.44,0.03C240.16,222.24,240.16,222.25,240.16,222.25z"/>
		</g>
		<g>
			<path class="st1" d="M219.35,278.07c0,1.51,0.12,3.04-0.03,4.53c-0.26,2.6-1.91,4.04-4.42,4.04c-2.33,0-4.14-1.33-4.29-3.76
				c-0.21-3.47-0.43-7.04,0.17-10.43c0.24-1.39,2.46-3.06,4.04-3.42c2.21-0.5,4.07,1.02,4.4,3.46c0.25,1.83,0.05,3.71,0.05,5.57
				C219.3,278.07,219.33,278.07,219.35,278.07z"/>
		</g>
		<g>
			<path class="st1" d="M150.33,217.64c-1.51,0-3.03,0.09-4.53-0.02c-2.77-0.2-4.34-1.86-4.29-4.53c0.04-2.5,1.56-4.16,4.18-4.27
				c3.02-0.14,6.05-0.13,9.07-0.04c2.75,0.08,4.42,1.65,4.45,4.37c0.03,2.72-1.58,4.3-4.34,4.48
				C153.36,217.72,151.84,217.64,150.33,217.64z"/>
		</g>
	</g>
</g>
</svg>
