<?xml version="1.0" encoding="UTF-8"?>
<svg xmlns="http://www.w3.org/2000/svg" version="1.1" viewBox="0 0 64 64">
  <!-- Generator: Adobe Illustrator 28.7.1, SVG Export Plug-In . SVG Version: 1.2.0 Build 142)  -->
  <g>
    <g id="Glyph">
      <g>
        <circle cx="14" cy="45" r="1"/>
        <path d="M14,38c-3.85999,0-7,3.14001-7,7s3.14001,7,7,7,7-3.14001,7-7-3.14001-7-7-7ZM14,48c-1.65002,0-3-1.35004-3-3s1.34998-3,3-3,3,1.34998,3,3-1.34998,3-3,3Z"/>
        <path d="M14,36c2.83002,0,5.34998,1.31,7,3.35999v-20.35999c0-3.85999-3.14001-7-7-7s-7,3.14001-7,7v20.35999c1.65002-2.04999,4.16998-3.35999,7-3.35999Z"/>
        <path d="M48,18h6c1.6543,0,3-1.3457,3-3s-1.3457-3-3-3h-6c-.55273,0-1,.44775-1,1v4c0,.55225.44727,1,1,1Z"/>
        <path d="M23,45.02997c-.00116.32794-.02368.65094-.05939.97003h34.05939v-20H23v19.02997Z"/>
        <path d="M23,20v4h34v-5c-.83002.63-1.87,1-3,1h-31Z"/>
        <path d="M19.64001,52h32.35999c2.41748,0,4.43536-1.71875,4.89911-4H22.48157c-.56323,1.58392-1.55658,2.96698-2.84155,4Z"/>
      </g>
    </g>
  </g>
</svg>