<?xml version="1.0" encoding="utf-8"?>
<!-- Generator: Adobe Illustrator 28.3.0, SVG Export Plug-In . SVG Version: 6.00 Build 0)  -->
<svg version="1.1" id="Layer_1" xmlns="http://www.w3.org/2000/svg" xmlns:xlink="http://www.w3.org/1999/xlink" x="0px" y="0px"
	 viewBox="0 0 428.23 428.23" style="enable-background:new 0 0 428.23 428.23;" xml:space="preserve">
<style type="text/css">
	.st0{fill:#FF6B36;}
	.st1{fill:none;}
	.st2{fill:#FFFFFF;}
</style>
<g>
	<g>
		<polygon class="st0" points="0.49,-0.94 428.72,-0.94 428.72,373.76 375.19,427.29 0.49,427.29 		"/>
	</g>
	<g>
		<path class="st1" d="M280.96,279.78c-17.93,0-35.35-0.97-52.04-2.69l-11.36,27.59l77.7-5.92l8.54-18.98h-3.34H280.96z"/>
	</g>
	<g>
		<g>
			<g>
				<path class="st2" d="M131.22,126.99H51.48c-6,0-10.85-4.86-10.85-10.85s4.86-10.85,10.85-10.85h58.03V47.24
					c0-5.99,4.86-10.85,10.85-10.85s10.85,4.86,10.85,10.85V126.99z"/>
			</g>
			<g>
				<path class="st2" d="M120.37,126.99c-2.78,0-5.56-1.06-7.67-3.18L46.19,57.3c-4.24-4.24-4.24-11.11,0-15.35
					c4.24-4.24,11.11-4.24,15.35,0l66.51,66.51c4.24,4.24,4.24,11.11,0,15.35C125.92,125.93,123.15,126.99,120.37,126.99z"/>
			</g>
		</g>
		<g>
			<g>
				<path class="st2" d="M377.75,126.99h-79.74V47.24c0-5.99,4.86-10.85,10.85-10.85s10.85,4.86,10.85,10.85v58.03h58.03
					c6,0,10.85,4.86,10.85,10.85S383.75,126.99,377.75,126.99z"/>
			</g>
			<g>
				<path class="st2" d="M308.87,126.99c-2.78,0-5.56-1.06-7.67-3.18c-4.24-4.24-4.24-11.11,0-15.35l66.51-66.51
					c4.24-4.24,11.11-4.24,15.35,0c4.24,4.24,4.24,11.11,0,15.35l-66.51,66.51C314.42,125.93,311.65,126.99,308.87,126.99z"/>
			</g>
		</g>
	</g>
	<g>
		<g>
			<g>
				<path class="st2" d="M308.87,386.37c-6,0-10.85-4.86-10.85-10.85v-79.74h79.74c6,0,10.85,4.86,10.85,10.85
					s-4.86,10.85-10.85,10.85h-58.03v58.03C319.72,381.51,314.86,386.37,308.87,386.37z"/>
			</g>
			<g>
				<path class="st2" d="M375.37,383.99c-2.78,0-5.56-1.06-7.67-3.18l-66.51-66.51c-4.24-4.24-4.24-11.11,0-15.35
					c4.24-4.24,11.11-4.24,15.35,0l66.51,66.51c4.24,4.24,4.24,11.11,0,15.35C380.93,382.93,378.15,383.99,375.37,383.99z"/>
			</g>
		</g>
		<g>
			<g>
				<path class="st2" d="M120.37,386.37c-6,0-10.85-4.86-10.85-10.85v-58.03H51.48c-6,0-10.85-4.86-10.85-10.85
					s4.86-10.85,10.85-10.85h79.74v79.74C131.22,381.51,126.36,386.37,120.37,386.37z"/>
			</g>
			<g>
				<path class="st2" d="M53.86,383.99c-2.78,0-5.56-1.06-7.67-3.18c-4.24-4.24-4.24-11.11,0-15.35l66.51-66.51
					c4.24-4.24,11.11-4.24,15.35,0c4.24,4.24,4.24,11.11,0,15.35l-66.51,66.51C59.42,382.93,56.64,383.99,53.86,383.99z"/>
			</g>
		</g>
	</g>
	<g>
		<path class="st2" d="M179.13,52.94c14.05,67.67,20.86,103.42-0.25,119.3c-10.01,7.53-31.23,2.61-57.06-6.76
			c18.88,12.92,30.16,25.37,26.04,32.27c-6.24,10.44-32.01,12.38-72.17,16.35c25.14,1.97,64.89,2.36,63.93,9.31
			c-1.23,8.9-46.53,22.08-80.51,34.39c60.17-13.87,98.07-11.83,106.68,3.79c5.92,10.74-8.49,51.94-14.93,72.02
			c7.74-12.93,29.88-35.05,43.79-26.42c15.41,9.56,15.96,38.02,24.53,83.78c3.45-37.01,8.01-86.6,18.66-91.23
			c7.51-3.27,16.7,36.92,25.62,60.9c-13.18-53.6-15.46-92.18,10.44-105.34c17.62-8.95,43.7-0.72,68.6,1.74
			c-15.8-6.34-42.22-13.2-40.16-18.32c2.85-7.1,36.95-10.84,63.19-15.29c-20.33-2.44-54.11-3.51-52.28-9.83
			c2.73-9.4,42.65-22.5,70.79-33.58c-61.02,10.29-93.96,18.22-111.11,1.58c-8.64-8.39-6.63-26.98,1.97-52.8
			c-12.76,20.11-22.6,34.27-33.17,27.71c-13.37-8.3-14.54-42.06-19.97-84.8c-1.88,25.72-1.46,64.26-7.4,62.74
			C206.42,132.44,192.68,87.44,179.13,52.94L179.13,52.94L179.13,52.94z M221.67,183.81c5.45-3,12.3-1.02,15.31,4.43
			c3,5.45,1.02,12.3-4.43,15.31c-5.45,3-12.3,1.02-15.31-4.43S216.22,186.82,221.67,183.81L221.67,183.81z M191.84,201.48
			c9.04-4.98,20.41-1.7,25.39,7.34c3.12,5.66,3,12.24,0.24,17.59c3.34,1.08,6.3,3.37,8.13,6.69c3.81,6.91,1.3,15.61-5.61,19.42
			c-6.91,3.81-15.61,1.3-19.42-5.61c-1.83-3.31-2.19-7.04-1.32-10.43c-6-0.52-11.63-3.93-14.76-9.6
			C179.51,217.83,182.8,206.46,191.84,201.48L191.84,201.48z M233.02,208.95c5.45-3,12.3-1.02,15.31,4.43
			c3,5.45,1.02,12.3-4.43,15.31s-12.31,1.02-15.31-4.43S227.56,211.95,233.02,208.95z"/>
	</g>
</g>
</svg>
