<?xml version="1.0" encoding="utf-8"?>
<!-- Generator: Adobe Illustrator 28.3.0, SVG Export Plug-In . SVG Version: 6.00 Build 0)  -->
<svg version="1.1" id="Layer_1" xmlns="http://www.w3.org/2000/svg" xmlns:xlink="http://www.w3.org/1999/xlink" x="0px" y="0px"
	 viewBox="0 0 428.23 428.23" style="enable-background:new 0 0 428.23 428.23;" xml:space="preserve">
<style type="text/css">
	.st0{fill:#FF6B36;}
	.st1{fill:#FFFFFF;}
</style>
<g>
	<g>
		<polygon class="st0" points="0.49,-0.94 428.72,-0.94 428.72,373.76 375.19,427.29 0.49,427.29 		"/>
	</g>
	<g>
		<g>
			<path class="st1" d="M305.29,353.3c0,7.59,0.06,14.9-0.09,22.21c-0.01,0.69-1.23,1.66-2.07,1.94c-1.03,0.35-2.26,0.11-3.4,0.11
				c-26.25,0.05-52.5,0.12-78.75,0.13c-23.95,0-47.91-0.13-71.86-0.06c-3.15,0.01-4.19-0.91-4.09-4.08
				c0.22-6.57,0.06-13.14,0.06-20.1c1.33-0.14,2.41-0.33,3.49-0.34c5.58-0.04,11.16-0.01,16.74-0.04
				c13.19-0.08,22.44-6.7,26.05-18.61c3.12-10.28-1.48-22.61-11.32-29.22c-3.64-2.44-7.93-3.91-11.76-6.12
				c-1.14-0.65-2.42-2.29-2.43-3.48c-0.15-21.43-0.06-42.86-0.16-64.29c-0.01-3.05,1.55-3.14,3.81-3.14
				c20.42,0.04,40.83,0.02,61.25,0.02c45.15,0,90.29,0,135.44,0.01c5.19,0,5.17,0.01,5.15,5.17c-0.02,5.32-0.16,10.66,0.05,15.97
				c0.12,2.93-1,3.8-3.79,4.3c-24.48,4.4-48.05,11.52-69.52,24.47c-12.93,7.8-24.51,17.16-32.88,29.98c-1.86,2.85-3.53,5.88-4.92,9
				c-7.52,16.87,3.89,35.12,22.46,35.87c5.95,0.24,11.92,0.05,17.88,0.08C302.01,353.1,303.37,353.21,305.29,353.3z"/>
		</g>
		<g>
			<path class="st1" d="M165.49,116.57c8.3,1.83,16.2,3.52,24.07,5.32c20.37,4.66,40.76,9.2,61.06,14.14
				c13.16,3.2,26.15,7.09,39.24,10.56c18.59,4.93,37.22,9.73,55.8,14.68c3.41,0.91,6.93,1.79,10.01,3.42
				c7.69,4.09,11.02,13.56,8,21.58c-3.19,8.48-12.04,13.53-20.77,11.28c-22.92-5.93-45.89-11.76-68.64-18.3
				c-37.11-10.67-74.08-21.84-111.07-32.91c-5.56-1.66-5.66-0.34-3.83-7.2C161.35,131.72,163.39,124.31,165.49,116.57z"/>
		</g>
		<g>
			<path class="st1" d="M163.33,91.9c-1.53,6.56-2.85,12.99-4.54,19.33c-6.04,22.75-12.19,45.48-18.32,68.21
				c-1.43,5.3-5.39,7.72-10.69,6.33c-10.16-2.65-20.31-5.37-30.44-8.18c-5.44-1.51-7.54-5.32-6.1-10.71
				c6.92-25.92,13.89-51.84,20.79-77.77c1.5-5.62,4.09-10.56,8.04-14.87c5.9-6.45,11.62-13.05,17.47-19.55
				c1.35-1.5,2.77-2.99,4.38-4.19c4.43-3.31,9.52-2.15,10.87,3.19C158,66.32,160.52,79.11,163.33,91.9z"/>
		</g>
		<g>
			<path class="st1" d="M157.56,295.76c-5.97-1.42-11.58-2.43-16.99-4.11c-14-4.35-28.06-8.59-41.8-13.66
				c-11.43-4.22-22.08-10.18-31.15-18.56c-4.22-3.89-7.82-8.25-9.84-14.42c1.57-0.17,2.86-0.42,4.15-0.42
				c30.66-0.02,61.32-0.01,91.99-0.03c2.29,0,4.21-0.11,4.18,3.22c-0.12,15.07-0.05,30.15-0.08,45.23
				C158.02,293.73,157.78,294.46,157.56,295.76z"/>
		</g>
	</g>
	<g>
		<rect x="148.83" y="217.41" class="st0" width="16" height="95.11"/>
	</g>
	<g>
		
			<rect x="119.92" y="125.28" transform="matrix(0.2561 -0.9667 0.9667 0.2561 -4.2479 261.0309)" class="st0" width="95.11" height="16"/>
	</g>
</g>
</svg>
