<?xml version="1.0" encoding="utf-8"?>
<!-- Generator: Adobe Illustrator 28.3.0, SVG Export Plug-In . SVG Version: 6.00 Build 0)  -->
<svg version="1.1" id="Layer_1" xmlns="http://www.w3.org/2000/svg" xmlns:xlink="http://www.w3.org/1999/xlink" x="0px" y="0px"
	 viewBox="0 0 428.23 428.23" style="enable-background:new 0 0 428.23 428.23;" xml:space="preserve">
<style type="text/css">
	.st0{fill:#FF6B36;}
	.st1{fill:#FFFFFF;}
</style>
<g>
	<g>
		<polygon class="st0" points="0,0 428.23,0 428.23,374.7 374.7,428.23 0,428.23 		"/>
	</g>
	<g>
		<g>
			<path class="st1" d="M198.3,56.15c5.71,2.27,7.63,6.49,7.62,12.58c-0.12,96.91-0.15,193.83,0.02,290.75
				c0.02,9.39-5.55,12.66-12.48,12.61c-31.34-0.23-62.69-0.1-94.04-0.1c-8.34,0-12-3.67-12-12.06
				c-0.01-97.22,0.02-194.45-0.05-291.67c0-5.97,2.21-10.07,7.91-12.1C129.62,56.15,163.96,56.15,198.3,56.15z M156.36,322.75
				c-16.55,0-32.74,0-48.94,0c0,9.98,0,19.66,0,29.29c26.33,0,52.39,0,78.42,0c0-92.13,0-184.06,0-275.95c-26.3,0-52.36,0-78.42,0
				c0,9.89,0,19.57,0,29.53c16.46,0,32.66,0,48.91,0c0,6.62,0,12.95,0,19.67c-16.41,0-32.68,0-49,0c0,10.01,0,19.62,0,29.62
				c9.87,0,19.57,0,29.24,0c0,6.71,0,13.05,0,19.77c-9.85,0-19.54,0-29.22,0c0,10.02,0,19.63,0,29.63c16.46,0,32.73,0,48.93,0
				c0,6.71,0,13.04,0,19.64c-16.39,0-32.58,0-48.91,0c0,9.98,0,19.67,0,29.64c9.83,0,19.46,0,29.15,0c0,6.67,0,13.07,0,19.75
				c-9.83,0-19.44,0-29.13,0c0,9.98,0,19.68,0,29.64c16.44,0,32.64,0,48.96,0C156.36,309.6,156.36,315.93,156.36,322.75z"/>
		</g>
		<g>
			<path class="st1" d="M287.12,56.15c2.42,1.84,5.08,3.43,7.22,5.55c14.76,14.61,29.4,29.33,44.09,44c0.8,0.8,1.68,1.51,2.23,2
				c-4.75,4.75-9.29,9.28-14.05,14.03c-10.16-10.16-20.72-20.74-31.73-31.75c0,82.9,0,165.14,0,247.67
				c10.69-10.81,21.24-21.48,31.62-31.97c5.17,5.13,9.67,9.6,14.35,14.24c-0.55,0.61-1.19,1.37-1.89,2.07
				c-15.11,15.13-30.22,30.25-45.34,45.37c-6.23,6.23-11.2,6.24-17.41,0.02c-15.19-15.19-30.38-30.38-45.58-45.56
				c-0.58-0.58-1.28-1.04-1.61-1.3c4.79-4.78,9.33-9.31,14.08-14.05c10.03,10.05,20.59,20.63,31.61,31.68c0-82.95,0-165.17,0-247.55
				c-10.65,10.73-21.17,21.34-31.53,31.79c-5.11-5.1-9.67-9.65-14.67-14.63c1.02-0.83,2.29-1.72,3.37-2.79
				c14.19-14.15,28.33-28.37,42.57-42.47c2.36-2.34,5.15-4.23,7.75-6.34C283.84,56.15,285.48,56.15,287.12,56.15z"/>
		</g>
	</g>
</g>
</svg>
