<?xml version="1.0" encoding="utf-8"?>
<!-- Generator: Adobe Illustrator 28.3.0, SVG Export Plug-In . SVG Version: 6.00 Build 0)  -->
<svg version="1.1" id="Layer_1" xmlns="http://www.w3.org/2000/svg" xmlns:xlink="http://www.w3.org/1999/xlink" x="0px" y="0px"
	 viewBox="0 0 428.23 428.23" style="enable-background:new 0 0 428.23 428.23;" xml:space="preserve">
<style type="text/css">
	.st0{fill:#FF6B36;}
	.st1{fill:#FFFFFF;}
</style>
<g>
	<g>
		<polygon class="st0" points="0.49,-0.94 428.72,-0.94 428.72,373.76 375.19,427.29 0.49,427.29 		"/>
	</g>
	<g>
		<g>
			<path class="st1" d="M196.04,374.2c-41.51,0-82.69,0-124.31,0c-0.11-1.77-0.28-3.3-0.28-4.83c-0.01-43.91,0.02-87.82-0.08-131.74
				c-0.01-3.22,1.18-5.22,3.51-7.27c4.76-4.2,8.81-9.29,13.86-13.05c5.78-4.3,9.06-10.68,14.42-15.29
				c5.62-4.84,10.58-10.44,15.83-15.7c5.4-5.41,10.81-10.81,16.21-16.21c5.41-5.4,10.81-10.8,16.22-16.2
				c5.29-5.29,10.59-10.58,15.88-15.87c5.41-5.4,10.84-10.77,16.21-16.21c3.89-3.94,7.67-7.98,12.52-11.39
				C196.04,198.15,196.04,285.86,196.04,374.2z M147.59,282.02c9.9,0,19.35,0,28.66,0c0-9.84,0-19.27,0-28.64
				c-9.79,0-19.09,0-28.66,0C147.59,263.03,147.59,272.35,147.59,282.02z M105.97,282.08c10,0,19.41,0,28.86,0
				c0-9.82,0-19.23,0-28.67c-9.83,0-19.25,0-28.86,0C105.97,263.1,105.97,272.41,105.97,282.08z M105.84,294.58
				c0,10.15,0,19.39,0,29.19c9.27,0,17.97,0.07,26.67-0.11c0.91-0.02,2.55-1.55,2.57-2.41c0.19-8.7,0.12-17.4,0.12-26.67
				C125.22,294.58,115.83,294.58,105.84,294.58z M147.34,294.62c0,9.27,0.06,17.66-0.04,26.05c-0.03,2.67,1.36,3.16,3.58,3.15
				c7.46-0.05,14.93-0.06,22.39,0c2.31,0.02,3.51-0.68,3.48-3.25c-0.1-7.62,0.06-15.24-0.15-22.86c-0.03-1.05-1.59-2.94-2.48-2.96
				C165.42,294.53,156.71,294.62,147.34,294.62z"/>
		</g>
		<g>
			<path class="st1" d="M222.6,120.92c34.35,1.7,61.26,15.75,78.51,44.97c19.05,32.27,18.51,65.45-1.6,97.08
				c-17.53,27.57-43.76,40.99-76.91,42.21C222.6,243.65,222.6,182.68,222.6,120.92z"/>
		</g>
		<g>
			<path class="st1" d="M196.44,51.46c0,12.39,0.09,24.3-0.11,36.2c-0.02,1.47-1.32,3.18-2.47,4.34
				c-43.41,43.45-86.86,86.86-130.34,130.24c-7.39,7.37-17.17,7.77-23.82,1.21c-6.53-6.45-6.19-16.57,1.03-23.79
				c47.59-47.59,95.21-95.15,142.83-142.72C186.89,53.6,190.6,51.09,196.44,51.46z"/>
		</g>
		<g>
			<path class="st1" d="M292.39,296.48c4.64-4.51,8.84-8.58,13.25-12.87c0.32,0.25,1.13,0.72,1.77,1.36
				c12.05,12,24.11,23.99,36.11,36.04c4.02,4.04,4.17,9.35,0.55,13.25c-3.46,3.74-9.39,4.1-13.28,0.3
				C317.96,322.02,305.3,309.31,292.39,296.48z"/>
		</g>
		<g>
			<path class="st1" d="M305.36,141.43c-3.66-3.47-7.99-7.56-12.38-11.71c12.47-12.53,25.25-25.55,38.26-38.33
				c3.56-3.5,9.46-3,12.49,0.31c3.57,3.9,3.32,9.69,0.09,12.76C330.65,116.98,317.6,129.63,305.36,141.43z"/>
		</g>
		<g>
			<path class="st1" d="M330.65,203.86c3.67,0,6.98,0,10.28,0c14.16,0,28.33-0.03,42.49,0.01c6.69,0.02,10.88,3.76,10.74,9.46
				c-0.13,5.52-4.19,9.02-10.7,9.03c-17.48,0.04-34.97,0.01-52.82,0.01C330.65,216.26,330.65,210.49,330.65,203.86z"/>
		</g>
		<g>
			<path class="st1" d="M222.68,321.52c2.82-0.14,5.47-0.28,8.51-0.43c0.21,1.46,0.52,2.65,0.52,3.84
				c0.03,16.38,0.07,32.75-0.01,49.13c-0.03,6.6-2.65,9.57-9.02,10.36C222.68,363.53,222.68,342.69,222.68,321.52z"/>
		</g>
		<g>
			<path class="st1" d="M222.63,41.94c5.47,0.48,8.76,2.87,8.83,7.69c0.26,18.24,0.1,36.48,0.1,55.08c-3.06,0-5.8,0-8.93,0
				C222.63,83.63,222.63,62.8,222.63,41.94z"/>
		</g>
		<g>
			<path class="st1" d="M320.46,259.43c1.36-3.35,2.53-6.23,3.98-9.81c8.02,3.4,15.94,6.49,23.55,10.24
				c1.33,0.65,2.4,4.64,1.64,5.98c-0.94,1.66-4.37,3.47-5.94,2.93C335.93,266.12,328.42,262.71,320.46,259.43z"/>
		</g>
		<g>
			<path class="st1" d="M320.4,166.87c7.78-3.23,14.91-6.28,22.11-9.13c3.16-1.25,6.13-0.79,7.44,2.81
				c1.18,3.24-0.29,5.55-3.36,6.83c-7.28,3.05-14.57,6.05-22.11,9.18C323.07,173.22,321.86,170.35,320.4,166.87z"/>
		</g>
		<g>
			<path class="st1" d="M258.91,315.19c3.48-1.46,6.34-2.66,9.78-4.11c3.22,7.89,6.45,15.4,9.33,23.04
				c1.06,2.82-0.01,5.48-3.05,6.55c-2.96,1.05-5.35-0.07-6.6-2.98C265.25,330.43,262.24,323.13,258.91,315.19z"/>
		</g>
		<g>
			<path class="st1" d="M268.64,115.2c-3.46-1.47-6.32-2.68-9.71-4.12c3.28-7.83,6.33-15.43,9.65-22.91
				c1.31-2.94,4.1-3.53,6.87-2.31c3.28,1.45,3.47,4.41,2.33,7.29C274.94,100.34,271.87,107.45,268.64,115.2z"/>
		</g>
	</g>
</g>
</svg>
