<?xml version="1.0" encoding="UTF-8"?>
<svg xmlns="http://www.w3.org/2000/svg" version="1.1" viewBox="0 0 48 48">
  <!-- Generator: Adobe Illustrator 28.7.1, SVG Export Plug-In . SVG Version: 1.2.0 Build 142)  -->
  <g>
    <g id="Glyph">
      <g>
        <path d="M27,5h-2v14.04382c.68341.05231,1.34985.16211,2,.31641V5Z"/>
        <path d="M23,5h-2v14.36023c.65015-.1543,1.31659-.2641,2-.31641V5Z"/>
        <path d="M39,5h-10v15.01001c1.15002.48999,2.22998,1.12,3.19,1.89996l5.56-6.25c.15997-.17999.25-.40997.25-.65997V7h1c.54999,0,1-.45001,1-1s-.45001-1-1-1ZM34,15c0,.54999-.45001,1-1,1s-1-.45001-1-1v-5c0-.54999.45001-1,1-1s1,.45001,1,1v5Z"/>
        <path d="M9,5c-.54999,0-1,.45001-1,1s.45001,1,1,1h1v8c0,.25.09003.47998.25.65997l5.56,6.25c.96002-.77997,2.03998-1.40997,3.19-1.89996V5h-10ZM17,15c0,.54999-.45001,1-1,1s-1-.45001-1-1v-5c0-.54999.45001-1,1-1s1,.45001,1,1v5Z"/>
        <path d="M25.41504,29.24805l-1.41504-2.93164-1.41504,2.93164c-.14551.30176-.43359.51074-.76562.55664l-3.22461.43848,2.35059,2.25098c.24218.23242.35254.57031.29297.90039l-.5791,3.2041,2.86719-1.54102c.29688-.1582.65039-.1582.94727,0l2.86719,1.54102-.5791-3.2041c-.05957-.33008.05078-.66797.29297-.90039l2.35059-2.25098-3.22461-.43848c-.33203-.0459-.62012-.25488-.76562-.55664Z"/>
        <path d="M24,21c-6.06573,0-11,4.9342-11,11s4.93427,11,11,11,11-4.93427,11-11-4.93427-11-11-11ZM31.30859,31.18945l-2.48242,2.37793.61132,3.38379c.11329.62988-.13769,1.25391-.65527,1.63086-.49701.362-1.19049.41968-1.75195.12012l-3.03027-1.62891-3.02832,1.62793c-.56445.30078-1.23633.25781-1.75391-.11914s-.76855-1.00098-.65528-1.62988l.61133-3.38477-2.48242-2.37695c-.46191-.44336-.62695-1.0957-.42871-1.7041.19727-.6084.71387-1.04004,1.34766-1.12793l3.40723-.46289,1.49414-3.09668c.27734-.57617.84766-.93457,1.48828-.93457.63965,0,1.20996.3584,1.48828.93457l1.49414,3.09668,3.40625.46289c.63477.08789,1.15137.51953,1.34863,1.12793.19824.6084.0332,1.26074-.42871,1.70312Z"/>
      </g>
    </g>
  </g>
</svg>