<?xml version="1.0" encoding="UTF-8"?>
<svg xmlns="http://www.w3.org/2000/svg" version="1.1" viewBox="0 0 48 48">
  <!-- Generator: Adobe Illustrator 28.7.1, SVG Export Plug-In . SVG Version: 1.2.0 Build 142)  -->
  <g>
    <g id="Glyph">
      <g>
        <path d="M19.37,36.76001c.17999.15997.40002.23999.63.23999s.45001-.08002.63-.23999c.38-.34003,6.83997-6.26001,10.33002-12.19-1.43579-.4129-2.75208-1.11066-3.8833-2.02814-1.64893,2.10101-4.20471,3.45813-7.07672,3.45813-4.96289,0-9-4.0376-9-9s4.03711-9,9-9c1.5116,0,2.935.3786,4.18689,1.03979.48059-.948,1.09052-1.82056,1.81311-2.58978-1.79999-.93005-3.84003-1.45001-6-1.45001-7.27002,0-13.17999,5.90997-13.17999,13.17999,0,7.08997,12.02997,18.10999,12.54999,18.58002Z"/>
        <path d="M20,10c-3.85938,0-7,3.14014-7,7s3.14062,7,7,7c2.31403,0,4.36353-1.13361,5.63873-2.86969-1.64093-1.92004-2.63873-4.40643-2.63873-7.13031,0-1.07251.15656-2.10748.4433-3.08728-1.01794-.57819-2.19147-.91272-3.4433-.91272Z"/>
        <path d="M29.29999,30.42999c-.95746,1.19977-1.93427,2.32184-2.85333,3.32568,1.92279.50214,3.06946,1.11737,3.51721,1.39276.29492.18164.47559.50439.47559.85156s-.18066.66992-.47559.85156c-.81934.50391-3.95898,2.14844-9.96387,2.14844s-9.14453-1.64453-9.96387-2.14844c-.29492-.18164-.47559-.50439-.47559-.85156s.18066-.66992.47559-.85156c.44806-.27557,1.5957-.89142,3.52063-1.39374-.92004-1.00433-1.89813-2.1264-2.85675-3.32471-3.51001,1.26001-5.70001,3.25-5.70001,5.57001,0,3.98999,6.45001,7,15,7s15-3.01001,15-7c0-2.32001-2.19-4.31-5.70001-5.57001Z"/>
        <path d="M13.01465,36c.85895.28851,2.01294.5799,3.46448.7738-.39386-.38489-.84064-.83063-1.3277-1.33081-.84436.16711-1.55823.36267-2.13678.55701Z"/>
        <path d="M26.98535,36c-.57764-.19403-1.2901-.38934-2.13269-.55627-.48608.49927-.93213.94446-1.32562,1.32922,1.44861-.19391,2.60059-.48486,3.45831-.77295Z"/>
        <circle cx="34" cy="14" r="2"/>
        <path d="M34,5c-4.96228,0-9,4.03723-9,9s4.03772,9,9,9,9-4.03729,9-9-4.03772-9-9-9ZM39,15h-1.14203c-.36359,1.3988-1.45898,2.49438-2.85797,2.85803v1.14197c0,.55225-.44727,1-1,1s-1-.44775-1-1v-1.14197c-1.39899-.36365-2.49438-1.45923-2.85797-2.85803h-1.14203c-.55273,0-1-.44775-1-1s.44727-1,1-1h1.14203c.36359-1.3988,1.45898-2.49438,2.85797-2.85803v-1.14197c0-.55225.44727-1,1-1s1,.44775,1,1v1.14197c1.39899.36365,2.49438,1.45923,2.85797,2.85803h1.14203c.55273,0,1,.44775,1,1s-.44727,1-1,1Z"/>
      </g>
    </g>
  </g>
</svg>