<?xml version="1.0" encoding="utf-8"?>
<!-- Generator: Adobe Illustrator 28.3.0, SVG Export Plug-In . SVG Version: 6.00 Build 0)  -->
<svg version="1.1" id="Layer_1" xmlns="http://www.w3.org/2000/svg" xmlns:xlink="http://www.w3.org/1999/xlink" x="0px" y="0px"
	 viewBox="0 0 428.23 428.23" style="enable-background:new 0 0 428.23 428.23;" xml:space="preserve">
<style type="text/css">
	.st0{fill:#FF6B36;}
	.st1{fill:#FFFFFF;}
</style>
<g>
	<g>
		<g>
			<polygon class="st0" points="0.49,-0.94 428.72,-0.94 428.72,373.76 375.19,427.29 0.49,427.29 			"/>
		</g>
	</g>
	<g>
		<g>
			<path class="st1" d="M58.42,247.26c6.26,3.56,11.97,6.81,17.68,10.07c16.52,9.43,33.05,18.84,49.51,28.36
				c1.09,0.63,2.41,2.11,2.42,3.21c0.14,25.65,0.11,51.31,0.11,77.46c-1.15-0.54-2.04-0.88-2.87-1.35
				c-21.45-12.24-42.91-24.48-64.31-36.81c-1.09-0.63-2.42-2.11-2.43-3.19C58.39,299.35,58.42,273.7,58.42,247.26z"/>
			<path class="st0" d="M129.14,367.93l-1.42-0.67c-0.38-0.18-0.74-0.34-1.07-0.48c-0.69-0.31-1.28-0.57-1.87-0.9l-4.67-2.66
				c-19.57-11.17-39.8-22.71-59.65-34.15c-1.21-0.7-2.92-2.42-2.93-4.06c-0.12-21.7-0.11-43.02-0.11-65.58l0-13.88l7.22,4.11
				c4.1,2.33,8.03,4.57,11.96,6.81l7.67,4.38c13.73,7.83,27.93,15.94,41.85,23.98c1.17,0.68,2.91,2.44,2.92,4.07
				c0.12,21.69,0.11,42.91,0.11,65.37L129.14,367.93z M59.42,248.98l0,10.44c0,22.56-0.01,43.87,0.11,65.57
				c0,0.54,0.91,1.75,1.93,2.33c19.85,11.44,40.08,22.98,59.64,34.15l4.67,2.66c0.42,0.24,0.87,0.45,1.37,0.67l0-10.55
				c0-22.46,0.01-43.68-0.11-65.36c0-0.55-0.91-1.76-1.92-2.35c-13.92-8.04-28.11-16.14-41.84-23.98l-7.67-4.38
				c-3.92-2.24-7.85-4.47-11.96-6.81L59.42,248.98z"/>
		</g>
		<g>
			<path class="st1" d="M220.33,247.55c1.14,0.56,2.07,0.96,2.94,1.46c21.35,12.19,42.69,24.39,64.05,36.56
				c1.59,0.9,2.64,1.72,2.63,3.92c-0.1,24.96-0.07,49.92-0.07,74.88c0,0.55-0.07,1.1-0.14,2c-1.24-0.64-2.26-1.11-3.23-1.66
				c-21.24-12.14-42.47-24.3-63.73-36.42c-1.57-0.89-2.7-1.65-2.69-3.88c0.11-24.96,0.07-49.92,0.07-74.88
				C220.18,248.97,220.26,248.42,220.33,247.55z"/>
			<path class="st0" d="M290.63,367.94l-1.34-0.69c-0.41-0.21-0.79-0.4-1.16-0.58c-0.74-0.37-1.44-0.71-2.11-1.1l-21.55-12.32
				c-14.06-8.04-28.11-16.08-42.18-24.1c-1.43-0.82-3.21-1.83-3.19-4.76c0.08-19.04,0.08-38.4,0.07-57.12l0-17.75
				c0-0.39,0.04-0.78,0.08-1.26c0.02-0.23,0.05-0.49,0.07-0.78l0.12-1.47l1.32,0.65c0.38,0.19,0.73,0.35,1.07,0.52
				c0.67,0.32,1.31,0.62,1.92,0.97l22.08,12.61c13.99,7.99,27.98,15.98,41.97,23.95c1.66,0.95,3.15,2.03,3.14,4.8
				c-0.08,19.05-0.08,38.41-0.07,57.14l0,17.73c0,0.38-0.03,0.77-0.08,1.25c-0.02,0.24-0.04,0.51-0.07,0.81L290.63,367.94z
				 M221.19,249.07c-0.01,0.15-0.02,0.3-0.02,0.44l0,17.75c0,18.72,0.01,38.08-0.07,57.13c-0.01,1.68,0.7,2.17,2.18,3.01
				c14.06,8.02,28.12,16.06,42.18,24.1l21.55,12.32c0.58,0.33,1.17,0.63,1.85,0.97c0.01-0.15,0.02-0.29,0.02-0.44l0-17.73
				c0-18.73-0.01-38.1,0.07-57.15c0.01-1.66-0.64-2.2-2.13-3.05c-14-7.97-27.99-15.96-41.97-23.95l-22.08-12.61
				C222.29,249.6,221.77,249.35,221.19,249.07z"/>
		</g>
		<g>
			<path class="st1" d="M289.89,108.82c0,9.4,0,18.33,0,27.27c0,16.37,0.04,32.74-0.08,49.11c-0.01,1.35-0.77,3.33-1.81,3.93
				c-22.08,12.78-44.25,25.41-66.41,38.05c-0.28,0.16-0.62,0.23-1.28,0.47c-0.05-1.13-0.14-2.1-0.14-3.07
				c-0.01-24.38,0-48.76-0.02-73.14c0-1.81,0.13-3.14,2.06-4.24c22-12.45,43.94-25.02,65.89-37.56
				C288.49,109.42,288.91,109.26,289.89,108.82z"/>
			<path class="st0" d="M219.38,229.05l-0.06-1.35c-0.02-0.37-0.04-0.72-0.06-1.06c-0.04-0.72-0.08-1.39-0.08-2.06l0-22.7
				c0-16.81,0-33.63-0.02-50.44c0-2,0.19-3.76,2.57-5.11c16.79-9.5,33.83-19.24,50.3-28.65l15.58-8.9c0.27-0.15,0.55-0.28,1-0.47
				c0.23-0.1,0.52-0.22,0.88-0.39l1.41-0.64l0,38.96c0.01,12.77,0.01,25.98-0.08,38.97c-0.01,1.67-0.9,3.97-2.3,4.79
				c-19.19,11.11-38.77,22.28-57.7,33.08l-8.71,4.97c-0.27,0.15-0.53,0.24-0.86,0.35c-0.16,0.05-0.35,0.11-0.58,0.2L219.38,229.05z
				 M288.89,110.36c-0.11,0.05-0.2,0.1-0.29,0.15l-15.58,8.9c-16.48,9.42-33.51,19.15-50.31,28.66c-1.42,0.8-1.55,1.6-1.55,3.36
				c0.02,16.81,0.02,33.63,0.02,50.44l0,22.7c0,0.54,0.03,1.09,0.06,1.66l8.58-4.9c18.93-10.8,38.51-21.97,57.69-33.08
				c0.63-0.36,1.3-1.94,1.31-3.07c0.1-12.98,0.09-26.19,0.08-38.96L288.89,110.36z"/>
		</g>
		<g>
			<path class="st1" d="M145.21,98.9c1.33-0.8,2.38-1.47,3.46-2.09c20.96-11.96,41.95-23.88,62.85-35.95
				c2.36-1.36,3.98-1.25,6.27,0.07c21.01,12.11,42.09,24.09,63.15,36.12c0.89,0.51,1.74,1.08,2.97,1.83
				c-1.05,0.71-1.82,1.31-2.66,1.79c-21.35,12.21-42.72,24.4-64.06,36.64c-1.6,0.92-2.86,1.39-4.74,0.31
				c-21.81-12.57-43.69-25.04-65.54-37.54C146.45,99.8,146.01,99.45,145.21,98.9z"/>
			<path class="st0" d="M214.52,139.24c-0.77,0-1.61-0.21-2.55-0.76c-16.48-9.5-33.27-19.1-49.51-28.38l-16.03-9.17
				c-0.33-0.19-0.65-0.41-1.06-0.71c-0.21-0.15-0.44-0.32-0.72-0.51l-1.27-0.88l2.57-1.56c0.79-0.49,1.51-0.93,2.24-1.34
				c5.24-2.99,10.49-5.98,15.73-8.97c15.46-8.81,31.45-17.92,47.12-26.97c2.6-1.5,4.57-1.49,7.27,0.07
				c15.73,9.07,31.77,18.22,47.28,27.06l15.87,9.05c0.6,0.34,1.18,0.71,1.87,1.14c0.34,0.22,0.72,0.45,1.13,0.71l1.31,0.81
				l-1.28,0.87c-0.35,0.24-0.67,0.46-0.96,0.67c-0.62,0.44-1.16,0.82-1.76,1.16l-21.34,12.2c-14.24,8.14-28.49,16.28-42.72,24.44
				C216.7,138.75,215.69,139.24,214.52,139.24z M147.03,98.96c0.13,0.09,0.26,0.17,0.39,0.25l16.03,9.17
				c16.24,9.28,33.03,18.88,49.51,28.38c1.36,0.78,2.16,0.6,3.74-0.31c14.23-8.16,28.48-16.3,42.72-24.44l21.34-12.2
				c0.44-0.25,0.86-0.54,1.34-0.88c-0.6-0.38-1.12-0.7-1.65-1.01l-15.87-9.05c-15.51-8.85-31.56-17.99-47.29-27.07
				c-2.07-1.19-3.3-1.21-5.27-0.07c-15.67,9.05-31.66,18.17-47.13,26.98c-5.25,2.99-10.49,5.98-15.73,8.97
				C148.47,98.08,147.79,98.5,147.03,98.96z"/>
		</g>
		<g>
			<path class="st1" d="M139.58,108.77c7.14,4.06,13.98,7.94,20.8,11.83c15.41,8.8,30.83,17.57,46.18,26.46
				c1.08,0.63,2.34,2.13,2.35,3.24c0.13,25.65,0.1,51.3,0.1,77.41c-1.15-0.54-2.06-0.9-2.9-1.38
				c-21.44-12.26-42.89-24.5-64.27-36.86c-1.15-0.66-2.43-2.33-2.44-3.53c-0.13-25.31-0.09-50.61-0.08-75.92
				C139.32,109.8,139.41,109.57,139.58,108.77z"/>
			<path class="st0" d="M210.01,229.29l-1.43-0.68c-0.38-0.18-0.74-0.34-1.07-0.49c-0.7-0.31-1.3-0.58-1.89-0.92l-6.18-3.53
				c-19.06-10.89-38.77-22.16-58.1-33.33c-1.41-0.82-2.93-2.78-2.94-4.39c-0.12-21.89-0.1-44.14-0.09-65.66l0.01-10.27
				c0-0.26,0.05-0.46,0.13-0.78c0.04-0.17,0.09-0.38,0.16-0.69l0.29-1.33l7.96,4.52c4.74,2.69,9.39,5.33,14.03,7.98l6.7,3.82
				c12.96,7.39,26.35,15.04,39.48,22.64c1.36,0.79,2.84,2.58,2.85,4.1c0.11,21.61,0.11,42.73,0.1,65.09L210.01,229.29z
				 M140.32,110.34l0,9.95c-0.01,21.52-0.03,43.76,0.09,65.64c0,0.75,1,2.13,1.94,2.67c19.33,11.17,39.03,22.43,58.09,33.33
				l6.18,3.53c0.43,0.24,0.89,0.46,1.4,0.69l0-10.77c0-22.36,0.01-43.48-0.1-65.08c0-0.62-0.97-1.87-1.85-2.38
				c-13.12-7.6-26.52-15.24-39.47-22.64l-6.7-3.82c-4.64-2.65-9.28-5.29-14.02-7.98L140.32,110.34z"/>
		</g>
		<g>
			<path class="st1" d="M225.99,237.62c8.05-4.62,15.57-8.94,23.1-13.25c14.59-8.35,29.19-16.69,43.77-25.07
				c1.56-0.9,2.8-1.45,4.71-0.35c21.7,12.51,43.47,24.9,65.22,37.33c0.58,0.33,1.11,0.74,2.09,1.41c-3.24,1.86-6.11,3.52-8.98,5.16
				c-19.12,10.95-38.27,21.85-57.33,32.91c-2.35,1.37-4.01,1.22-6.26-0.08c-20.7-11.93-41.46-23.74-62.21-35.59
				C228.91,239.4,227.73,238.66,225.99,237.62z"/>
			<path class="st0" d="M295.56,277.72c-1.18,0-2.38-0.39-3.74-1.17c-15.46-8.91-31.22-17.9-46.46-26.6l-15.75-8.99
				c-0.8-0.46-1.59-0.94-2.54-1.51l-3.06-1.84l8.71-5c5.41-3.1,10.63-6.1,15.87-9.1l13.27-7.59c10.17-5.82,20.34-11.64,30.51-17.48
				c1.73-0.99,3.35-1.71,5.71-0.35c16.34,9.42,32.99,18.92,49.09,28.12l16.13,9.21c0.41,0.24,0.79,0.5,1.27,0.84
				c0.25,0.18,0.54,0.38,0.88,0.61l1.32,0.9l-4.3,2.47c-2.1,1.21-4.08,2.35-6.07,3.49c-4.59,2.63-9.19,5.26-13.78,7.88
				c-14.29,8.17-29.06,16.62-43.54,25.02C297.83,277.35,296.7,277.72,295.56,277.72z M227.96,237.64l0.15,0.09
				c0.93,0.57,1.71,1.04,2.5,1.49l15.75,8.99c15.24,8.7,31,17.69,46.46,26.6c2.05,1.18,3.33,1.2,5.26,0.08
				c14.48-8.4,29.26-16.85,43.55-25.03c4.59-2.63,9.19-5.25,13.78-7.88c1.98-1.13,3.96-2.27,6.06-3.48l1.55-0.89
				c-0.26-0.18-0.48-0.33-0.72-0.46l-16.13-9.21c-16.1-9.19-32.76-18.7-49.1-28.12c-1.4-0.81-2.21-0.51-3.72,0.35
				c-10.16,5.84-20.33,11.66-30.51,17.48l-13.27,7.59c-5.23,3-10.46,6-15.87,9.1L227.96,237.64z"/>
		</g>
		<g>
			<path class="st1" d="M209.01,247.56c0,1.27,0,2.17,0,3.08c0,24.38-0.01,48.76,0.02,73.15c0,1.8-0.09,3.2-2.02,4.3
				c-22.1,12.51-44.14,25.13-66.2,37.71c-0.29,0.17-0.62,0.26-1.25,0.51c-0.1-0.96-0.26-1.8-0.26-2.64
				c-0.01-24.61-0.04-49.23,0.08-73.84c0.01-1.29,0.92-3.17,1.98-3.78c21.98-12.72,44.05-25.29,66.11-37.88
				C207.76,247.99,208.1,247.91,209.01,247.56z"/>
			<path class="st0" d="M138.7,367.73l-0.13-1.33c-0.03-0.3-0.07-0.6-0.1-0.88c-0.08-0.63-0.16-1.23-0.16-1.86l0-7.2
				c-0.01-21.84-0.03-44.43,0.08-66.64c0.01-1.52,1.03-3.8,2.48-4.64c19.14-11.07,38.66-22.21,57.54-32.99l8.57-4.89
				c0.26-0.15,0.51-0.24,0.88-0.37c0.21-0.07,0.46-0.16,0.8-0.29l1.35-0.51l0,19.49c0,19.39,0,38.79,0.02,58.18
				c0,1.66,0,3.73-2.53,5.17c-16.78,9.5-33.81,19.22-50.28,28.62l-15.92,9.09c-0.25,0.15-0.5,0.24-0.82,0.36
				c-0.16,0.06-0.34,0.12-0.55,0.21L138.7,367.73z M208.01,249c-0.02,0.01-0.04,0.02-0.05,0.03l-8.57,4.89
				c-18.88,10.78-38.4,21.92-57.53,32.99c-0.7,0.41-1.48,1.94-1.48,2.92c-0.1,22.21-0.09,44.79-0.08,66.63l0,7.2
				c0,0.39,0.04,0.79,0.09,1.22l15.84-9.04c16.47-9.4,33.5-19.12,50.28-28.62c1.38-0.78,1.51-1.6,1.51-3.42
				c-0.02-19.4-0.02-38.79-0.02-58.19L208.01,249z"/>
		</g>
		<g>
			<path class="st1" d="M301.05,366.46c0-9.27,0-18.08,0-26.89c0-16.49,0.01-32.97-0.02-49.46c0-1.8,0.1-3.15,2.04-4.25
				c22.1-12.51,44.13-25.14,66.19-37.73c0.29-0.16,0.63-0.23,1.27-0.46c0.09,0.97,0.23,1.81,0.23,2.66c0.01,24.5,0,48.99,0.03,73.49
				c0,1.84-0.21,3.17-2.1,4.25c-21.99,12.47-43.92,25.05-65.87,37.59C302.43,365.88,302,366.03,301.05,366.46z"/>
			<path class="st0" d="M300.04,368.01l0-39.71c0-12.72,0-25.45-0.02-38.17c0-1.64-0.01-3.68,2.55-5.13
				c16.65-9.42,33.54-19.07,49.87-28.41l16.31-9.32c0.27-0.16,0.55-0.25,0.87-0.35c0.16-0.05,0.34-0.11,0.56-0.19l1.22-0.43
				l0.11,1.29c0.03,0.31,0.06,0.6,0.09,0.89c0.07,0.63,0.14,1.23,0.14,1.85l0.01,25.82c0,15.89,0,31.78,0.03,47.67
				c0,1.92-0.19,3.75-2.61,5.12c-16.67,9.45-33.58,19.12-49.93,28.48l-15.93,9.11c-0.27,0.15-0.56,0.28-1,0.47
				c-0.23,0.1-0.51,0.22-0.86,0.38L300.04,368.01z M369.67,249.05l-16.23,9.27c-16.33,9.33-33.22,18.99-49.88,28.41
				c-1.4,0.79-1.54,1.6-1.54,3.38c0.02,12.73,0.02,25.45,0.02,38.18l0,36.64c0.1-0.05,0.19-0.09,0.28-0.14l15.93-9.11
				c16.36-9.35,33.27-19.03,49.94-28.48c1.44-0.82,1.6-1.7,1.59-3.38c-0.02-15.89-0.02-31.78-0.03-47.67l-0.01-25.82
				C369.76,249.93,369.72,249.5,369.67,249.05z"/>
		</g>
		<g>
			<path class="st1" d="M203.12,237.68c-3.35,1.94-6.32,3.67-9.3,5.37c-19.02,10.89-38.06,21.74-57.03,32.71
				c-2.14,1.24-3.72,1.38-5.95,0.08c-21.18-12.25-42.44-24.36-63.67-36.51c-0.8-0.46-1.58-0.96-2.72-1.65
				c1.03-0.68,1.83-1.28,2.69-1.77c21.34-12.21,42.69-24.4,64.01-36.63c1.58-0.91,2.83-1.39,4.71-0.3
				c21.6,12.45,43.27,24.78,64.91,37.15C201.46,236.52,202.08,236.99,203.12,237.68z"/>
			<path class="st0" d="M133.71,277.75c-1.09,0-2.17-0.35-3.37-1.04c-16.11-9.31-32.53-18.71-48.42-27.79l-15.25-8.72
				c-0.53-0.31-1.06-0.63-1.68-1.01l-2.41-1.47l1.31-0.87c0.34-0.23,0.66-0.44,0.96-0.65c0.61-0.42,1.18-0.81,1.79-1.16l22.02-12.59
				c14-8.01,28-16.01,41.99-24.04c1.64-0.94,3.32-1.68,5.71-0.3c16.22,9.35,32.76,18.79,48.75,27.92l16.17,9.23
				c0.48,0.27,0.91,0.57,1.46,0.94c0.28,0.19,0.59,0.4,0.95,0.64l1.35,0.89l-4.53,2.62c-2.13,1.24-4.15,2.4-6.17,3.56l-14.42,8.25
				c-13.98,8-28.44,16.26-42.62,24.46C135.99,277.38,134.85,277.75,133.71,277.75z M66.29,237.64c0.5,0.31,0.93,0.57,1.38,0.83
				l15.25,8.72c15.89,9.08,32.31,18.47,48.43,27.79c1.81,1.05,3.02,1.03,4.95-0.08c14.18-8.2,28.64-16.47,42.62-24.46l14.41-8.25
				c2.02-1.16,4.03-2.32,6.16-3.56l1.75-1.02c-0.34-0.23-0.65-0.43-0.96-0.61l-16.17-9.23c-15.99-9.13-32.53-18.57-48.75-27.92
				c-1.44-0.83-2.27-0.53-3.72,0.3c-13.99,8.02-27.99,16.03-42,24.04l-22.02,12.59C67.19,237.03,66.76,237.32,66.29,237.64z"/>
		</g>
	</g>
</g>
</svg>
