<?xml version="1.0" encoding="utf-8"?>
<!-- Generator: Adobe Illustrator 28.3.0, SVG Export Plug-In . SVG Version: 6.00 Build 0)  -->
<svg version="1.1" id="Layer_1" xmlns="http://www.w3.org/2000/svg" xmlns:xlink="http://www.w3.org/1999/xlink" x="0px" y="0px"
	 viewBox="0 0 428.23 428.23" style="enable-background:new 0 0 428.23 428.23;" xml:space="preserve">
<style type="text/css">
	.st0{fill:#FF6B36;}
	.st1{fill:#FFFFFF;}
</style>
<g>
	<g>
		<polygon class="st0" points="0.49,-0.94 428.72,-0.94 428.72,373.76 375.19,427.29 0.49,427.29 		"/>
	</g>
	<g>
		<g>
			<path class="st1" d="M142.94,238.04c-2.84,0-5.21-0.03-7.57,0.01c-20.56,0.35-41.13,0.71-61.69,1.07c-0.24,0-0.54,0.09-0.71-0.01
				c-1.48-0.9-3.65-1.53-4.23-2.84c-0.94-2.14,0.92-3.36,2.95-4.06c9.31-3.2,18.6-6.46,27.9-9.67c10.1-3.48,20.21-6.93,30.31-10.41
				c0.99-0.34,1.94-0.81,3.32-1.39c-8.44-7.33-16.59-14.42-24.76-21.5c-13.27-11.51-26.54-23-39.8-34.51
				c-0.27-0.24-0.54-0.48-0.81-0.71c-1.55-1.35-2.76-2.87-1.48-4.98c1.25-2.06,3.06-1.83,5.06-1.07
				c11.35,4.28,22.71,8.49,34.08,12.72c13.15,4.9,26.29,9.79,40.08,14.92c-0.97-4.11-1.78-7.7-2.68-11.26
				c-2.99-11.87-6.04-23.73-8.98-35.62c-0.58-2.33-2.01-5.19,1.37-6.54c3.06-1.23,4.19,1.45,5.49,3.43
				c9.05,13.76,18.09,27.53,27.13,41.29c0.92,1.39,1.85,2.78,3.06,4.59c1.41-2.07,2.62-3.79,3.79-5.55
				c6.32-9.52,12.62-19.04,18.93-28.56c1.22-1.83,2.43-3.86,5.15-2.49c2.64,1.32,1.93,3.53,1.28,5.64
				c-5.51,17.89-11.03,35.78-16.54,53.68c-0.24,0.78-0.42,1.58-0.82,3.14c1.49-1.08,2.42-1.7,3.28-2.4
				c21.25-17.32,42.52-34.64,63.7-52.04c1.12-0.92,2.25-2.65,2.26-4.01c0.14-19,0.08-38.01,0.07-57.02c0-0.58-0.1-1.16-0.17-2.02
				c-39.88-0.73-75.05-13.73-105.26-40c-30.08,26.11-65.11,39.19-105.14,40c-0.08,1.5-0.23,2.89-0.22,4.28
				c0.07,56.78,0.2,113.55,0.23,170.33c0.01,19.42,6.84,36.67,16.51,52.99c15.39,25.96,36.84,46.1,61.58,62.9
				c7.94,5.39,16.31,10.16,24.59,15.05c1.1,0.65,3.12,0.91,4.17,0.34c29.08-15.81,55.6-34.88,76.34-61.1
				c12.92-16.33,22.72-34.27,26.23-55.05c1.21-7.16,1.14-14.53,1.69-22.38c-7.12,0-13.45,0.1-19.78-0.04
				c-4.1-0.09-7.14-3.19-7.3-7.03c-0.15-3.68,2.89-7.08,6.85-7.58c0.95-0.12,1.92-0.07,2.88-0.07c15.52-0.01,31.03-0.01,46.55-0.02
				c30.67-0.02,61.35-0.02,92.02-0.06c8.35-0.01,14.55-4.56,16.12-11.67c2.3-10.35-5.32-19.8-16.25-19.85
				c-22.13-0.1-44.27-0.04-66.4-0.04c-16.72,0-33.44,0-50.16,0c-1.28,0-2.55,0-3.83,0c-0.15-0.31-0.3-0.63-0.46-0.94
				c28.68-24.16,57.36-48.32,86.45-72.83c4.11,11.66,8.03,22.8,12.24,34.72c12.04-30.59,23.81-60.47,35.85-91.06
				c-33.22,6.6-65.77,13.07-99.43,19.76c10.78,5.45,20.63,10.44,31.02,15.69c-1.67,1.39-2.9,2.45-4.16,3.48
				c-40.55,32.85-81.12,65.7-121.67,98.56c-8.86,7.18-10.69,13.8-6.81,24.48c4.8,13.2,9.62,26.39,14.4,39.59
				c0.76,2.11,2.12,4.47-0.56,6.12c-2.82,1.74-4.38-0.58-5.99-2.35c-7.85-8.62-15.69-17.24-23.74-26.1
				c-9.31,8.07-18.45,16-27.59,23.93c-7.36,6.38-14.73,12.76-22.07,19.16c-1.71,1.49-3.48,3-5.68,1.2
				c-2.22-1.81-1.02-3.88,0.06-5.82c8.61-15.56,17.21-31.12,25.81-46.69C141.63,240.66,142.19,239.5,142.94,238.04z"/>
		</g>
	</g>
</g>
</svg>
