<?xml version="1.0" encoding="utf-8"?>
<!-- Generator: Adobe Illustrator 28.3.0, SVG Export Plug-In . SVG Version: 6.00 Build 0)  -->
<svg version="1.1" id="Layer_1" xmlns="http://www.w3.org/2000/svg" xmlns:xlink="http://www.w3.org/1999/xlink" x="0px" y="0px"
	 viewBox="0 0 428.23 428.23" style="enable-background:new 0 0 428.23 428.23;" xml:space="preserve">
<style type="text/css">
	.st0{fill:#FF6B36;}
	.st1{fill:#FFFFFF;}
</style>
<g>
	<g>
		<polygon class="st0" points="0.49,-0.94 428.72,-0.94 428.72,373.76 375.19,427.29 0.49,427.29 		"/>
	</g>
	<g>
		<g>
			<path class="st1" d="M242.93,48.67c3.52,1.68,5.66,4.48,7.44,7.93c5.84,11.33,15.33,17.19,28.06,17.75
				c6.26,0.27,10.09,4.13,10.1,10.45c0.03,18.62,0.15,37.25-0.03,55.87c-0.42,42.55-28.97,80.85-69.64,93.36
				c-2.57,0.79-5.82,0.76-8.39-0.04c-41.32-12.95-69.4-51.02-69.66-94.29c-0.11-18.2-0.03-36.39-0.02-54.59
				c0.01-6.74,3.72-10.45,10.43-10.78c12.46-0.61,21.79-6.38,27.58-17.45c1.84-3.51,3.9-6.55,7.59-8.21
				C205.24,48.67,224.09,48.67,242.93,48.67z M206.17,147.14c-4.44-4.5-7.91-8.12-11.49-11.64c-4.32-4.25-10.07-4.42-14.02-0.52
				c-3.88,3.84-3.77,9.84,0.38,14.05c5.71,5.79,11.47,11.54,17.25,17.25c4.5,4.44,10.04,4.53,14.51,0.1
				c11.85-11.76,23.67-23.54,35.37-35.45c1.48-1.51,2.62-3.72,3.08-5.79c0.92-4.16-1.2-8.04-4.8-9.95
				c-3.92-2.07-8.25-1.4-11.75,2.06c-8.89,8.81-17.74,17.68-26.54,26.57C207.35,144.65,206.92,145.86,206.17,147.14z"/>
		</g>
		<g>
			<path class="st1" d="M379.12,370.52c-2.56,5.57-6.97,7.21-12.94,7.16c-24.62-0.22-49.25-0.09-73.87-0.09c-1.15,0-2.3,0-3.77,0
				c0-5.83-0.16-11.37,0.03-16.9c0.9-26.01-8.43-47.42-28.56-64.03c-0.57-0.47-1.1-1.01-2.27-2.08c4.69-4.6,9.28-9.11,14.06-13.79
				c11.44,10.73,24.48,16.43,39.71,16.47c15.26,0.04,28.36-5.55,39.61-16.09c12.54,9.25,21.04,21.22,25.34,36.09
				c1.15,3.97,1.79,8.1,2.66,12.15C379.12,343.11,379.12,356.82,379.12,370.52z"/>
		</g>
		<g>
			<path class="st1" d="M78.08,281.16c22.36,21.11,56.24,21.73,79.51-0.26c4.61,4.48,9.23,8.98,14.06,13.68
				c-1.97,1.75-3.39,3.03-4.82,4.29c-17.2,15.16-25.91,34.18-26.03,57.12c-0.04,7.05-0.01,14.11-0.01,21.45
				c-1.19,0.06-2.22,0.15-3.24,0.15c-25.37,0.01-50.75,0.01-76.12,0c-7.49,0-11.21-3.74-11.21-11.26c0-11.03-0.35-22.07,0.12-33.08
				C51.25,311.61,60.87,294.41,78.08,281.16z"/>
		</g>
		<g>
			<path class="st1" d="M269.26,377.46c-36.5,0-72.64,0-109.21,0c0-4.83-0.23-9.61,0.05-14.37c0.44-7.44,0.5-15.02,2.04-22.26
				c2.25-10.6,8.22-19.34,16.56-26.7c10.09,9.92,22.01,15.28,36.06,15.25c13.94-0.03,25.77-5.34,35.99-15.42
				c2.35,2.57,4.72,4.86,6.74,7.43c7.67,9.73,11.59,20.86,11.74,33.25C269.34,362.12,269.26,369.61,269.26,377.46z"/>
		</g>
		<g>
			<path class="st1" d="M154.56,241.53c-0.36,20.61-17.11,36.79-37.76,36.47c-19.92-0.31-36.31-17.24-36.03-37.22
				c0.29-20.65,17.03-36.96,37.58-36.62C138.53,204.49,154.91,221.39,154.56,241.53z"/>
		</g>
		<g>
			<path class="st1" d="M274.77,241.01c0.07-20.42,16.66-36.94,37.04-36.86c20.35,0.07,36.94,16.84,36.76,37.15
				c-0.18,20.42-16.81,36.83-37.21,36.71C291.21,277.9,274.71,261.21,274.77,241.01z"/>
		</g>
		<g>
			<path class="st1" d="M245.13,279.48c0.11,16.75-13.51,30.55-30.25,30.65c-16.9,0.1-30.71-13.64-30.69-30.53
				c0.02-16.67,13.5-30.31,30.09-30.48C231.24,248.95,245.01,262.51,245.13,279.48z"/>
		</g>
	</g>
	<g>
		<path class="st1" d="M153.19,97.72l118.72-13.97c0,0,28.93,74.82-30.93,108.74S144.21,156.58,153.19,97.72z"/>
	</g>
	<g>
		<polygon class="st0" points="200.39,186.44 157.77,143.83 176.16,125.44 200.39,149.67 253.05,97.01 271.43,115.4 		"/>
	</g>
</g>
</svg>
