<?xml version="1.0" encoding="UTF-8"?>
<svg id="Layer_1" xmlns="http://www.w3.org/2000/svg" xmlns:xlink="http://www.w3.org/1999/xlink" version="1.1" viewBox="0 0 428.2 428.2">
  <!-- Generator: Adobe Illustrator 29.3.1, SVG Export Plug-In . SVG Version: 2.1.0 Build 151)  -->
  <defs>
    <style>
      .st0 {
        fill: #fff;
      }

      .st1 {
        fill: #ff6b36;
      }
    </style>
  </defs>
  <polygon class="st1" points=".5 -.9 428.7 -.9 428.7 373.8 375.2 427.3 .5 427.3 .5 -.9"/>
  <g>
    <path class="st0" d="M373.8,312.6c11-19,11.1-41.6.2-60.6l-13.4-23.7c-4.8-8.5-15.6-11.5-24.1-6.6-8.5,4.8-11.4,15.6-6.6,24.1l13.5,23.7c4.6,7.9,4.5,17.4,0,25.4-4.6,7.9-12.8,12.6-21.9,12.6h-32.7l5.3-4.9c7.2-6.6,7.6-17.8,1-24.9-6.6-7.2-17.8-7.6-24.9-1l-40.6,37.4c-3.6,3.3-5.6,8-5.7,12.9,0,4.9,2,9.6,5.5,12.9,0,0,36,34,36.1,34.2,6.6,6.3,18.3,6.4,24.9-.7,6.7-7.1,6.4-18.3-.7-25l-5.9-5.6h37.5c21.8,0,41.5-11.3,52.4-30.3Z"/>
    <path class="st0" d="M339.3,115.6c-8.9-3.8-19.3.4-23.2,9.3l-6.7,15.8c-.4-1.6-.7-3.1-1.5-4.6l-32-56c-11-19.2-30.7-30.6-52.7-30.6s-41.8,11.4-52.8,30.6l-32,56c-4.8,8.5-1.9,19.3,6.6,24.1,8.4,4.8,19.2,1.9,24.1-6.6l32-56c4.6-8,12.9-12.8,22.1-12.8s17.5,4.8,22.1,12.8l29.7,52-8.7-2.7c-9.3-2.9-19.2,2.4-22.1,11.7-2.9,9.3,2.4,19.2,11.7,22.1,0,0,50.9,15.7,51,15.7,8.1,2.5,17.9-1.6,21.4-10l20.3-47.7c3.8-9-.4-19.3-9.4-23.2Z"/>
    <path class="st0" d="M113.9,191.7l-53,8.8c-9.6,1.6-16.1,10.7-14.5,20.3,1.6,9.6,10.7,16.1,20.3,14.5l16.7-2.8-11,19.3c-10.9,19-10.8,41.6.2,60.6,11,18.9,30.6,30.3,52.4,30.3h45.2c9.8,0,17.7-7.9,17.7-17.7s-7.9-17.7-17.7-17.7h-45.2c-9.1,0-17.3-4.7-21.9-12.6-4.6-7.9-4.6-17.4,0-25.4l9.1-16s2.4,7.7,2.4,7.7c6.7,21.1,40.6,11.3,33.7-10.6l-14.7-46.6c-2.6-8.4-11.2-13.5-19.7-12.1Z"/>
  </g>
</svg>