<?xml version="1.0" encoding="utf-8"?>
<!-- Generator: Adobe Illustrator 28.3.0, SVG Export Plug-In . SVG Version: 6.00 Build 0)  -->
<svg version="1.1" id="Layer_1" xmlns="http://www.w3.org/2000/svg" xmlns:xlink="http://www.w3.org/1999/xlink" x="0px" y="0px"
	 viewBox="0 0 428.23 428.23" style="enable-background:new 0 0 428.23 428.23;" xml:space="preserve">
<style type="text/css">
	.st0{fill:#FF6B36;}
	.st1{fill:#FFFFFF;}
</style>
<g>
	<g>
		<polygon class="st0" points="0.49,-0.94 428.72,-0.94 428.72,373.76 375.19,427.29 0.49,427.29 		"/>
	</g>
	<g>
		<path class="st1" d="M217.42,33.6H47.05c-17.65,118.83-17.65,240.31,0,359.14h170.37C195.68,274.37,195.68,151.98,217.42,33.6z"/>
	</g>
	<g>
		<path class="st0" d="M234.22,246.17L234.22,246.17l-81.01-42.62l11.53-23.29c1.81,16.5,8,72.75,9.71,88.26l-11.2-6.9l-80.08-49.39
			l6.97-13.86c3.22,16.44,12.31,62.84,15.39,78.57c-5.35-4.57-80.41-68.31-88.11-74.88c0,0,80.12,44.79,80.12,44.79l-7.26,13.67
			c-2.75-14.09-12.02-61.35-14.62-74.65c2.65,1.47,85.83,47.64,91.68,50.89c0,0-8.66,16.11-8.66,16.11
			c-4-19.48-14.81-72.18-18.65-90.92l17.44,5.5l82.95,26.16"/>
	</g>
	<g>
		<path class="st1" d="M294.74,300.91c-2.13,0-4.2-0.98-5.55-2.74l-61.95-80.73c-1.93-2.51-1.93-6.01,0-8.52l61.95-80.73
			c1.83-2.38,4.96-3.33,7.8-2.37c2.84,0.96,4.75,3.63,4.75,6.63v40.35H391c3.87,0,7,3.13,7,7s-3.13,7-7,7h-96.26c-3.87,0-7-3.13-7-7
			v-26.73l-46.13,60.11l46.13,60.11v-26.51c0-3.87,3.13-7,7-7h62.05c3.87,0,7,3.13,7,7s-3.13,7-7,7h-55.05v40.13
			c0,3-1.91,5.66-4.75,6.63C296.25,300.79,295.49,300.91,294.74,300.91z"/>
	</g>
</g>
</svg>
