<?xml version="1.0" encoding="UTF-8"?>
<svg xmlns="http://www.w3.org/2000/svg" version="1.1" viewBox="0 0 48 48">
  <!-- Generator: Adobe Illustrator 28.7.1, SVG Export Plug-In . SVG Version: 1.2.0 Build 142)  -->
  <g>
    <g id="Glyph">
      <g>
        <path d="M33.33331,15H14.66669c-2.57306,0-4.66669,2.01885-4.66669,4.50001v6.23583c0,4.00563,3.37921,7.26415,7.5332,7.26415,2.01202,0,3.90375-.75588,5.32654-2.12785l1.14026-1.09948,1.14026,1.09948c1.42279,1.37198,3.31451,2.12785,5.32654,2.12785,4.15399,0,7.5332-3.25852,7.5332-7.26415v-6.23583c0-2.48116-2.09363-4.50001-4.66669-4.50001ZM34,20.14289H14c-.55225,0-1-.43176-1-.96428s.44775-.96428,1-.96428h20c.55225,0,1,.43176,1,.96428s-.44775.96428-1,.96428Z"/>
        <path d="M5,21.10718v3.85714c0,.53034.45001.96428,1,.96428h2v-5.78571h-2c-.54999,0-1,.43394-1,.96428Z"/>
        <path d="M42,20.14289h-2v5.78571h2c.54999,0,1-.43394,1-.96428v-3.85714c0-.53034-.45001-.96428-1-.96428Z"/>
      </g>
    </g>
  </g>
</svg>