<?xml version="1.0" encoding="utf-8"?>
<!-- Generator: Adobe Illustrator 28.3.0, SVG Export Plug-In . SVG Version: 6.00 Build 0)  -->
<svg version="1.1" id="Layer_1" xmlns="http://www.w3.org/2000/svg" xmlns:xlink="http://www.w3.org/1999/xlink" x="0px" y="0px"
	 viewBox="0 0 428.23 428.23" style="enable-background:new 0 0 428.23 428.23;" xml:space="preserve">
<style type="text/css">
	.st0{fill:#FF6B36;}
	.st1{fill:#FFFFFF;}
</style>
<g>
	<g>
		<polygon class="st0" points="0.49,-0.94 428.72,-0.94 428.72,373.76 375.19,427.29 0.49,427.29 		"/>
	</g>
	<g>
		<g>
			<path class="st1" d="M138.98,384.43c-7.18-3.5-8.81-7-6.88-14.74c5.78-23.11,11.49-46.23,17.37-69.31
				c1.15-4.51,0.3-8.18-2.44-11.86c-23.81-32.01-47.53-64.08-71.27-96.13c-4.6-6.21-4.7-9.26-0.4-15.71
				c14.51-21.79,29.03-43.57,43.56-65.35c4.46-6.68,8.82-7.84,15.9-4.3c25.69,12.85,51.38,25.68,77.07,38.54
				c8.6,4.3,10.01,9.78,4.68,17.82c-7.79,11.75-6.74,11.67-21.47,11.6c-17.84-0.09-35.67-0.03-53.51-0.02
				c-6.94,0.01-11.36,3.84-11.41,9.85c-0.05,6.05,4.57,10.18,11.56,10.2c12.6,0.04,25.19,0.11,37.79-0.06
				c2.82-0.04,4.29,0.75,5.58,3.35c14.53,29.33,29.21,58.58,43.81,87.88c1.65,3.32,3.67,6.21,7.44,7.15
				c3.98,0.99,7.59,0.12,10.25-3.16c2.71-3.34,3.09-7.15,1.24-10.98c-3.28-6.82-6.74-13.56-10.13-20.33
				c-10.01-20.02-20.01-40.04-30.02-60.06c-0.54-1.08-1.03-2.18-2.04-4.31c3.62,0.68,6.67,0.69,9.22,1.81
				c28.74,12.62,57.52,25.14,86.03,38.27c14.04,6.47,26.77,6.55,38.62-4.13c0.26,0.27,0.53,0.42,0.52,0.57
				c-0.4,13.46,0.34,27.08-1.54,40.33c-2.23,15.65-11.41,27.86-24.53,36.77c-11.29,7.66-11.08,6.75-11.01,21.14
				c0.06,14.05-0.19,28.1,0.11,42.14c0.13,6.17-1.81,10.56-7.56,13.04C243.34,384.43,191.16,384.43,138.98,384.43z"/>
		</g>
		<g>
			<path class="st1" d="M280.08,112.32c1.92,0.77,4,1.3,5.74,2.36c5.22,3.19,10.36,6.54,15.46,9.92c5.61,3.72,6.85,9.46,3.16,15.03
				c-10.95,16.52-21.95,33.01-32.98,49.47c-3.59,5.36-7.99,6.63-13.86,4.1c-5.72-2.47-11.42-4.97-17.09-7.56
				c-6.38-2.92-8.34-9.41-4.46-15.28c11.67-17.64,23.45-35.22,35.19-52.82C273.31,114.47,276.13,112.75,280.08,112.32z"/>
		</g>
		<g>
			<path class="st1" d="M356.98,167.06c-0.52,1.22-1.09,3.42-2.27,5.22c-9.18,13.94-18.44,27.81-27.75,41.67
				c-3.5,5.21-7.89,6.49-13.59,4.05c-5.82-2.49-11.62-5.04-17.37-7.69c-6.24-2.88-8.21-9.31-4.45-15.03
				c9.97-15.15,20.03-30.23,30.16-45.27c3.44-5.1,9.08-6.17,14.34-2.87c5.37,3.37,10.64,6.9,15.98,10.32
				C355.2,159.47,356.65,162.42,356.98,167.06z"/>
		</g>
		<g>
			<path class="st1" d="M176.86,105.61c-13.66-6.84-26.98-13.5-40.59-20.3c3.02-4.54,5.89-8.85,8.76-13.16
				c5.49-8.24,10.97-16.49,16.49-24.71c4.04-6.01,9.39-7.13,15.48-3.23c6.65,4.26,13.31,8.51,19.87,12.91
				c4.68,3.14,6.16,8.88,3.18,13.49C192.52,82.27,184.73,93.78,176.86,105.61z"/>
		</g>
		<g>
			<path class="st1" d="M194.93,114.65c7.52-11.26,14.74-22.24,22.15-33.09c3-4.39,8.5-5.64,13.03-2.87
				c7.5,4.59,14.89,9.38,22.16,14.34c3.91,2.67,5.31,8.3,2.81,12.27c-6.28,9.97-12.93,19.7-19.52,29.67
				C221.97,128.17,208.65,121.5,194.93,114.65z"/>
		</g>
	</g>
</g>
</svg>
