<?xml version="1.0" encoding="utf-8"?>
<!-- Generator: Adobe Illustrator 28.3.0, SVG Export Plug-In . SVG Version: 6.00 Build 0)  -->
<svg version="1.1" id="Layer_1" xmlns="http://www.w3.org/2000/svg" xmlns:xlink="http://www.w3.org/1999/xlink" x="0px" y="0px"
	 viewBox="0 0 428.23 428.23" style="enable-background:new 0 0 428.23 428.23;" xml:space="preserve">
<style type="text/css">
	.st0{fill:#FF6B36;}
	.st1{fill:#FFFFFF;}
</style>
<g>
	<g>
		<polygon class="st0" points="0.49,-0.94 428.72,-0.94 428.72,373.76 375.19,427.29 0.49,427.29 		"/>
	</g>
	<g>
		<g>
			<path class="st1" d="M341.64,365.17c-84.73,0-169.46,0-254.19,0c-0.24-0.16-0.46-0.38-0.72-0.48
				c-9.01-3.18-12.79-9.13-11.17-18.48c3.76-21.72,7.71-43.41,11.6-65.1c6.64-37.07,13.31-74.14,19.89-111.22
				c1.89-10.64,7.14-15.25,17.99-15.26c15.74-0.01,31.47,0,47.21,0c1.04,0,2.08,0,3.89,0c-11.3-12.07-16.87-25.65-16.09-41.45
				c0.77-15.83,7.43-28.92,19.42-39.26c19.69-16.99,50.46-16.98,70.17-0.01c10.21,8.79,16.7,19.76,18.77,33.08
				c2.81,18.06-2.57,33.73-15.4,47.64c1.76,0,2.8,0,3.85,0c15.94,0,31.87-0.02,47.81,0.01c9.99,0.02,15.41,4.57,17.23,14.37
				c1.08,5.83,2.07,11.68,3.12,17.52c6.24,34.83,12.48,69.67,18.71,104.5c3.36,18.78,6.74,37.56,10.03,56.35
				c1.03,5.87-1,10.8-5.6,14.45C346.28,363.31,343.83,364.08,341.64,365.17z M265.2,273.37c1.07,8.56,0.3,9.9-7.07,12.85
				c-13.52,5.43-25.54-0.89-28.14-15.09c-0.74-4.03-0.79-8.28-0.51-12.39c0.9-13.11,12.38-21.14,24.94-17.75
				c3.95,1.07,6.61,3.7,9.07,6.78c2.5,3.12,6.48,3.49,9.53,1.22c3.06-2.28,3.79-6.57,1.54-9.79c-0.96-1.37-2.1-2.64-3.33-3.77
				c-6.08-5.57-13.57-6.89-21.45-7.04c-13.59-0.26-24.49,4.66-30.82,17.09c-5.69,11.17-5.61,22.87-1.18,34.52
				c3.07,8.08,8.59,14.08,16.69,17.1c15.37,5.74,29.75,2.97,43.01-6.2c1.19-0.82,1.94-3.02,1.99-4.62c0.22-6.33,0.15-12.67,0.07-19
				c-0.05-4.04-1.61-5.52-5.62-5.55c-5.84-0.04-11.68-0.04-17.52,0c-4.32,0.03-6.85,2.14-6.91,5.67c-0.06,3.63,2.49,5.84,6.97,5.93
				C259.32,273.42,262.17,273.37,265.2,273.37z M186.94,255.84c1.36-1,2.79-1.78,3.9-2.9c4.94-4.99,9.83-10.04,14.67-15.14
				c2.66-2.81,2.33-6.22-0.61-7.74c-3.2-1.65-10.39-0.35-12.89,2.36c-7.71,8.37-15.41,16.75-23.08,25.16
				c-0.67,0.74-1.09,1.71-1.62,2.57c-0.3-0.27-0.6-0.54-0.9-0.82c0-7.22,0.04-14.44-0.02-21.66c-0.04-4.89-2.72-7.95-6.86-8.04
				c-4.16-0.08-7.14,2.89-7.16,7.73c-0.09,17.91-0.1,35.82,0,53.73c0.03,4.84,3.04,7.78,7.23,7.66c4.02-0.11,6.69-3.12,6.8-7.8
				c0.08-3.66,0-7.32,0.03-10.98c0.01-0.77-0.1-1.85,0.33-2.27c3.74-3.59,7.59-7.07,11.41-10.57c0.35,0.59,0.92,1.51,1.47,2.44
				c5.05,8.61,10.04,17.26,15.22,25.8c0.84,1.38,2.4,2.94,3.85,3.21c2.77,0.51,5.72,0.36,8.57,0.1c3.06-0.28,4.6-3.35,3.34-6.22
				c-0.43-0.99-1.07-1.89-1.66-2.8C201.84,278.73,194.72,267.8,186.94,255.84z M214.53,91.51c-13.14,0.02-24.21,11.11-24.19,24.23
				c0.02,13.15,11.1,24.22,24.22,24.2c13.15-0.02,24.22-11.1,24.19-24.22C238.73,102.56,227.65,91.49,214.53,91.51z"/>
		</g>
	</g>
	<rect x="128.23" y="214.08" class="st1" width="175.58" height="121.71"/>
	<g>
		<path class="st0" d="M209.37,311.35h-20.25l-22.27-35.63l-11.53,13.78v21.84h-19.42v-85.2h19.42v39.18l31.47-39.18h21.53
			l-30.36,36.29L209.37,311.35z"/>
		<path class="st0" d="M293.29,268.75L293.29,268.75c0,0.02,0,0.04,0,0.06v42.54h-8.18l-5.74-7.62c-3.17,2.97-6.78,5.36-10.77,7.13
			c-5.33,2.37-11.21,3.57-17.46,3.57c-12.78,0-24.46-4.62-32.9-13.01c-8.44-8.39-13.08-20-13.08-32.68s4.65-24.29,13.08-32.68
			c8.44-8.39,20.12-13.01,32.9-13.01c8.17,0,15.75,1.82,22.54,5.4c6.64,3.51,12.27,8.69,16.29,14.97l-16.36,10.45
			c-4.63-7.25-12.82-11.41-22.47-11.41c-15.64,0-26.56,10.8-26.56,26.28c0,15.47,10.92,26.28,26.56,26.28
			c10.23,0,16.44-5.26,19.72-12.11h-27.44V263.5h49.86V268.75z"/>
	</g>
</g>
</svg>
