<svg id="Layer_1" enable-background="new 0 0 512.002 512.002" height="512" viewBox="0 0 512.002 512.002" width="512" xmlns="http://www.w3.org/2000/svg"><g><g><path d="m436.001 442.002h-56.836c4.536-28.124 6.836-58.889 6.836-91.643 0-65.564-10.719-142.863-28.34-206.502 3.984-1.317 6.862-5.065 6.862-9.49 0-5.523-4.478-10-10-10h-2.609c-2.159-6.867-4.51-13.885-7.06-20.92 3.439-1.581 5.833-5.048 5.833-9.082 0-5.523-4.478-10-10-10h-3.269c-18.484-44.07-45.138-83.794-81.257-84.365-.104-.001-.21-.001-.316 0-36.118.571-62.772 40.295-81.257 84.365h-3.27c-5.523 0-10 4.477-10 10 0 4.034 2.393 7.501 5.833 9.082-2.551 7.035-4.902 14.052-7.061 20.919h-2.609c-5.523 0-10 4.477-10 10 0 4.425 2.877 8.173 6.861 9.49-17.621 63.64-28.34 140.939-28.34 206.502 0 32.753 2.298 63.517 6.833 91.643h-56.834c-27.57 0-50 22.43-50 50 0 11.028 8.972 20 20 20h420c11.028 0 20-8.972 20-20 0-27.57-22.43-49.999-50-49.999zm-180-192.777-23.629-40.926 23.628-40.926 23.629 40.926zm35.176-20.926 23.628 40.925-23.628 40.926-23.628-40.925zm-46.722 40.926-23.629 40.926-23.629-40.926 23.629-40.926zm-35.176 60.925-23.629 40.926-23.629-40.926 23.628-40.926zm11.547 20 23.628 40.925-23.629 40.926-23.628-40.925zm11.547-20 23.629-40.926 23.628 40.925-23.628 40.926zm58.804 20 23.629 40.926-23.628 40.925-23.629-40.926zm11.547-20 23.628-40.926 23.629 40.926-23.629 40.926zm58.804 20 4.428 7.67c-.286 25.728-2.057 50.079-5.28 72.707l-22.777-39.451zm2.881-44.989-2.881 4.99-23.629-40.926 18.903-32.741c3.506 22.924 6.087 46.117 7.607 68.677zm-38.057-55.937-23.628-40.925 35.16-60.899c5.168 18.432 9.74 38.071 13.614 58.27zm-35.175-60.925-23.629-40.926 1.736-3.006h47.258zm-48.458-43.932 1.736 3.006-23.628 40.926-25.364-43.932zm-68.601 3.032 35.16 60.9-23.629 40.926-25.146-43.554c3.876-20.201 8.447-39.84 13.615-58.272zm-.015 121.826-23.628 40.926-2.881-4.991c1.52-22.56 4.1-45.751 7.607-68.676zm-28.057 88.597 4.429-7.672 23.629 40.926-22.776 39.45c-3.223-22.629-4.997-46.976-5.282-72.704zm39.604 53.254 17.855 30.926h-35.71zm70.351-.001 17.855 30.927h-35.711zm70.351.001 17.855 30.926h-35.711zm-138.218-306.711h22.864c5.523 0 10-4.477 10-10s-4.477-10-10-10h-14.628c18.417-41.018 39.301-63.925 59.631-64.364 20.33.438 41.214 23.345 59.631 64.364h-14.634c-5.522 0-10 4.477-10 10s4.478 10 10 10h22.871c2.404 6.345 4.754 13.016 7.041 20.001h-149.817c2.287-6.985 4.636-13.655 7.041-20.001zm-142.123 387.637h-.01c0-16.542 13.458-30 30-30h360c16.542 0 30 13.458 30 30z"/><path d="m256.001 84.365h-.007c-5.523 0-9.996 4.477-9.996 10s4.48 10 10.003 10 10-4.477 10-10-4.477-10-10-10z"/></g></g></svg>