<svg id="Layer_1" enable-background="new 0 0 510.682 510.682" height="512" viewBox="0 0 510.682 510.682" width="512" xmlns="http://www.w3.org/2000/svg"><g><path d="m270.341 128.791v-4.531c27.629-6.753 48.2-31.707 48.2-61.387-3.472-83.845-122.942-83.818-126.4 0 0 29.68 20.571 54.633 48.2 61.386v4.53c-98.738 7.677-176.733 90.475-176.733 191.149 10.533 254.361 372.973 254.286 383.467-.001-.001-100.671-77.996-183.469-176.734-191.146zm-48.2-65.917c0-18.307 14.894-33.2 33.2-33.2 44.045 1.824 44.032 64.583 0 66.4-18.307 0-33.2-14.894-33.2-33.2zm33.2 418.799c-89.18 0-161.733-72.554-161.733-161.733 8.884-214.561 314.615-214.499 323.467.001-.001 89.179-72.554 161.732-161.734 161.732z"/><path d="m335.674 304.94h-65.333v-97.467c-.793-19.902-29.215-19.887-30 0v112.467c0 8.284 6.716 15 15 15h80.333c19.902-.793 19.887-29.215 0-30z"/></g></svg>