<?xml version="1.0" encoding="UTF-8"?>
<svg xmlns="http://www.w3.org/2000/svg" version="1.1" viewBox="0 0 48 48">
  <!-- Generator: Adobe Illustrator 28.7.1, SVG Export Plug-In . SVG Version: 1.2.0 Build 142)  -->
  <g>
    <g id="Glyph">
      <g>
        <path d="M43,8c0-1.65686-1.34314-3-3-3h-14v6h14c1.65686,0,3-1.34314,3-3Z"/>
        <path d="M25,28v-10h-3c-.55127,0-1,.44873-1,1v12h5c.55225,0,1,.44775,1,1s-.44775,1-1,1h-5v4c0,.55127.44873,1,1,1h9v-9h-5c-.55225,0-1-.44775-1-1Z"/>
        <path d="M36,18h-9v9h5c.55225,0,1,.44775,1,1v10h3c.55127,0,1-.44873,1-1v-12h-5c-.55225,0-1-.44775-1-1s.44775-1,1-1h5v-4c0-.55127-.44873-1-1-1Z"/>
        <path d="M15,13v19.52997c-1.06-.95001-2.46002-1.52997-4-1.52997-3.31,0-6,2.69-6,6s2.69,6,6,6h28c2.21002,0,4-1.79004,4-4V12c-.83002.63-1.87,1-3,1H15ZM39,37c0,1.6543-1.3457,3-3,3h-14c-1.6543,0-3-1.3457-3-3v-18c0-1.6543,1.3457-3,3-3h14c1.6543,0,3,1.3457,3,3v18Z"/>
        <path d="M11,29c.67999,0,1.34998.08997,2,.25V9c0-2.20917-1.79083-4-4-4s-4,1.79083-4,4v22.71997c1.46997-1.66998,3.60999-2.71997,6-2.71997Z"/>
      </g>
    </g>
  </g>
</svg>