<?xml version="1.0" encoding="UTF-8"?>
<svg id="Glyph" xmlns="http://www.w3.org/2000/svg" version="1.1" viewBox="0 0 48 48">
  <path d="M37,37h1.89893c-.39874-1.9563-1.94263-3.50018-3.89893-3.89893v1.89893c0,.55225-.44727,1-1,1s-1-.44775-1-1v-1.89893c-1.9563.39874-3.50018,1.94263-3.89893,3.89893h1.89893c.55273,0,1,.44775,1,1s-.44727,1-1,1h-1.89893c.39874,1.9563,1.94263,3.50018,3.89893,3.89893v-1.89893c0-.55225.44727-1,1-1s1,.44775,1,1v1.89893c1.9563-.39874,3.50018-1.94263,3.89893-3.89893h-1.89893c-.55273,0-1-.44775-1-1s.44727-1,1-1Z" fill="#000" stroke-width="0"/>
  <path d="M6,8v4c0,.55225.44727,1,1,1h11v-7.84698l-11.16406,1.86066c-.48242.08008-.83594.49756-.83594.98633Z" fill="#000" stroke-width="0"/>
  <path d="M42,12c0-2.75684-2.24316-5-5-5h-2.38184l-.72363-1.44727c-.16992-.33887-.51562-.55273-.89453-.55273h-3v8h11c.55273,0,1-.44775,1-1Z" fill="#000" stroke-width="0"/>
  <path d="M20,9h4c.54999,0,1,.45001,1,1s-.45001,1-1,1h-4v2h2c.54999,0,1,.45001,1,1s-.45001,1-1,1h-2v2h4c.54999,0,1,.45001,1,1s-.45001,1-1,1h-4v2h2c.54999,0,1,.45001,1,1s-.45001,1-1,1h-2v2h4c.54999,0,1,.45001,1,1s-.45001,1-1,1h-4v2h2c.54999,0,1,.45001,1,1s-.45001,1-1,1h-2v2h4c.54999,0,1,.45001,1,1s-.45001,1-1,1h-4v2h2c.54999,0,1,.45001,1,1s-.45001,1-1,1h-2v3c0,.55225.44769,1,1,1h7v-1.40002c-.64001-1.04999-1-2.27997-1-3.59998s.35999-2.54999,1-3.60004V5h-8v4Z" fill="#000" stroke-width="0"/>
  <path d="M41,15h-11v7h4.11816l.5-1h2.38184c2.75684,0,5-2.24316,5-5,0-.55225-.44727-1-1-1Z" fill="#000" stroke-width="0"/>
  <path d="M34,28v-4h-4v5h3c.55273,0,1-.44775,1-1Z" fill="#000" stroke-width="0"/>
  <path d="M6,16v4c0,.43066.27539.8125.68359.94873l5.31641,1.77197v2.2793c0,1.6543,1.3457,3,3,3h3v-13H7c-.55273,0-1,.44775-1,1Z" fill="#000" stroke-width="0"/>
</svg>