<?xml version="1.0" encoding="UTF-8"?>
<svg id="Glyph" xmlns="http://www.w3.org/2000/svg" version="1.1" viewBox="0 0 64 64">
  <path d="M46,49c0,1.64996,1.34998,3,3,3h2c1.65002,0,3-1.35004,3-3v-1h-8v1Z" style="fill: #000; stroke-width: 0px;"/>
  <path d="M10,49c0,1.64996,1.34998,3,3,3h2c1.65002,0,3-1.35004,3-3v-1h-8v1Z" style="fill: #000; stroke-width: 0px;"/>
  <path d="M43,35v1h3c1.6543,0,3-1.3457,3-3v-1h-3c-1.6543,0-3,1.3457-3,3Z" style="fill: #000; stroke-width: 0px;"/>
  <path d="M18,32h-3v1c0,1.6543,1.3457,3,3,3h3v-1c0-1.6543-1.3457-3-3-3Z" style="fill: #000; stroke-width: 0px;"/>
  <path d="M56.62,33.06l-3.91998-7.06H11.29999l-3.91998,7.06c-.25.45001-.38.95001-.38,1.45996v8.48004c0,1.64996,1.34998,3,3,3h8c.21997,0,.42999-.07001.59998-.20001l3.73004-2.79999h19.33997l3.73004,2.79999c.16998.13.38.20001.59998.20001h8c1.65002,0,3-1.35004,3-3v-8.48004c0-.50995-.13-1.00995-.38-1.45996ZM23,37c0,.54999-.45001,1-1,1h-4c-2.76001,0-5-2.23999-5-5v-2c0-.54999.45001-1,1-1h4c2.76001,0,5,2.23999,5,5v2ZM38,37h-12c-.54999,0-1-.45001-1-1s.45001-1,1-1h12c.54999,0,1,.45001,1,1s-.45001,1-1,1ZM38,33h-12c-.54999,0-1-.45001-1-1s.45001-1,1-1h12c.54999,0,1,.45001,1,1s-.45001,1-1,1ZM51,33c0,2.76001-2.23999,5-5,5h-4c-.54999,0-1-.45001-1-1v-2c0-2.76001,2.23999-5,5-5h4c.54999,0,1,.45001,1,1v2Z" style="fill: #000; stroke-width: 0px;"/>
  <path d="M47.40002,14.04999c-.40002-1.22998-1.55005-2.04999-2.84003-2.04999h-25.12c-1.28998,0-2.44.82001-2.84003,2.04999l-3.31995,9.95001h37.43994l-3.31995-9.95001Z" style="fill: #000; stroke-width: 0px;"/>
  <path d="M54.23999,22.96997c.45001-.10999.76001-.51001.76001-.96997v-3c0-.54999-.45001-1-1-1h-3.16998l1.78998,5.37,1.62-.40002Z" style="fill: #000; stroke-width: 0px;"/>
  <path d="M9.76001,22.96997l1.62.40002,1.78998-5.37h-3.16998c-.54999,0-1,.45001-1,1v3c0,.45996.31.85999.76001.96997Z" style="fill: #000; stroke-width: 0px;"/>
</svg>