<?xml version="1.0" encoding="UTF-8"?>
<svg xmlns="http://www.w3.org/2000/svg" version="1.1" viewBox="0 0 64 64">
  <!-- Generator: Adobe Illustrator 28.7.1, SVG Export Plug-In . SVG Version: 1.2.0 Build 142)  -->
  <g>
    <g id="Glyph">
      <g>
        <path d="M13,20.57001v18.38324c.35413-.15027.73419-.2345,1.125-.2345.57422,0,1.12988.16895,1.60693.48926,1.26758.84473,2.74707,1.29297,4.27539,1.29297h.35156c1.59375,0,2.89062,1.29688,2.89062,2.89062v3.95544l10.75049,5.27802v-21.81543c-.10358-.03687-.21252-.06091-.31-.10962l-20.69-10.13Z"/>
        <polygon points="51 35.60547 46 38.06055 46 40.79688 51 38.3418 51 35.60547"/>
        <path d="M36,30.80597v21.81909l20.44-10.0351c.34003-.16998.56-.51996.56-.89996v-21.12l-20.67999,10.12c-.10168.05206-.21307.07727-.32001.11597ZM44,37.4375c0-.38184.2168-.72949.55908-.89746l7-3.4375c.31006-.15234.67725-.13379.96973.04883.29297.18262.47119.50293.47119.84863v4.96484c0,.38184-.2168.72949-.55908.89746l-7,3.4375c-.13965.06836-.29053.10254-.44092.10254-.18408,0-.36768-.05078-.52881-.15137-.29297-.18262-.47119-.50293-.47119-.84863v-4.96484Z"/>
        <path d="M20.0838,13.8009l-6.50372,3.00964c-.3501.16211-.57568.51074-.58008.89648s.21387.73926.56006.90918l21,10.28223c.27618.13416.60376.13416.87988,0l7.2901-3.56946-22.64624-11.52808Z"/>
        <polygon points="48.3371 22.58362 25.84589 11.13452 22.39398 12.73187 44.97803 24.22827 48.3371 22.58362"/>
        <path d="M56.43994,18.61621c.34619-.16992.56445-.52344.56006-.90918s-.22998-.73438-.58008-.89648l-21-9.71777c-.2666-.12305-.57324-.12305-.83984,0l-6.42401,2.97272,22.42908,11.41742,5.8548-2.8667Z"/>
        <path d="M20.35895,42.50085h-.35138c-1.92511,0-3.78851-.56445-5.38879-1.63159-.29919-.20007-.68884-.20007-.98804,0-1.60028,1.06714-3.46362,1.63159-5.38879,1.63159h-.35132c-.49188,0-.89062.39832-.89062.89056v4.453c0,4.21295,2.82922,7.96405,6.87994,9.12164.08002.02264.16266.03394.24481.03394.08221,0,.16479-.01129.24481-.03394,4.05078-1.15759,6.87994-4.90869,6.87994-9.12164v-4.453c0-.49225-.39874-.89056-.89056-.89056ZM17.83179,47.42676l-4,4c-.19531.19531-.45117.29297-.70703.29297s-.51172-.09766-.70703-.29297l-2-2c-.39062-.39062-.39062-1.02344,0-1.41406s1.02344-.39062,1.41406,0l1.29297,1.29297,3.29297-3.29297c.39062-.39062,1.02344-.39062,1.41406,0s.39062,1.02344,0,1.41406Z"/>
      </g>
    </g>
  </g>
</svg>