<?xml version="1.0" encoding="UTF-8"?>
<svg xmlns="http://www.w3.org/2000/svg" version="1.1" viewBox="0 0 48 48">
  <!-- Generator: Adobe Illustrator 28.7.1, SVG Export Plug-In . SVG Version: 1.2.0 Build 142)  -->
  <g>
    <g id="Glyph">
      <g>
        <path d="M28.71484,17.33594l-6.96484,6.96387-2.46436-2.46387c-1.13379-1.13281-3.10938-1.13281-4.24316,0-1.16846,1.16992-1.16846,3.07227.00049,4.24219,0,0,4.57916,4.57965,4.58545,4.58594,1.15717,1.15729,3.08649,1.15619,4.24268,0l9.08643-9.08594c1.16846-1.16992,1.16846-3.07227,0-4.24219-1.13379-1.13281-3.10986-1.13281-4.24268,0Z"/>
        <path d="M40.36279,14.34082c-.98468-1.66656-3.34851-1.94653-4.71094-.58105-.96094.96484-1.1416,2.47266-.43945,3.66699,1.16943,1.98926,1.7876,4.26172,1.7876,6.57324s-.61816,4.58398-1.78809,6.57324c-.7016,1.19427-.521,2.70203.43982,3.66687,1.3548,1.36047,3.73627,1.06885,4.71106-.58093,1.7251-2.91992,2.63721-6.25977,2.63721-9.65918s-.91211-6.7392-2.63721-9.65918Z"/>
        <path d="M12.7876,30.57324c-1.16943-1.98926-1.7876-4.26172-1.7876-6.57324s.61816-4.58398,1.78809-6.57324c.70166-1.19427.521-2.70203-.43982-3.66687-1.36304-1.36871-3.72839-1.08221-4.71106.58093-1.7251,2.91992-2.63721,6.25977-2.63721,9.65918s.91205,6.73914,2.63715,9.659c.98456,1.66656,3.35089,1.94666,4.71149.58026.96045-.96387,1.14111-2.47168.43896-3.66602Z"/>
        <path d="M17.42627,12.78809c3.97852-2.33984,9.16895-2.33984,13.14746,0,1.19525.70306,2.70203.52148,3.66595-.43939,1.36816-1.36389,1.08228-3.72821-.58099-4.71198-2.9209-1.72461-6.26074-2.63672-9.65869-2.63672s-6.73773.91205-9.65863,2.63666c-1.66541.98334-1.94733,3.35071-.58215,4.71094.93317.92975,2.5,1.12708,3.66705.44049Z"/>
        <path d="M30.57324,35.21191c-3.97754,2.33984-9.16895,2.33984-13.14648,0-1.19482-.70215-2.70258-.52051-3.66644.43939-1.36957,1.36389-1.0816,3.72858.58099,4.71198,2.9209,1.72461,6.26074,2.63672,9.65869,2.63672s6.73773-.91211,9.65863-2.63666c1.66174-.9812,1.94159-3.35651.58112-4.71198-.96387-.95996-2.47217-1.1416-3.6665-.43945Z"/>
      </g>
    </g>
  </g>
</svg>