<?xml version="1.0" encoding="UTF-8"?>
<svg xmlns="http://www.w3.org/2000/svg" version="1.1" viewBox="0 0 48 48">
  <!-- Generator: Adobe Illustrator 28.7.1, SVG Export Plug-In . SVG Version: 1.2.0 Build 142)  -->
  <g>
    <g id="Glyph">
      <g>
        <path d="M13,19c.33984,0,.67578-.04395,1-.12988v4.12988h6.12695c-.08398-.32422-.12695-.65918-.12695-1,0-2.20605,1.79395-4,4-4s4,1.79395,4,4c0,.34082-.04297.67578-.12695,1h6.12695v-4.12695c.32422.08398.65918.12695,1,.12695,2.20605,0,4-1.79395,4-4s-1.79395-4-4-4c-.34082,0-.67578.04297-1,.12695v-4.12695c0-1.10254-.89746-2-2-2h-5.78027c-.39551,0-.75391.2334-.91406.59473s-.09277.7832.17285,1.07715c.33594.37012.52148.84277.52148,1.32812,0,1.10254-.89746,2-2,2s-2-.89746-2-2c0-.48535.18555-.95801.52148-1.32812.26562-.29395.33301-.71582.17285-1.07715s-.51855-.59473-.91406-.59473h-5.78027c-1.10254,0-2,.89746-2,2v4.12988c-.32422-.08594-.66016-.12988-1-.12988-2.20605,0-4,1.79395-4,4s1.79395,4,4,4Z"/>
        <path d="M35,29c-.34082,0-.67578.04297-1,.12695v-4.12695h-7.76953c-.39551,0-.75391-.23242-.91406-.59375s-.09277-.78418.17188-1.07715c.33008-.36426.51172-.83691.51172-1.3291,0-1.10254-.89746-2-2-2s-2,.89746-2,2c0,.49219.18164.96484.51172,1.3291.26465.29297.33203.71582.17188,1.07715s-.51855.59375-.91406.59375h-7.76953v4.12695c-.32422-.08398-.65918-.12695-1-.12695-2.20605,0-4,1.79395-4,4,0,1.06641.41602,2.07129,1.17285,2.82715.99707.99902,2.48828,1.39355,3.82715,1.0459v4.12695c0,.52344.19434,1.00586.60352,1.4375.39062.36816.87305.5625,1.39648.5625h5.76953c.39551,0,.75391-.23242.91406-.59375s.09277-.78418-.17188-1.07715c-.33008-.36426-.51172-.83691-.51172-1.3291,0-1.10254.89746-2,2-2,.53223,0,1.03418.20801,1.41309.58691s.58691.88086.58691,1.41309c0,.49219-.18164.96484-.51172,1.3291-.26465.29297-.33203.71582-.17188,1.07715s.51855.59375.91406.59375h5.76953c1.10254,0,2-.89746,2-2v-4.12695c.32422.08398.65918.12695,1,.12695,2.20605,0,4-1.79395,4-4s-1.79395-4-4-4Z"/>
      </g>
    </g>
  </g>
</svg>