<?xml version="1.0" encoding="UTF-8"?>
<svg xmlns="http://www.w3.org/2000/svg" version="1.1" viewBox="0 0 64 64">
  <!-- Generator: Adobe Illustrator 28.7.1, SVG Export Plug-In . SVG Version: 1.2.0 Build 142)  -->
  <g>
    <g id="Glyph">
      <g>
        <path d="M19,11c0-2.21002-1.78998-4-4-4s-4,1.78998-4,4v4h8v-4Z"/>
        <path d="M53,11c0-2.21002-1.78998-4-4-4s-4,1.78998-4,4v4h8v-4Z"/>
        <path d="M20,55h-1v-8h-8v8h-1c-.54999,0-1,.45001-1,1s.45001,1,1,1h10c.54999,0,1-.45001,1-1s-.45001-1-1-1Z"/>
        <path d="M54,55h-1v-8h-8v8h-1c-.54999,0-1,.45001-1,1s.45001,1,1,1h10c.54999,0,1-.45001,1-1s-.45001-1-1-1Z"/>
        <rect x="11" y="29" width="8" height="4"/>
        <rect x="45" y="29" width="8" height="4"/>
        <polygon points="45.41406 45 49.58594 45 57 37.58594 57 35 55.41406 35 45.41406 45"/>
        <polygon points="27.41406 35 17.41406 45 21.58594 45 31.58594 35 27.41406 35"/>
        <polygon points="57 45 57 40.41406 52.41406 45 57 45"/>
        <polygon points="7 35 7 38.58594 10.58594 35 7 35"/>
        <polygon points="14.58594 45 24.58594 35 20.41406 35 10.41406 45 14.58594 45"/>
        <polygon points="34.41406 35 24.41406 45 28.58594 45 38.58594 35 34.41406 35"/>
        <polygon points="13.41406 35 7 41.41406 7 45 7.58594 45 17.58594 35 13.41406 35"/>
        <polygon points="48.41406 35 38.41406 45 42.58594 45 52.58594 35 48.41406 35"/>
        <polygon points="41.41406 35 31.41406 45 35.58594 45 45.58594 35 41.41406 35"/>
        <polygon points="55.41406 17 45.41406 27 49.58594 27 57 19.58594 57 17 55.41406 17"/>
        <polygon points="21.58594 27 31.58594 17 27.41406 17 17.41406 27 21.58594 27"/>
        <polygon points="57 27 57 22.41406 52.41406 27 57 27"/>
        <polygon points="7 17 7 20.58594 10.58594 17 7 17"/>
        <polygon points="14.58594 27 24.58594 17 20.41406 17 10.41406 27 14.58594 27"/>
        <polygon points="28.58594 27 38.58594 17 34.41406 17 24.41406 27 28.58594 27"/>
        <polygon points="17.58594 17 13.41406 17 7 23.41406 7 27 7.58594 27 17.58594 17"/>
        <polygon points="48.41406 17 38.41406 27 42.58594 27 52.58594 17 48.41406 17"/>
        <polygon points="35.58594 27 45.58594 17 41.41406 17 31.41406 27 35.58594 27"/>
      </g>
    </g>
  </g>
</svg>