<?xml version="1.0" encoding="UTF-8"?>
<svg xmlns="http://www.w3.org/2000/svg" version="1.1" viewBox="0 0 64 64">
  <!-- Generator: Adobe Illustrator 28.7.1, SVG Export Plug-In . SVG Version: 1.2.0 Build 142)  -->
  <g>
    <g id="Glyph">
      <g>
        <path d="M27,41c0-1.38-.67999-2.67999-1.90002-3.71002-2.10999,2.77002-4.15997,4.97998-4.92999,5.78003-.56.58997-1.34998.92999-2.16998.92999s-1.60999-.34003-2.16998-.92999c-.77002-.80005-2.82001-3.01001-4.92999-5.78003-1.22003,1.03003-1.90002,2.33002-1.90002,3.71002,0,3.35999,3.95001,6,9,6s9-2.64001,9-6Z"/>
        <circle cx="18" cy="24" r="4"/>
        <path d="M18,42c.27344,0,.53516-.1123.72363-.30957.41895-.43945,10.27637-10.83496,10.27637-16.69043,0-6.06543-4.93457-11-11-11s-11,4.93457-11,11c0,5.85547,9.85742,16.25098,10.27637,16.69043.18848.19727.4502.30957.72363.30957ZM12,24c0-3.30859,2.69141-6,6-6s6,2.69141,6,6-2.69141,6-6,6-6-2.69141-6-6Z"/>
        <path d="M51,40h-14c-2.20605,0-4-1.79395-4-4s1.79395-4,4-4h9.14197c.44708,1.72052,1.99933,3,3.85803,3,2.20605,0,4-1.79395,4-4s-1.79395-4-4-4c-1.8587,0-3.41095,1.27948-3.85803,3h-9.14197c-3.30859,0-6,2.69141-6,6s2.69141,6,6,6h14c2.20605,0,4,1.79395,4,4v2c0,2.20605-1.79395,4-4,4h-29.14197c-.44708-1.72052-1.99933-3-3.85803-3-2.20605,0-4,1.79395-4,4s1.79395,4,4,4c1.8587,0,3.41095-1.27948,3.85803-3h29.14197c3.30859,0,6-2.69141,6-6v-2c0-3.30859-2.69141-6-6-6Z"/>
        <circle cx="50" cy="14" r="1"/>
        <path d="M50,25c.28418,0,.55469-.12109.74414-.33203.64062-.71387,6.25586-7.0752,6.25586-10.66797,0-3.85938-3.14062-7-7-7s-7,3.14062-7,7c0,3.59277,5.61523,9.9541,6.25586,10.66797.18945.21094.45996.33203.74414.33203ZM47,14c0-1.6543,1.3457-3,3-3s3,1.3457,3,3-1.3457,3-3,3-3-1.3457-3-3Z"/>
      </g>
    </g>
  </g>
</svg>