<?xml version="1.0" encoding="UTF-8"?>
<svg id="Glyph" xmlns="http://www.w3.org/2000/svg" version="1.1" viewBox="0 0 64 64">
  <path d="M28.38165,27l.53827-1.07666-.71094-2.13281-2.52539-.8418c-.29883-.09961-.5332-.33398-.63184-.63232l-.77246-2.31641h-2.2793c-.19043,0-.37598-.0542-.53711-.15625l-7.69836-4.89899c-3.1084,3.32288-5.33655,7.47742-6.26453,12.10522.15997-.03998.33002-.04999.5-.04999h20.38165Z" fill="#000" stroke-width="0"/>
  <path d="M25.83789,13l2.16211-.7207v-1.2793c0-.10742.01758-.21436.05176-.31641l1.17078-3.51233c-3.18365.35376-6.18201,1.30859-8.89148,2.74573l3.08301,3.08301h2.42383Z" fill="#000" stroke-width="0"/>
  <path d="M43.29297,18.70703l-3.64648-3.64648-5.64648.80664v.71875l4.70703,4.70703c.1875.1875.29297.44189.29297.70703v2.83789l.94824,2.8457c.06055.18066.06836.37451.02148.55908l-.18933.75732h9.2196c.94,0,1.84003.45001,2.40002,1.20001l2.09998,2.79999h2.5c.54999,0,1-.45001,1-1,0-5.09851-1.53564-9.84192-4.16418-13.79889l-8.745.79498c-.29688.02197-.58789-.07861-.79785-.28906Z" fill="#000" stroke-width="0"/>
  <path d="M25,18c.43066,0,.81249.27539.94824.68359l.84277,2.52588,2.52539.8418c.29883.09961.5332.33398.63184.63232l1,3c.08398.25195.06445.52637-.05371.76367l-.27637.55273h5.38184c.68719,0,1.31738.23932,1.82306.63196l-.7713-2.31555c-.03418-.10205-.05176-.20898-.05176-.31641v-2.58594l-4.70703-4.70703c-.1875-.1875-.29297-.44189-.29297-.70703v-2c0-.49756.36621-.91943.8584-.98975l7-1c.31543-.04395.62695.06006.84863.28271l3.66895,3.66895,7.07751-.64368c-4.58582-5.67847-11.59924-9.31824-19.45349-9.31824-.20966,0-.41364.02252-.62207.02765l-1.37793,4.13446v1.83789c0,.43066-.27539.8125-.68359.94873l-3,1c-.10254.03418-.20898.05127-.31641.05127h-3c-.26562,0-.51953-.10547-.70703-.29297l-3.74658-3.74658c-1.17853.75616-2.28741,1.60645-3.31982,2.54376l7.06445,4.49579h2.70898Z" fill="#000" stroke-width="0"/>
  <path d="M8,47h28c.55273,0,1-.44727,1-1v-16c0-.55225-.44727-1-1-1H8c-.55273,0-1,.44775-1,1v16c0,.55273.44727,1,1,1ZM30,34c0-.55273.44727-1,1-1s1,.44727,1,1v8c0,.55273-.44727,1-1,1s-1-.44727-1-1v-8ZM25,34c0-.55273.44727-1,1-1s1,.44727,1,1v8c0,.55273-.44727,1-1,1s-1-.44727-1-1v-8ZM20,34c0-.55273.44727-1,1-1s1,.44727,1,1v8c0,.55273-.44727,1-1,1s-1-.44727-1-1v-8ZM15,34c0-.55273.44727-1,1-1s1,.44727,1,1v8c0,.55273-.44727,1-1,1s-1-.44727-1-1v-8ZM10,34c0-.55273.44727-1,1-1s1,.44727,1,1v8c0,.55273-.44727,1-1,1s-1-.44727-1-1v-8Z" fill="#000" stroke-width="0"/>
  <path d="M17,49c-2.21002,0-4,1.78998-4,4s1.78998,4,4,4,4-1.79004,4-4-1.78998-4-4-4ZM17,54c-.54999,0-1-.45001-1-1s.45001-1,1-1,1,.45001,1,1-.45001,1-1,1Z" fill="#000" stroke-width="0"/>
  <path d="M46,49c-2.21002,0-4,1.78998-4,4s1.78998,4,4,4,4-1.79004,4-4-1.78998-4-4-4ZM46,54c-.54999,0-1-.45001-1-1s.45001-1,1-1,1,.45001,1,1-.45001,1-1,1Z" fill="#000" stroke-width="0"/>
  <polygon points="55.49988 39 53.99988 37 49 37 49 39 55.49988 39" fill="#000" stroke-width="0"/>
  <rect x="43" y="37" width="4" height="2" fill="#000" stroke-width="0"/>
  <path d="M53,43h3v-2h-14c-.55225,0-1-.44775-1-1v-4c0-.55225.44775-1,1-1h10.49988l-2.70007-3.6001c-.18848-.25195-.48486-.3999-.7998-.3999h-10v16h17v-2h-3c-.55225,0-1-.44775-1-1s.44775-1,1-1Z" fill="#000" stroke-width="0"/>
  <path d="M7,50v2c0,.54999.45001,1,1,1h3c0-1.54004.58002-2.94,1.53998-4h-4.53998c-.54999,0-1,.45001-1,1Z" fill="#000" stroke-width="0"/>
  <path d="M23,53h17c0-1.54004.58002-2.94,1.53998-4h-20.07996c.95996,1.06,1.53998,2.45996,1.53998,4Z" fill="#000" stroke-width="0"/>
  <path d="M56,49h-5.53998c.95996,1.06,1.53998,2.45996,1.53998,4h4c.54999,0,1-.45001,1-1v-2c0-.54999-.45001-1-1-1Z" fill="#000" stroke-width="0"/>
</svg>