<?xml version="1.0" encoding="UTF-8"?>
<svg xmlns="http://www.w3.org/2000/svg" version="1.1" viewBox="0 0 64 64">
  <!-- Generator: Adobe Illustrator 28.7.1, SVG Export Plug-In . SVG Version: 1.2.0 Build 142)  -->
  <g>
    <g id="Glyph">
      <g>
        <polygon points="12 23.36124 7.69 26.95127 12 29.76127 12 23.36124"/>
        <path d="M32.64001,7.23124c-.37-.31-.91003-.31-1.28003,0l-3.32001,2.77002h7.92004l-3.32001-2.77002Z"/>
        <polygon points="52 23.36124 52 29.76127 56.31 26.95127 52 23.36124"/>
        <path d="M40.8385,39.4257l15.8609,15.8609c.18713-.39111.3006-.82361.3006-1.28534v-25.10992l-16.1615,10.53436Z"/>
        <circle cx="24" cy="50.00126" r="1"/>
        <path d="M8.71002,56.70127c.39996.19.82996.29999,1.28998.29999h44c.46002,0,.89001-.10999,1.28998-.29999l-23.28998-23.29004-23.28998,23.29004ZM24,53.00126c-1.65002,0-3-1.35004-3-3s1.34998-3,3-3,3,1.34998,3,3-1.34998,3-3,3ZM40,47.00126c1.65002,0,3,1.34998,3,3s-1.34998,3-3,3-3-1.35004-3-3,1.34998-3,3-3ZM35,50.00126c0,1.64996-1.34998,3-3,3s-3-1.35004-3-3,1.34998-3,3-3,3,1.34998,3,3Z"/>
        <circle cx="32" cy="50.00126" r="1"/>
        <circle cx="40" cy="50.00126" r="1"/>
        <path d="M7,28.89133v25.10992c0,.46173.11346.89423.3006,1.28534l15.8609-15.8609L7,28.89133Z"/>
        <path d="M36.44727,21.92948c.33887.16943.55273.51562.55273.89453v2.15283l4,.6665v-5.99951l-7.44238-1.48828c-1.0332-.20703-2.08105-.20703-3.11523,0l-7.44238,1.48828v5.99951l4-.6665v-2.15283c0-.37891.21387-.7251.55273-.89453,2.78516-1.3916,6.10938-1.3916,8.89453,0Z"/>
        <path d="M32,30.59122l7.39001,7.39001,10.60999-6.90997V13.00126c0-.54999-.45001-1-1-1H15c-.54999,0-1,.45001-1,1v18.07001l10.60999,6.90997,7.39001-7.39001ZM21.35352,27.5872c-.22412-.18994-.35352-.46924-.35352-.76318v-8c0-.47656.33643-.88721.80371-.98047l8.24609-1.64893c1.29395-.25977,2.60645-.25977,3.90039,0l8.24609,1.64893c.46729.09326.80371.50391.80371.98047v8c0,.29393-.12939.57322-.35349.76316-.22206.18821-.52433.27181-.81106.22317l-6-1c-.48193-.08008-.83545-.49756-.83545-.98633v-2.35547c-1.91602-.7793-4.08398-.7793-6,0v2.35547c0,.48877-.35352.90625-.83545.98633l-6,1c-.29004.04736-.58691-.03369-.81104-.22314Z"/>
      </g>
    </g>
  </g>
</svg>