<?xml version="1.0" encoding="UTF-8"?>
<svg xmlns="http://www.w3.org/2000/svg" version="1.1" viewBox="0 0 64 64">
  <!-- Generator: Adobe Illustrator 28.7.1, SVG Export Plug-In . SVG Version: 1.2.0 Build 142)  -->
  <g>
    <g id="Glyph">
      <g>
        <path d="M14,19h5c.55273,0,1-.44727,1-1,0-.40918.24609-.76074.59863-.91602.7168,1.17188,1.99902,1.91602,3.40137,1.91602,1.45703,0,2.77539-.80176,3.47168-2.03613.02051.00293.04102.00586.06055.00781.70117,1.23633,2.01855,2.02832,3.46777,2.02832,1.45703,0,2.77539-.80176,3.47168-2.03516.67871.08984,1.36914.00586,2.04004-.26172,1.15332-.46191,2.0293-1.44043,2.34277-2.61621.333-1.24023.08496-2.52344-.67969-3.51953-.66797-.87109-1.63672-1.41699-2.70801-1.54102-.70117-1.23535-2.01855-2.02637-3.4668-2.02637-1.45703,0-2.77539.80176-3.47168,2.03613-.34961-.04883-.70703-.04883-1.05664,0-.69629-1.23438-2.01465-2.03613-3.47168-2.03613-1.43555,0-2.74609.78027-3.45117,2h-2.54883c-2.75684,0-5,2.24316-5,5v4c0,.55273.44727,1,1,1Z"/>
        <path d="M22,22c0-.55273-.44727-1-1-1h-10c-.55273,0-1,.44727-1,1v1h12v-1Z"/>
        <rect x="12" y="25" width="8" height="2"/>
        <rect x="42" y="35" width="6" height="4"/>
        <rect x="50" y="35" width="7" height="4"/>
        <rect x="35" y="35" width="5" height="4"/>
        <rect x="35" y="49" width="16" height="2"/>
        <path d="M20.18848,42.58496c-.1875-.26074-.23926-.59668-.13672-.90137l.56055-1.68359h-1.8916l-1.33301,4h1.6123c.30762,0,.59863.1416.78809.38477.16797.21582.24023.48926.20215.75684l1.83594-2.1416h-.82617c-.32129,0-.62305-.1543-.81152-.41504Z"/>
        <path d="M20,36c-4.41113,0-8,3.58887-8,8s3.58887,8,8,8,8-3.58887,8-8-3.58887-8-8-8ZM24.75879,42.65039s-5.98584,6.98346-6,6.99994c-.289.33722-.82147.44312-1.21777.23834-.41211-.21289-.62402-.68164-.51074-1.13086l.68848-2.75781h-1.71875c-.32129,0-.62305-.1543-.81152-.41504-.1875-.26074-.23926-.59668-.13672-.90137l2-6c.13574-.4082.51758-.68359.94824-.68359h4c.32129,0,.62305.1543.81152.41504.1875.26074.23926.59668.13672.90137l-.56055,1.68359h1.6123c.39062,0,.74512.22754.9082.58203s.10547.77246-.14941,1.06836Z"/>
        <rect x="35" y="45" width="16" height="2"/>
        <path d="M56,29h-1v-6c0-.40002-.23999-.77002-.62-.92004-.37-.15997-.79999-.06995-1.09003.21002l-5.28998,5.29999v-4.58997c0-.40002-.23999-.77002-.62-.92004-.37-.15997-.79999-.06995-1.09003.21002l-5.28998,5.29999v-4.58997c0-.40002-.23999-.77002-.62-.92004-.37-.15997-.79999-.06995-1.09003.21002l-6.69995,6.71002H8c-.54999,0-1,.45001-1,1v26c0,.54999.45001,1,1,1h25v-13c0-.54999.45001-1,1-1h18c.54999,0,1,.45001,1,1v13h3c.54999,0,1-.45001,1-1v-15h-23c-.54999,0-1-.45001-1-1v-6c0-.54999.45001-1,1-1h23v-3c0-.54999-.45001-1-1-1ZM20,54c-5.51001,0-10-4.48999-10-10s4.48999-10,10-10,10,4.48999,10,10-4.48999,10-10,10Z"/>
        <rect x="35" y="53" width="16" height="4"/>
      </g>
    </g>
  </g>
</svg>