<?xml version="1.0" encoding="UTF-8"?>
<svg id="Glyph" xmlns="http://www.w3.org/2000/svg" version="1.1" viewBox="0 0 64 64">
  <path d="M31,19.00034h-4c-.51001,0-.94.39001-1,.89996l-.59003,6.01001,6.99005-2-.40002-4.01001c-.06-.50995-.48999-.89996-1-.89996Z" fill="#000" stroke-width="0"/>
  <path d="M29.73779,15.71274l.36767.73486c.56266,1.12458,2.37941.285,1.78906-.89453l-.36768-.73438c-.18555-.37158-.11279-.81787.18018-1.11133.90283-.90234,1.12598-2.27637.55518-3.41943l-.36768-.73486c-.24805-.49463-.84814-.69482-1.3418-.44727-.49414.24756-.69434.84814-.44727,1.3418l.36768.73438c.18555.37158.11279.81787-.18018,1.11133-.90283.90234-1.12598,2.27637-.55518,3.41943Z" fill="#000" stroke-width="0"/>
  <path d="M25.3125,15.71274l.36767.73486c.57038,1.14001,2.37363.27345,1.78907-.89452l-.36768-.73438c-.18555-.37158-.11279-.81787.18018-1.11133.90283-.90234,1.12598-2.27637.55518-3.41943l-.36768-.73486c-.24707-.49463-.84863-.69482-1.3418-.44727-.49414.24756-.69434.84814-.44727,1.3418l.36768.73438c.18555.37158.11279.81787-.18018,1.11133-.90283.90234-1.12598,2.27637-.55518,3.41943Z" fill="#000" stroke-width="0"/>
  <rect x="42" y="29.00034" width="2" height="2" fill="#000" stroke-width="0"/>
  <rect x="14" y="47.00034" width="16" height="8" fill="#000" stroke-width="0"/>
  <rect x="42" y="37.00034" width="2" height="2" fill="#000" stroke-width="0"/>
  <rect x="44" y="45.00034" width="6" height="10" fill="#000" stroke-width="0"/>
  <rect x="29" y="35.00034" width="2" height="2" fill="#000" stroke-width="0"/>
  <rect x="14" y="43.00034" width="16" height="2" fill="#000" stroke-width="0"/>
  <rect x="21" y="35.00034" width="2" height="2" fill="#000" stroke-width="0"/>
  <path d="M14,32.00034v3.24561l-6.2749,1.79297c-.4292.12256-.7251.51514-.7251.96143v16c0,.55225.44775,1,1,1h4v-13c0-.55225.44775-1,1-1h18c.55225,0,1,.44775,1,1v13h3v-29.75427l-20.2749,5.79285c-.4292.12256-.7251.51514-.7251.96143ZM27,34.00034c0-.55225.44775-1,1-1h4c.55225,0,1,.44775,1,1v4c0,.55225-.44775,1-1,1h-4c-.55225,0-1-.44775-1-1v-4ZM19,34.00034c0-.55225.44775-1,1-1h4c.55225,0,1,.44775,1,1v4c0,.55225-.44775,1-1,1h-4c-.55225,0-1-.44775-1-1v-4Z" fill="#000" stroke-width="0"/>
  <rect x="50" y="29.00034" width="2" height="2" fill="#000" stroke-width="0"/>
  <rect x="42" y="21.00034" width="10" height="2" fill="#000" stroke-width="0"/>
  <path d="M56,15.00034h-19v40h5v-11c0-.55225.44775-1,1-1h8c.55225,0,1,.44775,1,1v11h4c.55225,0,1-.44775,1-1V16.00034c0-.55225-.44775-1-1-1ZM46,40.00034c0,.55225-.44775,1-1,1h-4c-.55225,0-1-.44775-1-1v-4c0-.55225.44775-1,1-1h4c.55225,0,1,.44775,1,1v4ZM46,32.00034c0,.55225-.44775,1-1,1h-4c-.55225,0-1-.44775-1-1v-4c0-.55225.44775-1,1-1h4c.55225,0,1,.44775,1,1v4ZM54,40.00034c0,.55225-.44775,1-1,1h-4c-.55225,0-1-.44775-1-1v-4c0-.55225.44775-1,1-1h4c.55225,0,1,.44775,1,1v4ZM54,32.00034c0,.55225-.44775,1-1,1h-4c-.55225,0-1-.44775-1-1v-4c0-.55225.44775-1,1-1h4c.55225,0,1,.44775,1,1v4ZM54,24.00034c0,.55225-.44775,1-1,1h-12c-.55225,0-1-.44775-1-1v-4c0-.55225.44775-1,1-1h12c.55225,0,1,.44775,1,1v4Z" fill="#000" stroke-width="0"/>
  <rect x="50" y="37.00034" width="2" height="2" fill="#000" stroke-width="0"/>
  <path d="M54,12.00034c0-.54999-.45001-1-1-1h-6c-.54999,0-1,.45001-1,1v1h8v-1Z" fill="#000" stroke-width="0"/>
</svg>