<?xml version="1.0" encoding="UTF-8"?>
<svg xmlns="http://www.w3.org/2000/svg" version="1.1" viewBox="0 0 64 64">
  <!-- Generator: Adobe Illustrator 28.7.1, SVG Export Plug-In . SVG Version: 1.2.0 Build 142)  -->
  <g>
    <g id="Glyph">
      <g>
        <path d="M54.71002,43.71002l-5.71002-5.71002v13.04004l4.54999,2.27002c.14001.06995.29999.10999.45001.10999.17999,0,.37-.04999.53003-.15002.28998-.17999.46997-.5.46997-.84998v-8c0-.27002-.10999-.52002-.28998-.71002Z"/>
        <path d="M9,44.42004v8c0,.34998.17999.66998.46997.84998.16003.10004.35004.15002.53003.15002.15002,0,.31-.04004.45001-.10999l4.54999-2.27002v-13.04004l-5.71002,5.71002c-.17999.19-.28998.44-.28998.71002Z"/>
        <path d="M32,23c-5.40051,0-10.29944-1.51257-13.90167-3.95636-.71167,1.97589-1.09833,4.09167-1.09833,6.27423v25.68213h12v-5c0-1.6543,1.3457-3,3-3s3,1.3457,3,3v5h12v-25.68213c0-2.18256-.38666-4.29834-1.09833-6.27423-3.60223,2.44379-8.50116,3.95636-13.90167,3.95636ZM40,38c0,1.6543-1.3457,3-3,3h-10c-1.6543,0-3-1.3457-3-3v-10c0-1.6543,1.3457-3,3-3h10c1.6543,0,3,1.3457,3,3v10Z"/>
        <path d="M37,27h-1v5c0,.36865-.20312.70752-.52832.88184-.14746.0791-.31006.11816-.47168.11816-.19385,0-.38721-.05615-.55469-.16797l-2.44531-1.63037-2.44531,1.63037c-.30713.20312-.70312.22314-1.02637.0498-.3252-.17432-.52832-.51318-.52832-.88184v-5h-1c-.55127,0-1,.44873-1,1v10c0,.55127.44873,1,1,1h10c.55127,0,1-.44873,1-1v-10c0-.55127-.44873-1-1-1Z"/>
        <path d="M32,29c.19336,0,.38672.05615.55469.16797l1.44531.96338v-3.13135h-4v3.13135l1.44531-.96338c.16797-.11182.36133-.16797.55469-.16797Z"/>
        <path d="M32,45c-.55127,0-1,.44873-1,1v5h2v-5c0-.55127-.44873-1-1-1Z"/>
        <path d="M39.61816,53h-15.23633l-1.27637,2.55273c-.15479.31006-.13818.67822.04395.97314.18213.29443.50391.47412.85059.47412h16c.34668,0,.66846-.17969.85059-.47412.18213-.29492.19873-.66309.04395-.97314l-1.27637-2.55273Z"/>
        <path d="M45.10968,17.19696c-2.46448-5.06366-7.1474-8.94196-12.90021-10.17499-.1377-.0293-.28125-.0293-.41895,0-5.75281,1.23303-10.43573,5.11133-12.90021,10.17499,3.28607,2.33435,7.94019,3.80304,13.10968,3.80304s9.82361-1.46869,13.10968-3.80304Z"/>
      </g>
    </g>
  </g>
</svg>