<?xml version="1.0" encoding="UTF-8"?>
<svg id="Glyph" xmlns="http://www.w3.org/2000/svg" version="1.1" viewBox="0 0 64 64">
  <path d="M36.29297,38.70703l-2-2c-.07617-.07617-.13965-.16357-.1875-.25977l-1-2c-.17383-.34863-.12988-.76709.11328-1.07178l1.46869-1.83716c-.82812-.34576-1.73553-.53833-2.68744-.53833-.16492,0-.32654.01343-.48865.02472l-.47131,2.81903.85449,1.70898c.06934.13867.10547.29199.10547.44727v1.46484l2.55469,1.70312c.45996.30615.58398.92725.27734,1.38672l-1.33301,2c-.14746.2207-.37598.37402-.63574.42578l-1.66699.3335c-.06543.01318-.13086.01953-.19629.01953-.19629,0-.38965-.05762-.55469-.16797l-1.6709-1.11426-2.19934.36475c1.28473,1.57526,3.23877,2.58398,5.42493,2.58398,3.51904,0,6.43231-2.6134,6.92017-6h-1.92017c-.26562,0-.51953-.10547-.70703-.29297Z" fill="#000" stroke-width="0"/>
  <path d="M29.55469,40.16797l1.65527,1.10352.85449-.1709.54883-.82324-2.16797-1.44531c-.27832-.18555-.44531-.49756-.44531-.83203v-1.76416l-.89453-1.78857c-.09473-.18945-.12695-.40332-.0918-.6123l.38953-2.3299c-2.57648,1.03406-4.4032,3.5531-4.4032,6.49493,0,.90717.17902,1.77185.49451,2.56805l3.34143-.55438c.25195-.04297.50781.01318.71875.1543Z" fill="#000" stroke-width="0"/>
  <path d="M36.41827,32.57684l-1.23761,1.54816.6416,1.28271,1.5918,1.59229h1.5061c-.25574-1.77527-1.1731-3.33856-2.50189-4.42316Z" fill="#000" stroke-width="0"/>
  <path d="M32,26c-6.61719,0-12,5.3833-12,12s5.38281,12,12,12,12-5.3833,12-12-5.38281-12-12-12ZM32,47c-4.96289,0-9-4.0376-9-9s4.03711-9,9-9,9,4.0376,9,9-4.03711,9-9,9Z" fill="#000" stroke-width="0"/>
  <path d="M41,48.70996c-2.03998,1.72003-4.56,2.86005-7.33002,3.19l2.01001,4.51001c.27142.60553,1.08777.77985,1.58002.32996.00842-.00763,2.08997-1.90997,2.08997-1.90997l2.82001-.26996c.3313-.04144.6026-.2381.7569-.50183.15485-.26477.19177-.59723.05304-.90833-.01038-.02325-1.97992-4.43988-1.97992-4.43988Z" fill="#000" stroke-width="0"/>
  <path d="M21.02002,53.14996c-.26843.61945.13995,1.32605.80981,1.40997.00018.00006,2.82019.27002,2.82019.27002l2.08997,1.91003c.48608.45905,1.31085.27393,1.58002-.33002.00391-.00879,2.01001-4.51001,2.01001-4.51001-2.77002-.32996-5.29004-1.46997-7.33002-3.19l-1.97998,4.44Z" fill="#000" stroke-width="0"/>
  <path d="M56,7H8c-.54999,0-1,.45001-1,1v32c0,.54999.45001,1,1,1h10.32001c-.21002-.97003-.32001-1.97003-.32001-3,0-.33752.02704-.66833.05066-1h-3.05066c-.55273,0-1-.44775-1-1,0-1.10303-.89746-2-2-2-.55273,0-1-.44775-1-1V15c0-.55225.44727-1,1-1,1.10254,0,2-.89697,2-2,0-.55225.44727-1,1-1h34c.55273,0,1,.44775,1,1,0,1.10303.89746,2,2,2,.55273,0,1,.44775,1,1v18c0,.55225-.44727,1-1,1-1.10254,0-2,.89697-2,2,0,.55225-.44727,1-1,1h-3.05066c.02362.33167.05066.66248.05066,1,0,1.02997-.10999,2.02997-.32001,3h10.32001c.54999,0,1-.45001,1-1V8c0-.54999-.45001-1-1-1Z" fill="#000" stroke-width="0"/>
  <path d="M51,32.12646V15.87354c-1.40332-.36279-2.51074-1.46973-2.87305-2.87354H15.87305c-.3623,1.40381-1.46973,2.51074-2.87305,2.87354v16.25293c1.40332.36279,2.51074,1.46973,2.87305,2.87354h2.45874c1.37805-6.28174,6.9787-11,13.66821-11s12.29016,4.71826,13.66821,11h2.45874c.3623-1.40381,1.46973-2.51074,2.87305-2.87354ZM40,22h-16c-.55273,0-1-.44775-1-1s.44727-1,1-1h16c.55273,0,1,.44775,1,1s-.44727,1-1,1ZM46.95996,18.27979c-.1543.52979-.70312.83447-1.24023.68018-8.91895-2.60107-18.52344-2.6001-27.43951,0-.52362.15271-1.08765-.15521-1.24017-.67969-.1543-.53027.14941-1.08545.67969-1.24023,9.28027-2.70703,19.27637-2.70703,28.56055,0,.53027.15479.83398.70996.67969,1.23975Z" fill="#000" stroke-width="0"/>
</svg>