<?xml version="1.0" encoding="UTF-8"?>
<svg xmlns="http://www.w3.org/2000/svg" version="1.1" viewBox="0 0 48 48">
  <!-- Generator: Adobe Illustrator 28.7.1, SVG Export Plug-In . SVG Version: 1.2.0 Build 142)  -->
  <g>
    <g id="Glyph">
      <g>
        <rect x="15" y="16" width="18" height="7"/>
        <path d="M23,25H6c-.55231,0-1,.44769-1,1v6h18v-7Z"/>
        <rect x="17" y="34" width="14" height="7"/>
        <path d="M42,25h-17v7h18v-6c0-.55231-.44769-1-1-1Z"/>
        <rect x="5" y="7" width="38" height="7" rx="2" ry="2"/>
        <path d="M33,41h8c1.10455,0,2-.89545,2-2v-5h-10v7Z"/>
        <path d="M5,39c0,1.10455.89545,2,2,2h8v-7H5v5Z"/>
      </g>
    </g>
  </g>
</svg>