<?xml version="1.0" encoding="UTF-8"?>
<svg xmlns="http://www.w3.org/2000/svg" version="1.1" viewBox="0 0 64 64">
  <!-- Generator: Adobe Illustrator 28.7.1, SVG Export Plug-In . SVG Version: 1.2.0 Build 142)  -->
  <g>
    <g id="Glyph">
      <g>
        <path d="M29.24707,43.16699c.79053.52399,1.7356.83301,2.75293.83301,2.75684,0,5-2.24316,5-5,0-1.01733-.30902-1.9624-.83301-2.75293l-6.91992,6.91992Z"/>
        <path d="M34.75293,34.83301c-.79053-.52399-1.7356-.83301-2.75293-.83301-2.75684,0-5,2.24316-5,5,0,1.01733.30902,1.9624.83301,2.75293l6.91992-6.91992Z"/>
        <path d="M14.18433,55c.41412,1.1615,1.51373,2,2.81567,2h30c1.30194,0,2.40161-.8385,2.81573-2H14.18433Z"/>
        <path d="M41,13c0-.55127-.44873-1-1-1h-1v2h1c.55127,0,1-.44873,1-1Z"/>
        <path d="M52,7H12c-1.65002,0-3,1.34998-3,3v13h46v-13c0-1.65002-1.34998-3-3-3ZM18,14c.54999,0,1,.45001,1,1s-.45001,1-1,1h-3v2h3c.54999,0,1,.45001,1,1s-.45001,1-1,1h-4c-.54999,0-1-.45001-1-1v-8c0-.54999.45001-1,1-1h4c.54999,0,1,.45001,1,1s-.45001,1-1,1h-3v2h3ZM27,19c0,1.02997-1.42999,1.37-1.89001.45001l-2.10999-4.21002v3.76001c0,.54999-.45001,1-1,1s-1-.45001-1-1v-8c0-.46002.32001-.87.77002-.97003.45996-.10999.91998.11005,1.12.52002l2.10999,4.21002v-3.76001c0-.54999.45001-1,1-1s1,.45001,1,1v8ZM34,12h-1v7c0,.54999-.45001,1-1,1s-1-.45001-1-1v-7h-1c-.54999,0-1-.45001-1-1s.45001-1,1-1h4c.54999,0,1,.45001,1,1s-.45001,1-1,1ZM42.71002,19.70996c-.39001.39001-1.03003.39001-1.42004,0l-2.28998-2.29999v1.59003c0,.54999-.45001,1-1,1s-1-.45001-1-1v-8c0-.54999.45001-1,1-1h2c1.65002,0,3,1.34998,3,3,0,1.52997-1.15002,2.76996-2.62,2.95996l2.33002,2.33002c.38995.39001.38995,1.03003,0,1.41998ZM50.89001,11.45001l-1.89001,3.78998v3.76001c0,.54999-.45001,1-1,1s-1-.45001-1-1v-3.76001l-1.89001-3.78998c-.25-.5-.04999-1.10004.44-1.34003.5-.25,1.10004-.04999,1.34003.44l1.10999,2.21002,1.10999-2.21002c.23999-.48999.84003-.69,1.34003-.44.48999.23999.69.84003.44,1.34003Z"/>
        <path d="M32,30c-4.9624,0-9,4.0376-9,9s4.0376,9,9,9,9-4.0376,9-9-4.0376-9-9-9ZM32,46c-3.85986,0-7-3.14014-7-7s3.14014-7,7-7,7,3.14014,7,7-3.14014,7-7,7Z"/>
        <path d="M9,25v25c0,1.64996,1.34998,3,3,3h40c1.65002,0,3-1.35004,3-3v-25H9ZM14,50c-.54999,0-1-.45001-1-1s.45001-1,1-1,1,.45001,1,1-.45001,1-1,1ZM14,30c-.54999,0-1-.45001-1-1s.45001-1,1-1,1,.45001,1,1-.45001,1-1,1ZM32,50c-6.07001,0-11-4.92999-11-11s4.92999-11,11-11,11,4.92999,11,11-4.92999,11-11,11ZM50,50c-.54999,0-1-.45001-1-1s.45001-1,1-1,1,.45001,1,1-.45001,1-1,1ZM50,30c-.54999,0-1-.45001-1-1s.45001-1,1-1,1,.45001,1,1-.45001,1-1,1Z"/>
      </g>
    </g>
  </g>
</svg>