<?xml version="1.0" encoding="UTF-8"?>
<svg id="Glyph" xmlns="http://www.w3.org/2000/svg" version="1.1" viewBox="0 0 64 64">
  <path d="M48.5,37c-4.41113,0-8,4.48584-8,10,0,2.3291,1.92285,3.07275,3.32715,3.61572.78125.30225,1.51953.58789,1.92285,1.04541.33105.37549.42578,1.2749.50879,2.06836.1377,1.30225.34473,3.27051,2.24121,3.27051,4.41113,0,8-4.48584,8-10s-3.58887-10-8-10Z" fill="#000" stroke-width="0"/>
  <path d="M51.56,9.96997c-.06-1.66998-1.40002-2.96997-3.06-2.96997s-3,1.29999-3.06,2.96997l-.6402,20.03003h7.40039l-.6402-20.03003Z" fill="#000" stroke-width="0"/>
  <path d="M52.39001,35.94l-.12592-3.94h-7.5282l-.12592,3.94c1.19-.60004,2.51001-.94,3.89001-.94s2.70001.33997,3.89001.94Z" fill="#000" stroke-width="0"/>
  <circle cx="27.5" cy="36" r="1" fill="#000" stroke-width="0"/>
  <circle cx="16.5" cy="19" r="1" fill="#000" stroke-width="0"/>
  <path d="M28.5,25c-.81055,0-1.56543-.31689-2.12598-.8916-.56731-.55169-.88371-1.31962-.87403-2.14421.00637-.54241-.47382-.96419-1-.96419-.55176,0-1,.44873-1,1v.11182c0,2.69531,2.19238,4.88818,4.8877,4.88818.56821,0,1.06516-.40701,1.10837-.90791.04699-.5447-.41653-1.09208-.99607-1.09209Z" fill="#000" stroke-width="0"/>
  <circle cx="19.5" cy="34" r="1" fill="#000" stroke-width="0"/>
  <circle cx="14.5" cy="27" r="1" fill="#000" stroke-width="0"/>
  <circle cx="23.5" cy="14" r="1" fill="#000" stroke-width="0"/>
  <path d="M38.99414,21.51221c-1.47852-.07764-2.875-.15088-3.73242-1.15967-1.02246-1.2041-1.82227-3.25098-2.5957-5.23047-1.48828-3.80713-3.17383-8.12207-7.16602-8.12207C15.5752,7,7.5,15.07471,7.5,25s8.0752,18,18,18,18-8.07471,18-18c0-3.25146-2.71191-3.39355-4.50586-3.48779ZM23.5,11c1.6543,0,3,1.3457,3,3s-1.3457,3-3,3-3-1.3457-3-3,1.3457-3,3-3ZM16.5,16c1.6543,0,3,1.3457,3,3s-1.3457,3-3,3-3-1.3457-3-3,1.3457-3,3-3ZM11.5,27c0-1.6543,1.3457-3,3-3s3,1.3457,3,3-1.3457,3-3,3-3-1.3457-3-3ZM19.5,37c-1.6543,0-3-1.3457-3-3s1.3457-3,3-3,3,1.3457,3,3-1.3457,3-3,3ZM27.5,39c-1.6543,0-3-1.3457-3-3s1.3457-3,3-3,3,1.3457,3,3-1.3457,3-3,3ZM28.3877,29c-3.79785,0-6.8877-3.08984-6.8877-6.88818v-.11182c0-1.6543,1.3457-3,3-3,.80273,0,1.58594.32715,2.15039.89697.55664.56396.8584,1.30615.84961,2.09082-.00293.27148.09863.52197.28711.70605.2002.2041.44629.30615.71289.30615.81152,0,1.56641.31689,2.12695.89209.61719.60107.93848,1.47119.86133,2.36963-.12988,1.53564-1.49121,2.73828-3.10059,2.73828ZM34.5,34c-1.6543,0-3-1.3457-3-3s1.3457-3,3-3,3,1.3457,3,3-1.3457,3-3,3Z" fill="#000" stroke-width="0"/>
  <circle cx="34.5" cy="31" r="1" fill="#000" stroke-width="0"/>
</svg>