<?xml version="1.0" encoding="UTF-8"?>
<svg id="Glyph" xmlns="http://www.w3.org/2000/svg" version="1.1" viewBox="0 0 64 64">
  <path d="M15,14c0-.55127-.44824-1-1-1h-1v2h1c.55176,0,1-.44873,1-1Z" style="fill: #000; stroke-width: 0px;"/>
  <path d="M45,41v1h3c.55176,0,1-.44873,1-1v-1h-3c-.55176,0-1,.44873-1,1Z" style="fill: #000; stroke-width: 0px;"/>
  <path d="M26,40h-3v1c0,.55127.44824,1,1,1h3v-1c0-.55127-.44824-1-1-1Z" style="fill: #000; stroke-width: 0px;"/>
  <path d="M56.62,38.06c-.02002-.04004-.03998-.08002-.07001-.10999l-3.72998-4.95001H19.17999l-3.72998,4.95001c-.03003.02997-.04999.06995-.07001.10999-.25.45001-.38.95001-.38,1.45996v8.48004c0,1.64996,1.34998,3,3,3h8c.21997,0,.42999-.07001.59998-.20001l3.73004-2.79999h11.33997l3.73004,2.79999c.16998.13.38.20001.59998.20001h8c1.65002,0,3-1.35004,3-3v-8.48004c0-.50995-.13-1.00995-.38-1.45996ZM29,43c0,.55225-.44727,1-1,1h-4c-1.6543,0-3-1.3457-3-3v-2c0-.55225.44727-1,1-1h4c1.6543,0,3,1.3457,3,3v2ZM40,43h-8c-.55273,0-1-.44775-1-1s.44727-1,1-1h8c.55273,0,1,.44775,1,1s-.44727,1-1,1ZM40,39h-8c-.55273,0-1-.44775-1-1s.44727-1,1-1h8c.55273,0,1,.44775,1,1s-.44727,1-1,1ZM51,41c0,1.6543-1.3457,3-3,3h-4c-.55273,0-1-.44775-1-1v-2c0-1.6543,1.3457-3,3-3h4c.55273,0,1,.44775,1,1v2Z" style="fill: #000; stroke-width: 0px;"/>
  <path d="M17,26v3c0,.45996.31.85999.76001.96997l1.65997.42004.10004-.22003,2.29999-5.16998h-3.82001c-.54999,0-1,.45001-1,1Z" style="fill: #000; stroke-width: 0px;"/>
  <path d="M52.58002,30.39001l1.65997-.42004c.45001-.10999.76001-.51001.76001-.96997v-3c0-.54999-.45001-1-1-1h-3.83002l2.36005,5.27997.04999.11005Z" style="fill: #000; stroke-width: 0px;"/>
  <path d="M56,55h-2v-2h-8v2h-20v-2h-8v2h-6v-31h6c1.65002,0,3-1.35004,3-3v-11c0-1.65002-1.34998-3-3-3h-8c-1.65002,0-3,1.34998-3,3v11c0,1.64996,1.34998,3,3,3v31h-2c-.54999,0-1,.45001-1,1s.45001,1,1,1h48c.54999,0,1-.45001,1-1s-.45001-1-1-1ZM11,19v-7c0-.54999.45001-1,1-1h2c1.65002,0,3,1.34998,3,3s-1.34998,3-3,3h-1v2c0,.54999-.45001,1-1,1s-1-.45001-1-1Z" style="fill: #000; stroke-width: 0px;"/>
  <path d="M50.65997,31l-3.25995-7.32001c-.40002-1.22003-1.55005-2.04999-2.84003-2.04999h-17.12c-1.28998,0-2.44.82996-2.81,1.95996l-3.28998,7.41003h29.31995Z" style="fill: #000; stroke-width: 0px;"/>
</svg>