<?xml version="1.0" encoding="UTF-8"?>
<svg xmlns="http://www.w3.org/2000/svg" version="1.1" viewBox="0 0 64 64">
  <!-- Generator: Adobe Illustrator 28.7.1, SVG Export Plug-In . SVG Version: 1.2.0 Build 142)  -->
  <g>
    <g id="Glyph">
      <g>
        <path d="M56.71104,31.35059l-2.53662-2.53662c1.18555-1.68018,1.82959-3.69189,1.82959-5.75635,0-5.51416-4.48584-10-10-10s-10,4.48584-10,10,4.48584,10,10,10h10c.4043,0,.76904-.24365.92383-.61719.15479-.37402.06934-.8042-.2168-1.08984ZM41.00401,24.05762c-.55231,0-1-.44775-1-1,0-.55231.44769-1,1-1s1,.44769,1,1c0,.55225-.44769,1-1,1ZM46.00401,24.05762c-.55231,0-1-.44775-1-1,0-.55231.44769-1,1-1s1,.44769,1,1c0,.55225-.44769,1-1,1ZM51.00401,24.05762c-.55231,0-1-.44775-1-1,0-.55231.44769-1,1-1s1,.44769,1,1c0,.55225-.44769,1-1,1Z"/>
        <path d="M51.56309,45.40039l-10.17969-10.17969-1.25928-1.25928c-.39062-.39062-1.02344-.39062-1.41406,0s-.39062,1.02344,0,1.41406l.55225.55225-3.65576,3.65576c-.4126.4126-1.08301.41162-1.49463,0l-11.63379-11.63379c-.41211-.41211-.41211-1.08252,0-1.49463l3.65552-3.65552.5642.5642c.36332.36332,1.0301.38398,1.41407,0,.39062-.39062.39062-1.02344,0-1.41406,0,0-1.27014-1.2702-1.271-1.27148l-10.17981-10.17981-1.27087-1.27087c-.39062-.39062-1.02344-.39062-1.41406,0s-.39062,1.02344,0,1.41406l.56396.56396-5.10986,5.10986c-2.87549,2.875-3.24658,7.36328-.8833,10.67139,7.33447,10.26855,16.25928,19.19336,26.52734,26.52734,1.45703,1.04102,3.14209,1.55127,4.81787,1.55127,2.13037,0,4.24463-.82471,5.854-2.43408l5.10986-5.10986.55224.55224c.37609.37609,1.03944.37464,1.41407,0,.39062-.39062.39062-1.02344,0-1.41406l-1.25928-1.25928Z"/>
      </g>
    </g>
  </g>
</svg>