<?xml version="1.0" encoding="UTF-8"?>
<svg id="Glyph" xmlns="http://www.w3.org/2000/svg" version="1.1" viewBox="0 0 48 48">
  <path d="M8,9c-1.65686,0-3,1.34314-3,3v9h6v-9c0-1.65686-1.34314-3-3-3Z" style="fill: #000; stroke-width: 0px;"/>
  <path d="M25,23c0,.55225-.44727,1-1,1s-1-.44775-1-1v-2h-3v22h3v-4c0-.55273.44727-1,1-1s1,.44727,1,1v4h3v-22h-3v2ZM25,35c0,.55273-.44727,1-1,1s-1-.44727-1-1v-2c0-.55273.44727-1,1-1s1,.44727,1,1v2ZM25,29c0,.55273-.44727,1-1,1s-1-.44727-1-1v-2c0-.55273.44727-1,1-1s1,.44727,1,1v2Z" style="fill: #000; stroke-width: 0px;"/>
  <path d="M25,13c0-1.42004.29999-2.78003.84003-4h-13.84003c.63.82996,1,1.87,1,3v28c0,1.65686,1.34314,3,3,3h2v-23c0-.55231.44769-1,1-1h8.24609c-1.27881-1.97626-2.24609-4.09436-2.24609-6Z" style="fill: #000; stroke-width: 0px;"/>
  <path d="M35,26.56c-.73999,0-1.45001-.29004-1.98999-.79999-.64349-.60583-1.78693-1.73541-3.01001-3.14282v20.38281h4c1.65686,0,3-1.34314,3-3v-14.25l-.01001.01001c-.53998.50995-1.25.79999-1.98999.79999Z" style="fill: #000; stroke-width: 0px;"/>
  <circle cx="35" cy="12.77777" r="3" style="fill: #000; stroke-width: 0px;"/>
  <path d="M34.38892,24.31165c.17096.16229.39148.2439.61108.2439s.44012-.0816.61108-.2439c.75696-.71619,7.38892-7.12286,7.38892-11.31165,0-4.41101-3.58856-8-8-8s-8,3.58899-8,8c0,4.18878,6.63196,10.59546,7.38892,11.31165ZM30,12.77777c0-2.75684,2.24316-5,5-5s5,2.24316,5,5-2.24316,5-5,5-5-2.24316-5-5Z" style="fill: #000; stroke-width: 0px;"/>
</svg>