<?xml version="1.0" encoding="UTF-8"?>
<svg xmlns="http://www.w3.org/2000/svg" version="1.1" viewBox="0 0 64 64">
  <!-- Generator: Adobe Illustrator 28.7.1, SVG Export Plug-In . SVG Version: 1.2.0 Build 142)  -->
  <g>
    <g id="Glyph">
      <g>
        <path d="M24.80538,19.50034c1.64014.94678,2.61914,2.64209,2.61914,4.53564s-.97894,3.58881-2.61902,4.53558c-.47388.27362-.63977.89203-.36633,1.36627l3,5.19629c.27588.47705.88623.64062,1.36621.36621,1.64014-.94678,3.59863-.94678,5.23779,0,1.63965.94629,2.61865,2.64209,2.61865,4.53564v-7.93408c-3.05859-1.51611-5-4.6123-5-8.06592,0-3.68311,2.20752-6.95898,5.62354-8.34668.30811-.125.65869-.08936.93506.09717.27588.18604.44141.49707.44141.82959v5.88477l2,1.3335,2-1.3335v-5.88477c0-.33252.16553-.64355.44141-.82959.27686-.18555.62598-.2207.93506-.09717,3.41602,1.3877,5.62354,4.66357,5.62354,8.34668,0,3.45361-1.94141,6.5498-5,8.06592v7.93408c0-1.89355.979-3.58936,2.61865-4.53564,1.63965-.94727,3.59814-.94727,5.23779,0,.479.27441,1.08936.11084,1.36621-.36621,0,0,2.99475-5.18713,3-5.19623.27405-.47467.10657-1.09265-.36621-1.36627-1.64014-.94678-2.61914-2.64209-2.61914-4.53564s.979-3.58881,2.61908-4.53558c.47363-.27344.63989-.89172.36627-1.36627l-3-5.19629c-.27686-.47852-.88721-.64258-1.36621-.36621-1.63867.94727-3.59717.94824-5.23779,0-1.63965-.94629-2.61865-2.64209-2.61865-4.53564,0-.55225-.44775-1-1-1h-6c-.55225,0-1,.44775-1,1,0,1.89355-.979,3.58936-2.61865,4.53564-1.63965.94727-3.59814.94727-5.23779,0-.47998-.27637-1.09033-.1123-1.36621.36621,0,0-2.99884,5.19427-3,5.19629-.27405.47467-.1073,1.09222.36621,1.36621Z"/>
        <path d="M42.48355,41.03599v-9.58008c0-.40723.24658-.77344.62354-.92627,2.65869-1.08008,4.37646-3.62891,4.37646-6.49365,0-2.33398-1.14014-4.45801-3-5.74902v4.74902c0,.33447-.16699.64648-.44531.83203l-3,2c-.33594.22363-.77344.22363-1.10938,0l-3-2c-.27832-.18555-.44531-.49756-.44531-.83203v-4.74902c-1.85986,1.29102-3,3.41504-3,5.74902,0,2.86475,1.71777,5.41357,4.37646,6.49365.37695.15283.62354.51904.62354.92627v9.58008h4Z"/>
        <rect x="6.98355" y="38.53599" width="8.05878" height="18" rx="2" ry="2"/>
        <path d="M54.20266,44.41202l-11.76801,5.0434c-.12402.05316-.25745.08057-.39233.08057h-14c-.55273,0-1-.44727-1-1s.44727-1,1-1h10.00098c1.30768,0,2.49933-.94098,2.62964-2.24219.14978-1.49646-1.02136-2.75781-2.48706-2.75781l-8.05157-.00006c-1.35834,0-2.72418-.24506-3.93488-.86102-1.46503-.7453-3.10895-1.13892-4.74988-1.13892h-4.40723v14h3.35645c2.04224,0,4.06598.38879,5.96204,1.14752,4.64923,1.86023,9.98993,1.68628,14.50769-.47369l14.98059-7.16486c1.24158-.59381,1.52301-2.23682.54987-3.20996-.57678-.57678-1.44659-.74426-2.19629-.42297Z"/>
      </g>
    </g>
  </g>
</svg>