<?xml version="1.0" encoding="UTF-8"?>
<svg id="Glyph" xmlns="http://www.w3.org/2000/svg" version="1.1" viewBox="0 0 64 64">
  <path d="M25,31.48047c4.42578,2.01367,9.57422,2.01367,14,0v-11.48047h-14v11.48047Z" style="fill: #000; stroke-width: 0px;"/>
  <rect x="19" y="39" width="6" height="2" style="fill: #000; stroke-width: 0px;"/>
  <rect x="39" y="39" width="6" height="2" style="fill: #000; stroke-width: 0px;"/>
  <path d="M42,11h-20c-1.6543,0-3,1.3457-3,3v23h7c.55273,0,1,.44727,1,1v4c0,.55273-.44727,1-1,1h-7v1c0,1.6543,1.3457,3,3,3h2.52283l-3.45154,8.62891c-.20508.5127.04492,1.09473.55762,1.2998.12109.04883.24707.07129.37109.07129.39648,0,.77246-.2373.92871-.62891l1.34845-3.37109h15.44568l1.34845,3.37109c.15625.3916.53223.62891.92871.62891.12402,0,.25-.02246.37109-.07129.5127-.20508.7627-.78711.55762-1.2998l-3.45154-8.62891h2.52283c1.6543,0,3-1.3457,3-3v-1h-7c-.55273,0-1-.44727-1-1v-4c0-.55273.44727-1,1-1h7V14c0-1.6543-1.3457-3-3-3ZM28,14h8c.55273,0,1,.44727,1,1s-.44727,1-1,1h-8c-.55273,0-1-.44727-1-1s.44727-1,1-1ZM24,14c.55231,0,1,.44769,1,1,0,.55225-.44769,1-1,1s-1-.44775-1-1c0-.55231.44769-1,1-1ZM38.92285,51h-13.8457l1.59998-4h10.64575l1.59998,4ZM41,32.11133c0,.37891-.21387.72461-.55273.89453-2.64453,1.32227-5.5459,1.9834-8.44727,1.9834s-5.80273-.66113-8.44727-1.9834c-.33887-.16992-.55273-.51562-.55273-.89453v-13.11133c0-.55273.44727-1,1-1h16c.55273,0,1,.44727,1,1v13.11133ZM40,16c-.55231,0-1-.44775-1-1,0-.55231.44769-1,1-1s1,.44769,1,1c0,.55225-.44769,1-1,1Z" style="fill: #000; stroke-width: 0px;"/>
  <path d="M36,7h-8c-1.29999,0-2.40997.83997-2.82001,2h13.64001c-.41003-1.16003-1.52002-2-2.82001-2Z" style="fill: #000; stroke-width: 0px;"/>
</svg>