<?xml version="1.0" encoding="UTF-8"?>
<svg id="Glyph" xmlns="http://www.w3.org/2000/svg" version="1.1" viewBox="0 0 48 48">
  <path d="M10.05066,23c.22119-3.1076,1.4552-5.9339,3.38104-8.15417l-3.534-3.53363c-2.82361,3.13513-4.61194,7.20398-4.84705,11.68781h5Z" fill="#000" stroke-width="0"/>
  <path d="M24,12c-6.61719,0-12,5.3833-12,12,0,6.61719,5.38281,12,12,12s12-5.38281,12-12c0-6.6167-5.38281-12-12-12ZM25.03418,31.95703c-.24902.03125-.48926.04297-.74023.04297-3.12933,0-5.89008-1.78595-7.20306-4.57355l-.12506.46612c-.14052.52376-.70159.84807-1.22461.70703-.5332-.14258-.85059-.69141-.70703-1.22461l.73242-2.73193c.14355-.5332.69336-.84912,1.22461-.70703l2.73145.73193c.5332.14307.84961.69141.70703,1.22461-.1416.53516-.68945.85254-1.22461.70703l-.34308-.09186c.96869,2.12628,3.05975,3.49225,5.43195,3.49225.1748,0,.33984-.00684.51367-.03027.59277-.09473,1.1416.3916,1.1416.99023,0,.52539-.40039.95605-.91504.99707ZM24.58691,19.70703c-.39062-.39062-.39062-1.02344,0-1.41406l.26312-.26312c-.16663-.01776-.34583-.02985-.55609-.02985-2.3418,0-4.48047,1.37207-5.44922,3.49512-.16797.36816-.53125.58496-.91113.58496-.13867,0-.2793-.02881-.41406-.09033-.50293-.229-.72363-.82227-.49512-1.32471,1.29297-2.83398,4.14648-4.66504,7.26953-4.66504.21704,0,.41846.00824.60919.02325l-.31622-.31622c-.39062-.39062-.39062-1.02344,0-1.41406s1.02344-.39062,1.41406,0l2,2c.39062.39062.39062,1.02344,0,1.41406l-2,2c-.38556.3855-1.0282.38586-1.41406,0ZM31.84766,30.33203s-2.73242.73145-2.73245.73145c-.52632.14191-1.08341-.18135-1.22459-.70704l-.73242-2.73145c-.14355-.5332.17383-1.08203.70703-1.22461.5332-.14453,1.08203.17285,1.22461.70703l.08978.33472c.71954-1.00647,1.11432-2.18408,1.11432-3.44214,0-1.25391-.38184-2.45361-1.10449-3.47021-.32031-.4502-.21484-1.07422.23535-1.39453.45117-.31934,1.0752-.21387,1.39355.23535.96582,1.35693,1.47559,2.95752,1.47559,4.62939,0,1.65027-.513,3.19739-1.44354,4.52875l.47968-.12836c.53516-.14258,1.08203.17383,1.22461.70703.14258.53418-.17383,1.08203-.70703,1.22461Z" fill="#000" stroke-width="0"/>
  <path d="M10.05066,25h-5c.23511,4.48395,2.02356,8.55286,4.84729,11.68799l3.53381-3.53381c-1.92584-2.22028-3.15991-5.04657-3.3811-8.15417Z" fill="#000" stroke-width="0"/>
  <path d="M37.94934,25c-.22119,3.1076-1.45526,5.9339-3.3811,8.15417l3.53381,3.53381c2.82373-3.13513,4.61218-7.20404,4.84729-11.68799h-5Z" fill="#000" stroke-width="0"/>
  <path d="M23,37.94934c-3.1076-.22119-5.9339-1.45526-8.15417-3.3811l-3.53381,3.53381c3.13513,2.82373,7.20404,4.61218,11.68799,4.84729v-5Z" fill="#000" stroke-width="0"/>
  <path d="M33.15417,34.56824c-2.22028,1.92584-5.04657,3.15991-8.15417,3.3811v5c4.48395-.23511,8.55286-2.02356,11.68799-4.84729l-3.53381-3.53381Z" fill="#000" stroke-width="0"/>
  <path d="M14.84576,13.43176c2.22028-1.9259,5.04657-3.15991,8.15424-3.3811v-5c-4.48407.23511-8.55304,2.02368-11.68823,4.84747l3.534,3.53363Z" fill="#000" stroke-width="0"/>
  <path d="M25,5.05066v5c3.10767.22119,5.93396,1.4552,8.15424,3.3811l3.534-3.53363c-3.13519-2.82379-7.20416-4.61237-11.68823-4.84747Z" fill="#000" stroke-width="0"/>
  <path d="M34.5683,14.84583c1.92584,2.22028,3.15985,5.04657,3.38104,8.15417h5c-.23511-4.48383-2.02344-8.55267-4.84705-11.68781l-3.534,3.53363Z" fill="#000" stroke-width="0"/>
</svg>