<?xml version="1.0" encoding="UTF-8"?>
<svg xmlns="http://www.w3.org/2000/svg" version="1.1" viewBox="0 0 64 64">
  <!-- Generator: Adobe Illustrator 28.7.1, SVG Export Plug-In . SVG Version: 1.2.0 Build 142)  -->
  <g>
    <g id="Glyph">
      <path d="M32,7c-13.78516,0-25,11.21484-25,25s11.21484,25,25,25,25-11.21484,25-25S45.78516,7,32,7ZM18.18262,16.18604c4.21777-3.68506,9.62891-5.50635,15.22852-5.12939,5.60254.37793,10.71777,2.90869,14.40283,7.12598.36328.41595.3208,1.04779-.09467,1.41107-.39728.34741-1.04968.3186-1.41119-.09467-3.33398-3.81543-7.96191-6.10498-13.03125-6.44678-5.06885-.33789-9.96289,1.30664-13.77783,4.63965-.4165.36377-1.04736.32129-1.41113-.09473-.36328-.41602-.3208-1.04785.09473-1.41113ZM35.30029,41.36475c.42383.35449.47998.98529.12549,1.40863-.35022.41833-.99042.47498-1.40869.12555l-2.16895-1.81494c-.42383-.35449-.47949-.98535-.12549-1.40869l1.81494-2.16943c.35449-.42383.98584-.48047,1.40869-.12549.42383.35449.47998.98535.12549,1.40869l-.3692.44141h5.12555c.35059,0,.65869-.16992.8457-.46631.18701-.29688.20752-.64844.05615-.96484l-2.93213-6.1377c-.23828-.49854-.02686-1.09521.47119-1.3335.49805-.23926,1.09473-.02832,1.3335.47119l2.93213,6.1377c.44678.93506.3833,2.01709-.16943,2.89355-.55225.87646-1.50098,1.3999-2.53711,1.3999h-4.68835l.16052.13428ZM38.7793,25.19482s-.90759,2.67505-.90869,2.67822c-.17346.51123-.75702.79895-1.26807.62549l-2.67871-.90869c-.52295-.17725-.80322-.74512-.62549-1.26807.17725-.52246.74463-.80273,1.26807-.62549l.44366.15045-2.10773-4.41022c-.33984-.71191-1.46484-.71191-1.80469,0l-2.9751,6.2251c-.23877.49951-.83691.70898-1.3335.47119-.49854-.23828-.70947-.83545-.47119-1.3335l2.9751-6.2251c.50342-1.05273,1.54053-1.70654,2.70703-1.70654s2.20361.65381,2.70703,1.70654l2.06348,4.31763.11523-.3396c.17676-.52295.74365-.8042,1.26807-.62549.52295.17725.80322.74512.62549,1.26807ZM23.34668,32.26367c-.5249.16699-1.08789-.12793-1.25342-.65479-.16553-.52734.12793-1.08838.65479-1.25342l2.69922-.84619c.52832-.16309,1.08887.12793,1.25342.65479l.84619,2.69873c.16553.52734-.12793,1.08838-.65479,1.25342-.52014.16315-1.09039-.13422-1.25342-.65479l-.11743-.37457-2.25122,4.71246c-.15137.31641-.13086.66797.05615.96484.18701.29639.49512.46631.8457.46631h3.82812c.55225,0,1,.44775,1,1s-.44775,1-1,1h-3.82812c-1.03613,0-1.98486-.52344-2.53711-1.3999-.55273-.87646-.61621-1.9585-.16943-2.89355l2.29443-4.8028-.41309.12946ZM26.68799,15.84961c.52441-.16992,1.08936.11279,1.26221.63818.17236.52441-.11328,1.08936-.63818,1.26221-6.16797,2.02686-10.31201,7.75342-10.31201,14.25s4.14404,12.22314,10.31201,14.25c.52484.17285.81049.73767.63824,1.26208-.16998.51727-.74725.80591-1.26227.63831-6.99121-2.29785-11.68799-8.78809-11.68799-16.15039s4.69678-13.85254,11.68799-16.15039ZM45.81738,47.81396c-3.85303,3.3667-8.70068,5.17822-13.78125,5.17822-.48096,0-.96289-.01611-1.44727-.04883-5.60254-.37793-10.71777-2.90869-14.40283-7.12598-.36328-.41602-.3208-1.04785.09473-1.41113.41748-.36328,1.04785-.3208,1.41113.09473,3.33398,3.81543,7.96191,6.10498,13.03125,6.44678,5.07275.33936,9.96289-1.30615,13.77783-4.63965.41797-.36279,1.04834-.31982,1.41113.09473.36328.41602.3208,1.04785-.09473,1.41113ZM37.31201,48.15039c-.50232.16504-1.08942-.11316-1.26221-.63818-.17236-.52441.11328-1.08936.63818-1.26221,6.16797-2.02686,10.31201-7.75342,10.31201-14.25s-4.14404-12.22314-10.31201-14.25c-.5249-.17285-.81055-.73779-.63818-1.26221.17285-.52539.7373-.80762,1.26221-.63818,6.99121,2.29785,11.68799,8.78809,11.68799,16.15039s-4.69678,13.85248-11.68799,16.15039Z"/>
    </g>
  </g>
</svg>