<?xml version="1.0" encoding="UTF-8"?>
<svg id="Glyph" xmlns="http://www.w3.org/2000/svg" version="1.1" viewBox="0 0 48 48">
  <path d="M28,19V5h-3v5c0,.55225-.44775,1-1,1s-1-.44775-1-1v-5h-3v14c0,.55225-.44775,1-1,1H5v3h5c.55225,0,1,.44775,1,1s-.44775,1-1,1h-5v3h14c.55225,0,1,.44775,1,1v14h3v-5c0-.55225.44775-1,1-1s1,.44775,1,1v5h3v-14c0-.55225.44775-1,1-1h14v-3h-5c-.55225,0-1-.44775-1-1s.44775-1,1-1h5v-3h-14c-.55225,0-1-.44775-1-1ZM18,25h-4c-.55225,0-1-.44775-1-1s.44775-1,1-1h4c.55225,0,1,.44775,1,1s-.44775,1-1,1ZM23,14c0-.55225.44775-1,1-1s1,.44775,1,1v4c0,.55225-.44775,1-1,1s-1-.44775-1-1v-4ZM25,34c0,.55225-.44775,1-1,1s-1-.44775-1-1v-4c0-.55225.44775-1,1-1s1,.44775,1,1v4ZM24,27c-1.6543,0-3-1.3457-3-3s1.3457-3,3-3,3,1.3457,3,3-1.3457,3-3,3ZM30,23h4c.55225,0,1,.44775,1,1s-.44775,1-1,1h-4c-.55225,0-1-.44775-1-1s.44775-1,1-1Z" style="fill: #000; stroke-width: 0px;"/>
  <path d="M39,5h-9v13h13v-9c0-2.20557-1.79443-4-4-4Z" style="fill: #000; stroke-width: 0px;"/>
  <circle cx="24" cy="24" r="1" style="fill: #000; stroke-width: 0px;"/>
  <path d="M18,5h-9c-2.20557,0-4,1.79443-4,4v9h13V5Z" style="fill: #000; stroke-width: 0px;"/>
  <path d="M5,39c0,2.20557,1.79443,4,4,4h9v-13H5v9Z" style="fill: #000; stroke-width: 0px;"/>
  <path d="M30,43h9c2.20557,0,4-1.79443,4-4v-9h-13v13Z" style="fill: #000; stroke-width: 0px;"/>
</svg>