<?xml version="1.0" encoding="UTF-8"?>
<svg xmlns="http://www.w3.org/2000/svg" version="1.1" viewBox="0 0 48 48">
  <!-- Generator: Adobe Illustrator 28.7.1, SVG Export Plug-In . SVG Version: 1.2.0 Build 142)  -->
  <g>
    <g id="Glyph">
      <g>
        <path d="M14.02886,5H6.00321c-.55402,0-1.00321.44775-1.00321,1v3h5.01603c.55402,0,1.00321.44775,1.00321,1s-.44919,1-1.00321,1h-5.01603v2h4.01283c.55402,0,1.00321.44775,1.00321,1s-.44919,1-1.00321,1h-4.01283v2h5.01603c.55402,0,1.00321.44775,1.00321,1s-.44919,1-1.00321,1h-5.01603v2h4.01283c.55402,0,1.00321.44775,1.00321,1s-.44919,1-1.00321,1h-4.01283v2h5.01603c.55402,0,1.00321.44775,1.00321,1s-.44919,1-1.00321,1h-5.01603v2h4.01283c.55402,0,1.00321.44775,1.00321,1s-.44919,1-1.00321,1h-4.01283v2h5.01603c.55402,0,1.00321.44775,1.00321,1s-.44919,1-1.00321,1h-5.01603v2h4.01283c.55402,0,1.00321.44775,1.00321,1s-.44919,1-1.00321,1h-4.01283v3c0,.55225.44919,1,1.00321,1h8.02565c.55402,0,1.00321-.44775,1.00321-1V6c0-.55225-.44919-1-1.00321-1Z"/>
        <path d="M35.0962,23.60791c0-2.20551-1.80031-4-4.01283-4s-4.01283,1.79449-4.01283,4,1.80031,4,4.01283,4,4.01283-1.79456,4.01283-4ZM31.08338,24.60791c-.55304,0-1.00321-.44873-1.00321-1s.45017-1,1.00321-1,1.00321.44873,1.00321,1-.45017,1-1.00321,1Z"/>
        <path d="M25.72623,26.32996l-5.8988,9.07001c-.71065,1.09406-.60306,2.47266.15051,3.45178l-.64795.9964c-.30126.46332-.16851,1.08246.2963,1.38324.4457.28845,1.08648.16699,1.3878-.29535l.64488-.9917c1.22823.28644,2.52835-.22137,3.2246-1.27435l5.88882-9.08002c-2.20707-.09998-4.10314-1.39996-5.04616-3.26001Z"/>
        <path d="M42.84093,39.84998l-.65205-1c.75241-.97998.86274-2.35999.15044-3.45001l-5.8988-9.07001c-.63203,1.24005-1.68544,2.23004-2.96951,2.77002l-1.19382,1.85004,5.00599,7.71997c.68217,1.04999,2.00641,1.56,3.22032,1.27002,0,0,.65205.98999.65205,1,.29097.45001.92299.58997,1.38443.28998.4615-.29999.60196-.91998.30095-1.38Z"/>
        <path d="M34.093,9.60791c0-1.65686-1.34745-3-3.00962-3s-3.00962,1.34314-3.00962,3v3h6.01924v-3Z"/>
        <path d="M25.15445,24.60999c-.06019-.33002-.09032-.65997-.09032-1,0-3.71423,3.39801-6.64783,7.2599-5.87585,2.77731.55511,4.80209,3.10034,4.7784,5.92383-.00276.32312-.03276.63751-.09013.95203,1.70497,0,3.09994-1.3905,3.09994-3.09003v-3.91205c0-1.65686-1.34745-3-3.00962-3h-12.03848c-1.66217,0-3.00962,1.34314-3.00962,3v3.91205c0,1.69952,1.39496,3.09003,3.09994,3.09003Z"/>
      </g>
    </g>
  </g>
</svg>