<?xml version="1.0" encoding="UTF-8"?>
<svg id="Glyph" xmlns="http://www.w3.org/2000/svg" version="1.1" viewBox="0 0 48 48">
  <path d="M11.29297,9.70703c.19531.19531.45117.29297.70703.29297s.51172-.09766.70703-.29297l3-3c.39062-.39062.39062-1.02344,0-1.41406s-1.02344-.39062-1.41406,0l-2.29297,2.29297-1.29297-1.29297c-.39062-.39062-1.02344-.39062-1.41406,0s-.39062,1.02344,0,1.41406l2,2Z" fill="#000" stroke-width="0"/>
  <path d="M35.29297,9.70703c.19531.19531.45117.29297.70703.29297s.51172-.09766.70703-.29297l3-3c.39062-.39062.39062-1.02344,0-1.41406s-1.02344-.39062-1.41406,0l-2.29297,2.29297-1.29297-1.29297c-.39062-.39062-1.02344-.39062-1.41406,0s-.39062,1.02344,0,1.41406l2,2Z" fill="#000" stroke-width="0"/>
  <circle cx="24" cy="8" r="3" fill="#000" stroke-width="0"/>
  <path d="M43,16c0-1.10004-.90002-2-2-2h-14v-2c-.83002.63-1.87,1-3,1s-2.16998-.37-3-1v2H7c-1.09998,0-2,.89996-2,2,0,1.09998.90002,2,2,2h3.47998l-2.13995,5h-1.34003c-.54999,0-1,.45001-1,1v1c0,3.31,2.69,6,6,6s6-2.69,6-6v-1c0-.54999-.45001-1-1-1h-1.34003l-2.13995-5h7.47998v10h6v-10h7.47998l-2.13995,5h-1.34003c-.54999,0-1,.45001-1,1v1c0,3.31,2.69,6,6,6s6-2.69,6-6v-1c0-.54999-.45001-1-1-1h-1.34003l-2.13995-5h3.47998c1.09998,0,2-.90002,2-2ZM10.52002,23l1.47998-3.46002,1.47998,3.46002h-2.95996ZM34.52002,23l1.47998-3.46002,1.47998,3.46002h-2.95996Z" fill="#000" stroke-width="0"/>
  <path d="M13,37v1h22v-1c0-1.10461-.89545-2-2-2H15c-1.10455,0-2,.89539-2,2Z" fill="#000" stroke-width="0"/>
  <path d="M28,30h-8c-1.10455,0-2,.89539-2,2v1h12v-1c0-1.10461-.89545-2-2-2Z" fill="#000" stroke-width="0"/>
  <rect x="9" y="40" width="30" height="3" rx="1" ry="1" fill="#000" stroke-width="0"/>
</svg>