<?xml version="1.0" encoding="UTF-8"?>
<svg xmlns="http://www.w3.org/2000/svg" version="1.1" viewBox="0 0 48 48">
  <!-- Generator: Adobe Illustrator 28.7.1, SVG Export Plug-In . SVG Version: 1.2.0 Build 142)  -->
  <g>
    <g id="Glyph">
      <g>
        <polygon points="24 21.80227 37 24.16597 37 22.1979 24 19.83394 24 21.80227"/>
        <polygon points="24 25.80227 37 28.16597 37 26.19777 24 23.83407 24 25.80227"/>
        <polygon points="24 33.80227 37 36.16597 37 34.19765 24 31.83413 24 33.80227"/>
        <path d="M40,5.00002h-6c-1.10455,0-2,.89539-2,2v1h-3v-1c0-1.10461-.89545-2-2-2h-6c-1.10455,0-2,.89539-2,2v5c0,1.10455.89545,2,2,2h19c1.10455,0,2-.89545,2-2v-5c0-1.10461-.89545-2-2-2Z"/>
        <path d="M24,38.00002c0,1.6543,1.3457,3,3,3h7c1.58777,0,2.87817-1.24341,2.98035-2.80579l-12.98035-2.36017v2.16595Z"/>
        <polygon points="24 17.80214 37 20.1661 37 16.00002 24 16.00002 24 17.80214"/>
        <polygon points="24 29.80239 37 32.16591 37 30.19777 24 27.83407 24 29.80239"/>
        <path d="M9,12.23635v8.76367h6v-8.76367l.89453-1.78906c.10645-.21387.1333-.45801.07568-.68945l-1-4c-.11133-.44531-.51123-.75781-.97021-.75781h-4c-.45898,0-.85889.3125-.97021.75781l-1,4c-.05762.23145-.03076.47559.07568.68945l.89453,1.78906Z"/>
        <path d="M16.46002,23.00002H7.53998c-.85052,0-1.53998.68945-1.53998,1.53998v.00006c0,1.10254.56494,2.08984,1.47217,2.57715.32568.17578.52783.51367.52783.88281s-.20215.70703-.52637.88184c-.90869.48828-1.47363,1.47559-1.47363,2.57812v5.3313c0,3.04919,2.18622,5.77002,5.21057,6.15796,3.659.46942,6.78943-2.38098,6.78943-5.94922v-5.54004c0-1.10254-.56494-2.08984-1.47217-2.57715-.32568-.17578-.52783-.51367-.52783-.88281s.20215-.70703.52637-.88184c.90869-.48828,1.47363-1.47559,1.47363-2.57812v-.00006c0-.85052-.68945-1.53998-1.53998-1.53998ZM12,39.00002c-.55231,0-1-.44775-1-1,0-.55231.44769-1,1-1s1,.44769,1,1c0,.55225-.44769,1-1,1ZM13,34.00002c0,.55273-.44775,1-1,1s-1-.44727-1-1v-3c0-.55273.44775-1,1-1s1,.44727,1,1v3Z"/>
      </g>
    </g>
  </g>
</svg>