<?xml version="1.0" encoding="UTF-8"?>
<svg xmlns="http://www.w3.org/2000/svg" version="1.1" viewBox="0 0 64 64">
  <!-- Generator: Adobe Illustrator 28.7.1, SVG Export Plug-In . SVG Version: 1.2.0 Build 142)  -->
  <g>
    <g id="Glyph">
      <g>
        <circle cx="32" cy="32" r="1"/>
        <path d="M56,27h-2.58105c-.5459-2.35742-1.46191-4.57568-2.73242-6.61523l1.81934-1.81982c.39062-.39062.39062-1.02344,0-1.41406l-5.65674-5.65674c-.39062-.39062-1.02344-.39062-1.41406,0l-1.81982,1.81934c-2.03906-1.27002-4.25781-2.18652-6.61523-2.73242v-2.58105c0-.55225-.44775-1-1-1h-8c-.55225,0-1,.44775-1,1v2.58105c-2.35742.5459-4.57617,1.4624-6.61523,2.73242l-1.81982-1.81934c-.39062-.39062-1.02344-.39062-1.41406,0l-5.65674,5.65674c-.39062.39062-.39062,1.02344,0,1.41406l1.81934,1.81982c-1.27051,2.03955-2.18652,4.25781-2.73242,6.61523h-2.58105c-.55225,0-1,.44775-1,1v8c0,.55225.44775,1,1,1h2.58105c.5459,2.35742,1.4624,4.57617,2.73242,6.61523l-1.81934,1.81982c-.39062.39062-.39062,1.02344,0,1.41406l5.65674,5.65674c.39062.39062,1.02344.39062,1.41406,0l1.81982-1.81934c2.03906,1.27002,4.25781,2.18652,6.61523,2.73242v2.58105c0,.55225.44775,1,1,1h8c.55225,0,1-.44775,1-1v-2.58105c2.35742-.5459,4.57617-1.4624,6.61523-2.73242l1.81982,1.81934c.39062.39062,1.02344.39062,1.41406,0l5.65674-5.65674c.39062-.39062.39062-1.02344,0-1.41406l-1.81934-1.81982c1.27002-2.03906,2.18652-4.25781,2.73242-6.61523h2.58105c.55225,0,1-.44775,1-1v-8c0-.55225-.44775-1-1-1ZM32,49c-9.37402,0-17-7.62598-17-17s7.62598-17,17-17c2.96436,0,5.88086.77441,8.4375,2.23926.06739.03271.13575.0708.20264.11084.83527.49237,1.62225,1.06091,2.35986,1.6864v-1.0365c0-.55225.44775-1,1-1s1,.44775,1,1v3c0,.43066-.27539.8125-.68359.94873,0,0-3,1-3.00059,1.0002-.51935.17356-1.09081-.11178-1.26455-.63252-.1748-.52393.1084-1.09033.63232-1.26514l1.12274-.37415c-.68353-.5918-1.40198-1.14423-2.18427-1.60583-.04395-.01758-.10107-.05176-.14209-.0752-1.97516-1.13977-4.19745-1.81024-6.47998-1.96228v.96619c0,.55225-.44775,1-1,1s-1-.44775-1-1v-.94934c-3.38281.22473-6.45715,1.56934-8.8609,3.67438l.66852.66852c.39043.39043.39062,1.02282.00057,1.41349-.354.35456-1.03123.38397-1.41463.00057l-.66852-.66852c-2.10504,2.40375-3.44965,5.47809-3.67438,8.8609h.94934c.55225,0,1,.44775,1,1s-.44775,1-1,1h-.94934c.22473,3.38281,1.56934,6.45715,3.67438,8.8609l.66852-.66852c.39062-.39062,1.02344-.39062,1.41406,0s.39062,1.02344,0,1.41406l-.66852.66852c2.40375,2.10504,5.47809,3.44965,8.8609,3.67438v-.94934c0-.55225.44775-1,1-1s1,.44775,1,1v.94934c3.38281-.22473,6.45715-1.56934,8.8609-3.67438l-.66852-.66852c-.39062-.39062-.39062-1.02344,0-1.41406s1.02344-.39062,1.41406,0l.66852.66852c2.10504-2.40375,3.44965-5.47809,3.67438-8.8609h-.94934c-.55225,0-1-.44775-1-1s.44775-1,1-1h.93866c-.14142-2.10254-.69781-4.17108-1.68231-6.03223-.2583-.48828-.07178-1.09326.41602-1.35156.48975-.25781,1.09424-.07178,1.35156.41602,1.29297,2.44385,1.97607,5.19873,1.97607,7.96777,0,9.37402-7.62598,17-17,17ZM29.18433,33h-5.18433c-.55225,0-1-.44775-1-1s.44775-1,1-1h5.18427c.30206-.84717.96857-1.51367,1.81573-1.81573v-7.18427c0-.55225.44775-1,1-1s1,.44775,1,1v7.18427c.84717.30206,1.51367.96857,1.81573,1.81573h1.18427c.55225,0,1,.44775,1,1s-.44775,1-1,1h-1.18427c-.30206.84717-.96857,1.51367-1.81573,1.81573v1.18427c0,.55225-.44775,1-1,1s-1-.44775-1-1v-1.18433c-.84717-.30206-1.51361-.96851-1.81567-1.81567Z"/>
      </g>
    </g>
  </g>
</svg>