<?xml version="1.0" encoding="UTF-8"?>
<svg id="Glyph" xmlns="http://www.w3.org/2000/svg" version="1.1" viewBox="0 0 48 48">
  <path d="M42.42535,29.11102c-.43408-.64319-.64319-1.42383-.58911-2.1972.09418-1.34698-.67175-2.67322-1.88354-3.26331-.69727-.33984-1.26874-.91132-1.60858-1.60852-.59485-1.22034-1.91522-1.96893-3.26331-1.88367-.76801.05408-1.55359-.15503-2.19678-.58905-1.11511-.75183-2.65253-.75183-3.76849,0-.64276.43402-1.42468.64313-2.19629.58905-1.35339-.09485-2.66937.66669-3.26331,1.88361-.33984.69727-.91138,1.26868-1.60767,1.60852-1.22131.59607-1.97925,1.90686-1.88452,3.26331.05408.77344-.15503,1.55402-.58911,2.1972-.7597,1.12579-.75903,2.6413,0,3.76715.43408.64319.64319,1.42377.58911,2.1972-.09479,1.35565.66333,2.66772,1.88354,3.26331.69727.33984,1.2688.91132,1.60864,1.60858.59497,1.2207,1.90851,1.97852,3.26324,1.88361.76709-.05316,1.55353.15503,2.19672.58905,1.1217.75702,2.64874.75446,3.76855.00006.64276-.43408,1.42377-.64227,2.19629-.58911,1.35291.09308,2.66919-.66638,3.26331-1.88354.33984-.69727.91132-1.2688,1.60858-1.60864,1.21765-.59351,1.97784-1.91376,1.88361-3.26324-.05408-.77344.15503-1.55408.58911-2.19727.75995-1.1261.75867-2.64166,0-3.76709ZM31,38.99414c-4.41113,0-8-3.58887-8-8s3.58887-8,8-8,8,3.58887,8,8-3.58887,8-8,8Z" fill="#000" stroke-width="0"/>
  <path d="M31,24.99414c-3.30859,0-6,2.69141-6,6s2.69141,6,6,6,6-2.69141,6-6-2.69141-6-6-6ZM34.20703,30.20117l-3,3c-.38745.38739-1.02753.38654-1.41406,0l-2-2c-.39062-.39062-.39062-1.02344,0-1.41406s1.02344-.39062,1.41406,0l1.29297,1.29297,2.29297-2.29297c.39062-.39062,1.02344-.39062,1.41406,0s.39062,1.02344,0,1.41406Z" fill="#000" stroke-width="0"/>
  <path d="M21.16998,21.84998c.29999-.14001.54004-.39001.69-.67999.47003-.96997,1.21002-1.76001,2.14001-2.29999.94135-.54657,2.07379-.80878,3.15997-.70001.30005,0,.59003-.09003.84003-.26001.31311-.2099.65179-.37103,1-.50873v-3.92078c-.97949-.65674-1.82373-1.50098-2.48047-2.48047h-13.03906c-.65674.97949-1.50098,1.82373-2.48047,2.48047v6.51953c0,2.05872,3.06848,5.4173,6.72357,8.33331.06561-.1145.12219-.23322.19641-.34332.17999-.27002.27002-.60999.25-.94-.07996-1.07001.17004-2.13.71002-3.06.52997-.92999,1.33002-1.66998,2.28998-2.14001Z" fill="#000" stroke-width="0"/>
  <path d="M18.16998,34.94c.02002-.34003-.07001-.67004-.25-.94-.59998-.89001-.91998-1.92999-.91998-3.01001,0-.22168.02209-.44073.04919-.65875-3.1153-2.42273-8.04919-6.81116-8.04919-10.33124v-7.07373c0-.35645.18994-.68652.49854-.86523,1.06152-.61523,1.94727-1.50098,2.5625-2.5625.17871-.30859.50879-.49854.86523-.49854h14.14746c.35645,0,.68652.18994.86523.49854.61523,1.06152,1.50098,1.94727,2.5625,2.5625.30859.17871.49854.50879.49854.86523v4.08374c1.09003,0,2.12.31,3,.89996.25.16998.53998.26001.84003.26001.05341-.00446.10638-.01001.15997-.01001v-8.15997c0-.54999-.45001-1-1-1-1.65002,0-3-1.35004-3-3,0-.54999-.45001-1-1-1H10c-.54999,0-1,.45001-1,1,0,1.64996-1.34998,3-3,3-.54999,0-1,.45001-1,1v10c0,6.83997,9.65002,13.73999,13.21002,16.04999-.06-.37-.07001-.73999-.04004-1.10999Z" fill="#000" stroke-width="0"/>
</svg>