<?xml version="1.0" encoding="UTF-8"?>
<svg xmlns="http://www.w3.org/2000/svg" version="1.1" viewBox="0 0 48 48">
  <!-- Generator: Adobe Illustrator 28.7.1, SVG Export Plug-In . SVG Version: 1.2.0 Build 142)  -->
  <g>
    <g id="Glyph">
      <g>
        <path d="M42,27h-2v4c0,2.20996-1.78998,4-4,4s-4-1.79004-4-4v-4h-2c-.54999,0-1,.45001-1,1v7c0,3.76001,5.81,7.44,6.48013,7.85007.3207.20039.71807.19684,1.03989-.00009.66998-.40997,6.47998-4.08997,6.47998-7.84998v-7c0-.54999-.45001-1-1-1Z"/>
        <path d="M34,12.57617v18.42383c0,1.10455.89545,2,2,2s2-.89545,2-2V12.57617c1.7627-.77374,3-2.53113,3-4.57617v-2c0-.55225-.44727-1-1-1h-8c-.55273,0-1,.44775-1,1v2c0,2.04504,1.2373,3.80243,3,4.57617ZM33,7h6v1c0,1.6543-1.3457,3-3,3s-3-1.3457-3-3v-1Z"/>
        <path d="M27,35v-4c-.09003,0-.16998,0-.26001.01001-.89996-3.49005-4.07001-6.01001-7.73999-6.01001s-6.84003,2.51996-7.73999,6.01001c-.09003-.01001-.16998-.01001-.26001-.01001-3.31,0-6,2.69-6,6s2.69,6,6,6h16c1.40002,0,2.69-.48004,3.71002-1.29004-1.87-1.72998-3.71002-4.10999-3.71002-6.70996Z"/>
      </g>
    </g>
  </g>
</svg>