<?xml version="1.0" encoding="UTF-8"?>
<svg id="Glyph" xmlns="http://www.w3.org/2000/svg" version="1.1" viewBox="0 0 64 64">
  <path d="M12,43v3c0,.54999.45001,1,1,1h15v4h-9c-1.6543,0-3,1.3457-3,3v2c0,.55225.44727,1,1,1h30c.55273,0,1-.44775,1-1v-2c0-1.6543-1.3457-3-3-3h-9v-4h15c.54999,0,1-.45001,1-1v-3H12Z" fill="#000" stroke-width="0"/>
  <rect x="33" y="19" width="6" height="6" fill="#000" stroke-width="0"/>
  <rect x="25" y="19" width="6" height="6" fill="#000" stroke-width="0"/>
  <rect x="33" y="27" width="6" height="6" fill="#000" stroke-width="0"/>
  <rect x="25" y="27" width="6" height="6" fill="#000" stroke-width="0"/>
  <polygon points="23 27 14.53308 27 13.44244 33 23 33 23 27" fill="#000" stroke-width="0"/>
  <polygon points="41 33 50.55756 33 49.46692 27 41 27 41 33" fill="#000" stroke-width="0"/>
  <polygon points="41 41 51.83002 41 50.92114 35 41 35 41 41" fill="#000" stroke-width="0"/>
  <rect x="33" y="35" width="6" height="6" fill="#000" stroke-width="0"/>
  <rect x="25" y="35" width="6" height="6" fill="#000" stroke-width="0"/>
  <polygon points="23 35 13.07886 35 12.16998 41 23 41 23 35" fill="#000" stroke-width="0"/>
  <path d="M41,25h8.10333l-1.12335-5.17999c-.07996-.47003-.5-.82001-.97998-.82001h-6v6Z" fill="#000" stroke-width="0"/>
  <path d="M23,19h-6c-.47998,0-.90002.34998-.97998.82001l-1.12335,5.17999h8.10333v-6Z" fill="#000" stroke-width="0"/>
  <path d="M32,13c-2.78998,0-5.20001,1.64001-6.32001,4h12.64001c-1.12-2.35999-3.53003-4-6.32001-4Z" fill="#000" stroke-width="0"/>
  <path d="M32,11c.55273,0,1-.44775,1-1v-2c0-.55225-.44727-1-1-1s-1,.44775-1,1v2c0,.55225.44727,1,1,1Z" fill="#000" stroke-width="0"/>
  <path d="M26.13379,11.83984c.26113.45226.91121.62904,1.36621.36621.47852-.27637.64258-.88818.36621-1.36621l-1-1.73193c-.27734-.479-.88965-.64258-1.36621-.36621-.47852.27637-.64258.88818-.36621,1.36621,0,0,.99788,1.72825,1,1.73193Z" fill="#000" stroke-width="0"/>
  <path d="M21.10742,14.86621l1.73242,1c1.10062.63531,2.12972-1.07994,1-1.73242l-1.73242-1c-.47754-.27686-1.08984-.11279-1.36621.36621-.27637.47852-.1123,1.08984.36621,1.36621Z" fill="#000" stroke-width="0"/>
  <path d="M36.50001,12.20606c.47309.27327,1.09357.10516,1.3662-.36622l1-1.73193c.27637-.47803.1123-1.08984-.36621-1.36621s-1.08984-.11279-1.36621.36621l-1,1.73193c-.27637.47803-.1123,1.08984.36622,1.36622Z" fill="#000" stroke-width="0"/>
  <path d="M40.66115,15.99594c.17019.00179.34246-.0393.499-.12973l1.73242-1c.47852-.27637.64258-.8877.36621-1.36621-.27734-.479-.88965-.64307-1.36621-.36621l-1.73242,1c-.8676.5008-.49636,1.85168.50099,1.86216Z" fill="#000" stroke-width="0"/>
</svg>