<?xml version="1.0" encoding="UTF-8"?>
<svg xmlns="http://www.w3.org/2000/svg" version="1.1" viewBox="0 0 64 64">
  <!-- Generator: Adobe Illustrator 28.7.1, SVG Export Plug-In . SVG Version: 1.2.0 Build 142)  -->
  <g>
    <g id="Glyph">
      <g>
        <polygon points="26.90479 27 21 27 21 36 26.08691 36 26.90479 27"/>
        <polygon points="19 36 19 27 13.09521 27 13.91309 36 19 36"/>
        <circle cx="14" cy="43" r="1"/>
        <path d="M30,21H10c-1.6543,0-3,1.3457-3,3v23c0,1.6543,1.3457,3,3,3h2.27692l-3.14508,5.50391c-.27393.47949-.10742,1.08984.3722,1.36433.47589.27354,1.09205.10421,1.36413-.37214l1.42633-2.49609h15.41101l1.42632,2.49608c.25137.43991.88632.64691,1.36427.37209.47949-.27441.646-.88477.37207-1.36426l-3.14508-5.50391h2.27692c1.6543,0,3-1.3457,3-3v-23c0-1.6543-1.3457-3-3-3ZM11.26172,25.3252c.18945-.20703.45752-.3252.73828-.3252h16c.28076,0,.54883.11816.73828.3252.18945.20801.2832.48535.25781.76562l-1,11c-.04688.51465-.479.90918-.99609.90918h-14c-.51709,0-.94922-.39453-.99609-.90918l-1-11c-.02539-.28027.06836-.55762.25781-.76562ZM11,43c0-1.6543,1.3457-3,3-3s3,1.3457,3,3-1.3457,3-3,3-3-1.3457-3-3ZM26.56262,52h-13.12524l1.14282-2h10.8396l1.14282,2ZM26,46c-1.6543,0-3-1.3457-3-3s1.3457-3,3-3,3,1.3457,3,3-1.3457,3-3,3Z"/>
        <circle cx="26" cy="43" r="1"/>
        <path d="M56,7h-20c-.55225,0-1,.44727-1,1v4c0,.55273.44775,1,1,1h2v2h-2c-.55225,0-1,.44727-1,1v6c0,.55273.44775,1,1,1h2v2h-2c-.55225,0-1,.44727-1,1v6c0,.55273.44775,1,1,1h12c.55225,0,1-.44727,1-1v-6c0-.55273-.44775-1-1-1h-2v-2h2c.55225,0,1-.44727,1-1v-6c0-.55273-.44775-1-1-1h-2v-2h5v30h6V8c0-.55273-.44775-1-1-1ZM44,25h-4v-2h4v2ZM44,15h-4v-2h4v2Z"/>
        <path d="M49,45h-13c-.55225,0-1,.44727-1,1v10c0,.55273.44775,1,1,1h20c.55225,0,1-.44727,1-1v-11h-8Z"/>
      </g>
    </g>
  </g>
</svg>